<svg id="svg" version="1.1" xmlns="http://www.w3.org/2000/svg" xmlns:xlink="http://www.w3.org/1999/xlink" width="400" height="288.8888888888889" viewBox="0, 0, 400,288.8888888888889"><g id="svgg"><path id="path0" d="M190.462 31.218 C 184.226 31.729,177.541 32.860,171.532 34.422 C 169.679 34.904,168.879 35.130,165.462 36.137 C 158.711 38.128,148.467 42.781,141.329 47.100 C 138.207 48.989,131.419 53.614,130.561 54.436 C 130.364 54.626,129.556 55.298,128.766 55.931 C 126.279 57.921,125.947 58.200,124.152 59.802 C 116.849 66.323,108.370 76.365,103.878 83.815 C 103.255 84.848,102.648 85.737,102.529 85.790 C 102.410 85.843,102.312 85.989,102.312 86.114 C 102.312 86.240,101.602 87.597,100.733 89.130 C 99.013 92.168,96.396 97.481,95.380 100.000 C 95.027 100.874,94.624 101.850,94.484 102.168 C 93.906 103.481,92.262 108.067,91.790 109.682 C 91.511 110.636,91.169 111.741,91.029 112.139 C 89.913 115.311,88.261 122.906,87.572 128.035 C 87.412 129.227,87.119 131.308,86.921 132.659 C 86.433 135.984,86.433 153.034,86.921 156.358 C 87.119 157.710,87.412 159.790,87.572 160.983 C 89.331 174.082,94.997 190.659,101.151 200.714 C 101.789 201.757,102.312 202.679,102.312 202.762 C 102.312 202.846,102.557 203.266,102.856 203.697 C 103.155 204.127,104.402 205.975,105.626 207.803 C 110.102 214.485,113.782 218.982,119.363 224.589 C 125.405 230.660,131.122 235.354,137.428 239.421 C 138.858 240.344,140.381 241.346,140.812 241.648 C 141.243 241.950,141.668 242.197,141.757 242.197 C 141.846 242.197,142.436 242.523,143.068 242.922 C 145.290 244.324,148.405 245.950,152.457 247.822 C 155.955 249.438,155.838 249.389,160.549 251.214 C 163.942 252.527,169.704 254.199,175.723 255.615 C 190.787 259.159,211.873 258.872,227.457 254.909 C 230.796 254.060,236.797 252.253,238.439 251.603 C 238.996 251.383,240.491 250.795,241.763 250.297 C 244.603 249.185,244.586 249.192,248.054 247.566 C 249.607 246.838,250.924 246.243,250.981 246.243 C 251.075 246.243,252.059 245.706,257.081 242.915 C 260.080 241.249,270.046 234.451,270.809 233.550 C 270.889 233.456,272.124 232.411,273.555 231.227 C 276.899 228.459,283.950 221.408,286.718 218.064 C 287.902 216.633,288.945 215.397,289.035 215.318 C 289.848 214.600,297.169 203.963,297.788 202.601 C 297.896 202.363,298.377 201.517,298.858 200.723 C 318.318 168.516,318.290 120.163,298.793 88.217 C 298.185 87.221,297.688 86.338,297.688 86.255 C 297.688 86.172,297.440 85.751,297.138 85.321 C 296.835 84.890,295.741 83.237,294.706 81.647 C 286.700 69.354,274.799 57.483,262.572 49.596 C 261.142 48.673,259.619 47.671,259.188 47.369 C 258.757 47.068,258.337 46.821,258.254 46.821 C 258.171 46.821,257.251 46.300,256.211 45.663 C 252.971 43.680,247.448 41.007,241.913 38.745 C 240.724 38.259,239.638 37.861,239.500 37.861 C 239.362 37.861,238.839 37.678,238.338 37.455 C 237.444 37.056,232.623 35.506,230.636 34.978 C 230.079 34.830,228.909 34.518,228.035 34.283 C 217.684 31.504,202.290 30.249,190.462 31.218 M211.561 86.535 C 247.822 91.322,277.227 116.565,286.973 151.273 C 290.188 162.721,291.301 177.345,289.417 183.382 C 286.879 191.516,281.165 197.309,272.977 200.046 L 270.954 200.723 193.183 200.798 L 115.413 200.873 114.453 200.220 C 111.139 197.965,111.525 192.811,115.101 191.553 C 115.836 191.294,115.896 191.154,115.896 189.712 L 115.896 188.150 152.212 188.150 L 188.529 188.150 187.978 187.543 C 187.506 187.022,187.407 186.333,187.283 182.702 L 187.139 178.468 167.293 178.324 L 147.447 178.179 147.265 179.624 C 146.694 184.146,140.462 184.129,140.462 179.605 L 140.462 178.330 128.251 178.255 L 116.040 178.179 116.040 176.590 L 116.040 175.000 128.252 175.000 L 140.463 175.000 140.463 170.087 L 140.463 165.173 128.252 165.173 L 116.040 165.173 116.040 162.717 L 116.040 160.260 115.017 159.795 C 112.948 158.856,111.860 156.742,112.240 154.398 C 112.531 152.611,111.526 153.546,131.336 136.620 C 132.118 135.951,136.477 132.218,141.023 128.324 C 145.569 124.429,152.266 118.707,155.904 115.607 C 159.543 112.507,162.662 109.841,162.835 109.682 C 163.009 109.523,163.996 108.679,165.029 107.805 C 166.062 106.932,166.973 106.147,167.052 106.061 C 167.249 105.847,188.688 87.554,189.469 86.934 C 190.845 85.839,204.433 85.594,211.561 86.535 M203.613 99.012 C 201.067 99.626,200.149 99.937,198.121 100.871 C 184.219 107.275,181.165 126.208,192.348 136.669 C 204.384 147.928,222.494 143.096,228.506 127.023 C 229.290 124.925,229.293 116.773,228.510 114.451 C 226.118 107.355,221.373 102.388,214.652 99.946 C 212.333 99.103,205.598 98.534,203.613 99.012 M208.216 103.344 C 209.515 104.643,208.379 105.653,205.381 105.868 C 204.128 105.957,202.964 106.169,202.794 106.339 C 202.624 106.509,202.282 106.647,202.033 106.647 C 200.953 106.647,199.084 107.908,196.848 110.143 C 193.855 113.137,192.768 115.454,192.290 119.864 C 192.104 121.582,191.657 122.110,190.611 121.848 C 189.346 121.530,189.669 117.181,191.216 113.685 C 191.437 113.184,191.618 112.631,191.618 112.456 C 191.618 112.282,191.749 112.139,191.908 112.139 C 192.066 112.139,192.197 111.995,192.197 111.819 C 192.197 111.109,196.468 106.358,197.106 106.358 C 197.244 106.358,197.538 106.178,197.758 105.958 C 199.540 104.176,207.147 102.275,208.216 103.344 M147.399 170.014 L 147.399 175.000 167.269 174.855 L 187.139 174.711 187.139 170.087 L 187.139 165.462 169.870 165.318 L 152.601 165.173 152.601 168.439 C 152.601 172.376,152.264 173.285,150.696 173.579 C 148.545 173.982,148.135 173.248,148.041 168.828 C 147.919 163.099,147.399 164.061,147.399 170.014 M199.127 168.714 C 199.118 173.000,198.807 173.579,196.548 173.511 C 195.149 173.469,195.087 173.500,195.087 174.234 L 195.087 175.000 232.493 174.855 C 269.760 174.712,269.903 174.709,270.716 174.112 C 273.407 172.138,273.133 167.426,270.242 165.968 L 268.953 165.318 234.043 165.318 L 199.133 165.318 199.127 168.714 M195.086 182.153 C 195.085 185.470,195.007 186.109,194.508 186.929 C 194.190 187.449,193.931 187.937,193.931 188.013 C 193.931 188.308,267.780 188.135,269.075 187.837 C 273.458 186.827,273.886 180.490,269.690 178.732 C 268.868 178.388,262.961 178.324,231.901 178.324 L 195.087 178.324 195.086 182.153 " stroke="none" fill="#e36549" fill-rule="evenodd"></path><path id="path1" d="M193.094 86.159 C 191.034 86.351,189.895 86.595,189.469 86.934 C 188.688 87.554,167.249 105.847,167.052 106.061 C 166.973 106.147,166.062 106.932,165.029 107.805 C 163.996 108.679,163.009 109.523,162.835 109.682 C 162.662 109.841,159.543 112.507,155.904 115.607 C 152.266 118.707,145.569 124.429,141.023 128.324 C 136.477 132.218,132.118 135.951,131.336 136.620 C 117.008 148.862,113.395 152.010,112.888 152.695 C 112.035 153.845,112.030 156.844,112.879 157.981 C 114.357 159.961,113.599 159.861,127.625 159.919 L 140.318 159.971 140.394 170.336 C 140.465 180.102,140.503 180.747,141.037 181.498 C 142.276 183.238,144.882 183.386,146.315 181.797 L 147.110 180.916 147.110 170.516 C 147.110 161.464,147.166 160.116,147.543 160.116 C 147.915 160.116,147.977 160.968,147.977 166.051 C 147.977 173.042,148.086 173.410,150.157 173.410 C 152.538 173.410,152.702 172.882,152.461 165.981 L 152.257 160.140 152.935 159.976 C 153.308 159.885,161.156 159.847,170.376 159.891 L 187.139 159.971 187.283 173.266 C 187.388 182.939,187.523 186.728,187.779 187.173 C 188.693 188.767,191.824 189.156,193.594 187.895 C 194.972 186.914,195.193 185.760,195.009 180.504 C 194.920 177.953,194.914 175.282,194.996 174.566 L 195.145 173.266 196.520 173.363 C 198.978 173.537,199.133 173.092,199.133 165.857 L 199.133 159.827 232.305 159.827 C 271.386 159.827,269.824 159.728,274.183 162.481 C 276.823 164.148,280.058 168.453,280.058 170.299 C 280.058 170.516,280.213 170.849,280.403 171.039 C 280.981 171.617,280.870 179.010,280.257 180.780 C 278.470 185.942,275.610 188.844,270.231 190.954 C 269.002 191.436,264.716 191.468,191.815 191.542 C 118.988 191.617,114.661 191.649,114.002 192.126 C 111.382 194.017,111.620 198.292,114.453 200.220 L 115.413 200.873 193.183 200.798 L 270.954 200.723 272.977 200.046 C 281.165 197.309,286.879 191.516,289.417 183.382 C 291.301 177.345,290.188 162.721,286.973 151.273 C 275.432 110.172,235.140 82.226,193.094 86.159 M214.652 99.946 C 221.373 102.388,226.118 107.355,228.510 114.451 C 229.293 116.773,229.290 124.925,228.506 127.023 C 223.786 139.643,212.200 145.529,200.154 141.428 C 181.796 135.179,180.484 108.995,198.121 100.871 C 200.149 99.937,201.067 99.626,203.613 99.012 C 205.598 98.534,212.333 99.103,214.652 99.946 " stroke="none" fill="#5a2b0b" fill-rule="evenodd"></path><path id="path2" d="M203.757 103.454 C 201.540 103.962,198.475 105.241,197.758 105.958 C 197.538 106.178,197.244 106.358,197.106 106.358 C 196.468 106.358,192.197 111.109,192.197 111.819 C 192.197 111.995,192.066 112.139,191.908 112.139 C 191.749 112.139,191.618 112.282,191.618 112.456 C 191.618 112.631,191.437 113.184,191.216 113.685 C 189.669 117.181,189.346 121.530,190.611 121.848 C 191.657 122.110,192.104 121.582,192.290 119.864 C 192.768 115.454,193.855 113.137,196.848 110.143 C 199.084 107.908,200.953 106.647,202.033 106.647 C 202.282 106.647,202.624 106.509,202.794 106.339 C 202.964 106.169,204.128 105.957,205.381 105.868 C 207.748 105.699,208.671 105.262,208.671 104.311 C 208.671 102.862,207.350 102.632,203.757 103.454 M116.018 160.504 C 115.936 160.718,115.907 161.856,115.955 163.033 L 116.040 165.173 128.035 165.173 L 140.029 165.173 140.112 162.645 L 140.196 160.116 128.181 160.116 C 118.390 160.116,116.139 160.187,116.018 160.504 M152.662 162.645 L 152.746 165.173 169.870 165.248 L 186.994 165.323 186.994 162.719 L 186.994 160.116 169.786 160.116 L 152.579 160.116 152.662 162.645 M199.133 162.717 L 199.133 165.318 234.043 165.318 L 268.953 165.318 270.242 165.968 C 273.133 167.426,273.407 172.138,270.716 174.112 C 269.903 174.709,269.759 174.712,232.566 174.855 L 195.231 175.000 195.145 176.662 L 195.058 178.324 231.887 178.324 C 262.959 178.324,268.868 178.388,269.690 178.732 C 273.886 180.490,273.458 186.827,269.075 187.837 C 268.216 188.035,255.221 188.142,230.780 188.153 C 199.264 188.168,193.679 188.232,193.064 188.584 C 192.116 189.125,189.856 189.131,189.145 188.593 C 188.659 188.225,183.737 188.167,152.225 188.159 L 115.866 188.150 115.953 189.668 L 116.040 191.185 190.318 191.269 C 270.052 191.360,268.557 191.385,271.877 189.880 C 275.201 188.373,278.542 185.008,279.334 182.370 C 279.453 181.973,279.658 181.512,279.790 181.346 C 279.921 181.181,280.182 179.847,280.370 178.384 C 281.388 170.450,278.070 164.053,271.532 161.344 C 268.619 160.137,267.948 160.116,232.895 160.116 L 199.133 160.116 199.133 162.717 M147.787 162.572 C 147.788 163.844,147.839 164.328,147.900 163.648 C 147.961 162.969,147.960 161.928,147.898 161.336 C 147.836 160.744,147.786 161.301,147.787 162.572 M116.014 175.253 C 115.929 175.475,115.900 176.224,115.950 176.918 L 116.040 178.179 128.121 178.255 L 140.202 178.330 140.116 176.665 L 140.029 175.000 128.099 174.925 C 118.103 174.861,116.144 174.915,116.014 175.253 M147.516 175.256 C 147.432 175.476,147.403 176.224,147.453 176.918 L 147.543 178.179 167.269 178.253 L 186.994 178.328 186.994 176.592 L 186.994 174.855 167.332 174.855 C 150.843 174.855,147.645 174.920,147.516 175.256 " stroke="none" fill="#f7f0e8" fill-rule="evenodd"></path><path id="path3" d="M0.000 144.509 L 0.000 289.017 200.000 289.017 L 400.000 289.017 400.000 144.509 L 400.000 0.000 200.000 0.000 L 0.000 0.000 0.000 144.509 M213.584 31.196 C 214.617 31.378,216.698 31.722,218.208 31.958 C 221.369 32.454,224.899 33.144,226.156 33.513 C 226.633 33.653,227.478 33.851,228.035 33.954 C 228.591 34.056,229.371 34.252,229.769 34.388 C 230.166 34.524,231.272 34.856,232.225 35.124 C 235.571 36.066,241.827 38.271,244.075 39.299 C 244.393 39.445,245.303 39.845,246.098 40.188 C 268.071 49.672,288.118 68.009,299.800 89.306 C 300.828 91.182,304.046 97.625,304.046 97.809 C 304.046 97.879,304.420 98.758,304.877 99.763 C 313.863 119.518,316.211 144.149,311.443 168.642 C 310.873 171.574,309.669 176.012,308.229 180.491 C 307.757 181.958,305.576 187.818,305.216 188.584 C 305.067 188.902,304.661 189.812,304.314 190.607 C 292.127 218.523,268.416 240.788,239.428 251.534 C 237.056 252.414,234.725 253.219,234.249 253.323 C 233.772 253.428,233.121 253.631,232.803 253.775 C 232.486 253.918,231.705 254.157,231.069 254.304 C 230.434 254.452,228.873 254.834,227.601 255.153 C 223.170 256.266,220.503 256.771,213.295 257.864 C 209.899 258.379,190.101 258.379,186.705 257.864 C 179.556 256.780,176.811 256.261,172.543 255.189 C 171.351 254.889,169.790 254.498,169.075 254.320 C 168.360 254.143,167.514 253.896,167.197 253.773 C 166.879 253.650,165.838 253.311,164.884 253.020 C 134.795 243.831,107.537 218.952,95.236 189.451 C 94.640 188.020,93.984 186.460,93.780 185.983 C 92.713 183.498,89.932 174.746,89.314 171.928 C 89.161 171.233,88.835 169.754,88.588 168.642 C 85.377 154.161,85.377 134.857,88.588 120.376 C 88.835 119.263,89.161 117.784,89.314 117.089 C 89.932 114.271,92.713 105.519,93.780 103.035 C 93.984 102.558,94.632 101.017,95.219 99.610 C 106.000 73.776,127.456 52.023,153.757 40.263 C 158.920 37.955,162.025 36.832,168.931 34.778 C 171.844 33.912,176.706 32.799,179.480 32.363 C 180.513 32.201,181.571 32.002,181.831 31.921 C 182.341 31.762,185.831 31.296,189.306 30.922 C 192.449 30.585,211.331 30.797,213.584 31.196 " stroke="none" fill="#1ca4b4" fill-rule="evenodd"></path><path id="path4" d="M190.318 30.806 C 187.515 31.063,182.615 31.767,178.179 32.550 C 177.531 32.664,177.247 32.806,177.533 32.873 C 177.814 32.938,179.114 32.787,180.423 32.537 C 191.820 30.360,207.337 30.366,219.882 32.553 C 221.359 32.810,222.640 32.948,222.729 32.858 C 222.818 32.769,222.390 32.616,221.778 32.519 C 221.166 32.421,219.494 32.158,218.064 31.935 C 216.633 31.711,214.617 31.378,213.584 31.196 C 211.810 30.882,192.932 30.565,190.318 30.806 M174.780 33.225 C 174.182 33.341,173.597 33.536,173.479 33.659 C 173.233 33.916,175.585 33.567,176.445 33.218 L 177.023 32.985 176.445 33.000 C 176.127 33.008,175.378 33.109,174.780 33.225 M223.555 33.204 C 224.410 33.571,226.830 33.898,226.301 33.574 C 226.062 33.428,225.217 33.229,224.422 33.132 C 223.512 33.021,223.191 33.047,223.555 33.204 M171.156 34.100 C 170.631 34.224,170.122 34.406,170.024 34.504 C 169.729 34.799,170.878 34.663,172.110 34.257 C 173.365 33.843,172.701 33.734,171.156 34.100 M227.457 34.072 C 227.695 34.219,228.410 34.425,229.046 34.528 C 229.807 34.651,230.054 34.623,229.769 34.447 C 229.530 34.299,228.815 34.094,228.179 33.991 C 227.419 33.867,227.171 33.895,227.457 34.072 M167.960 35.014 C 167.426 35.167,167.055 35.359,167.136 35.440 C 167.301 35.606,169.653 35.022,169.653 34.815 C 169.653 34.625,169.077 34.692,167.960 35.014 M230.636 34.919 C 230.874 35.063,231.525 35.261,232.081 35.360 C 232.711 35.472,232.929 35.444,232.659 35.288 C 232.059 34.941,230.071 34.578,230.636 34.919 M162.861 36.680 C 161.113 37.284,159.032 38.037,158.237 38.352 C 157.442 38.668,156.546 39.015,156.245 39.123 C 155.944 39.231,155.759 39.382,155.835 39.457 C 155.910 39.533,157.685 38.948,159.779 38.157 C 161.873 37.367,164.301 36.513,165.175 36.259 C 166.680 35.821,167.196 35.530,166.402 35.565 C 166.203 35.574,164.610 36.076,162.861 36.680 M233.237 35.665 C 233.237 35.729,234.180 36.062,235.332 36.405 C 236.485 36.747,237.838 37.215,238.338 37.444 C 238.839 37.674,239.362 37.861,239.500 37.861 C 239.638 37.861,240.703 38.261,241.867 38.750 C 243.031 39.239,244.055 39.568,244.143 39.480 C 244.231 39.392,244.056 39.231,243.755 39.123 C 243.454 39.015,242.558 38.671,241.763 38.359 C 236.979 36.484,233.237 35.302,233.237 35.665 M154.366 39.909 C 153.985 40.061,153.739 40.252,153.820 40.332 C 153.988 40.501,155.491 39.975,155.491 39.747 C 155.491 39.538,155.180 39.583,154.366 39.909 M244.653 39.819 C 244.812 39.978,245.267 40.203,245.665 40.318 C 246.146 40.458,246.291 40.431,246.098 40.238 C 245.939 40.079,245.484 39.855,245.087 39.740 C 244.605 39.600,244.461 39.627,244.653 39.819 M150.289 41.862 C 146.333 43.845,145.598 44.249,145.721 44.373 C 145.822 44.473,153.143 40.884,153.438 40.589 C 153.832 40.195,152.716 40.646,150.289 41.862 M246.532 40.586 C 246.532 40.654,247.280 41.058,248.194 41.483 C 251.281 42.920,254.310 44.499,256.211 45.663 C 257.251 46.300,258.171 46.821,258.254 46.821 C 258.337 46.821,258.757 47.068,259.188 47.369 C 259.619 47.671,261.142 48.673,262.572 49.596 C 274.799 57.483,286.700 69.354,294.706 81.647 C 295.741 83.237,296.835 84.890,297.138 85.321 C 297.440 85.751,297.688 86.165,297.688 86.239 C 297.688 86.557,299.802 89.890,299.925 89.767 C 300.077 89.614,297.824 85.785,295.402 82.081 C 284.395 65.249,269.068 51.582,251.110 42.585 C 247.008 40.530,246.532 40.322,246.532 40.586 M141.618 46.559 C 124.716 56.923,112.266 69.335,102.364 85.694 C 98.929 91.368,93.867 101.766,94.319 102.219 C 94.416 102.316,94.576 102.149,94.674 101.848 C 95.465 99.427,98.453 93.156,100.733 89.130 C 101.602 87.597,102.312 86.240,102.312 86.114 C 102.312 85.989,102.410 85.843,102.529 85.790 C 102.648 85.737,103.255 84.848,103.878 83.815 C 108.370 76.365,116.849 66.323,124.152 59.802 C 125.947 58.200,126.279 57.921,128.766 55.931 C 129.556 55.298,130.364 54.626,130.561 54.436 C 131.445 53.588,139.111 48.378,141.552 46.965 C 141.827 46.806,142.800 46.244,143.714 45.716 C 145.286 44.807,145.655 44.500,145.159 44.515 C 145.040 44.519,143.447 45.439,141.618 46.559 M300.038 90.318 C 300.099 90.477,301.075 92.493,302.208 94.798 C 305.363 101.218,308.074 108.448,309.839 115.149 C 310.212 116.566,310.566 117.580,310.625 117.403 C 310.722 117.111,309.866 113.631,309.259 111.850 C 309.124 111.452,308.798 110.412,308.536 109.538 C 307.842 107.229,305.840 101.880,304.877 99.763 C 304.420 98.758,304.046 97.879,304.046 97.809 C 304.046 97.514,300.524 90.584,300.239 90.319 C 300.033 90.127,299.965 90.127,300.038 90.318 M93.629 103.356 C 91.790 108.187,89.209 116.782,89.366 117.552 C 89.423 117.833,89.708 117.088,89.999 115.896 C 90.289 114.704,90.694 113.208,90.897 112.572 C 91.100 111.936,91.498 110.636,91.781 109.682 C 92.065 108.728,92.732 106.791,93.264 105.377 C 93.797 103.964,94.168 102.742,94.090 102.664 C 94.011 102.585,93.804 102.897,93.629 103.356 M310.878 119.220 C 310.975 120.014,311.174 120.860,311.320 121.098 C 311.490 121.376,311.515 121.064,311.391 120.231 C 311.109 118.331,310.661 117.449,310.878 119.220 M88.908 118.714 C 88.576 119.845,88.410 121.525,88.673 121.098 C 88.965 120.625,89.392 118.208,89.185 118.208 C 89.114 118.208,88.989 118.436,88.908 118.714 M88.040 122.760 C 87.705 124.460,87.563 126.446,87.817 125.867 C 88.116 125.188,88.546 121.965,88.339 121.965 C 88.260 121.965,88.126 122.323,88.040 122.760 M311.734 123.355 C 311.830 124.198,312.021 125.239,312.158 125.667 C 312.325 126.185,312.350 125.866,312.234 124.711 C 312.138 123.757,311.947 122.717,311.809 122.399 C 311.651 122.034,311.623 122.385,311.734 123.355 M312.552 128.468 C 312.660 129.581,312.898 131.272,313.080 132.225 C 313.535 134.602,313.538 154.444,313.084 156.792 C 312.658 158.991,312.301 162.624,312.531 162.409 C 314.164 160.883,314.164 128.134,312.531 126.608 C 312.435 126.519,312.445 127.355,312.552 128.468 M87.194 127.953 C 86.874 130.051,86.631 133.380,86.810 133.215 C 87.024 133.017,87.655 127.154,87.480 126.979 C 87.414 126.913,87.285 127.351,87.194 127.953 M86.314 135.621 C 86.074 137.621,86.115 152.090,86.365 153.757 C 86.473 154.473,86.561 150.343,86.561 144.581 C 86.561 138.819,86.546 134.104,86.529 134.104 C 86.511 134.104,86.415 134.787,86.314 135.621 M86.885 157.965 C 86.973 159.246,87.154 160.742,87.288 161.289 C 87.451 161.953,87.479 161.516,87.374 159.971 C 87.288 158.699,87.106 157.204,86.972 156.647 C 86.806 155.966,86.778 156.395,86.885 157.965 M128.096 160.042 L 140.151 160.122 140.253 162.648 L 140.356 165.173 140.337 162.572 L 140.318 159.971 128.179 159.966 L 116.040 159.961 128.096 160.042 M169.860 160.042 L 186.973 160.120 187.073 162.864 L 187.172 165.608 187.155 162.790 L 187.139 159.971 169.942 159.968 L 152.746 159.964 169.860 160.042 M215.801 160.043 C 225.049 160.086,240.265 160.086,249.616 160.043 C 258.968 160.001,251.402 159.966,232.803 159.966 C 214.205 159.966,206.554 160.001,215.801 160.043 M147.177 170.014 C 147.241 179.430,147.248 179.550,147.326 172.471 C 147.372 168.378,147.504 165.029,147.620 165.029 C 147.737 165.029,147.832 163.923,147.832 162.572 C 147.832 160.800,147.732 160.116,147.471 160.116 C 147.188 160.116,147.124 162.252,147.177 170.014 M152.418 162.861 C 152.418 164.451,152.467 165.064,152.526 164.224 C 152.584 163.385,152.584 162.084,152.524 161.334 C 152.465 160.585,152.417 161.272,152.418 162.861 M268.969 160.523 C 269.943 160.748,271.158 161.148,271.669 161.412 C 272.179 161.676,272.668 161.821,272.756 161.734 C 273.048 161.441,270.245 160.426,268.713 160.269 L 267.197 160.115 268.969 160.523 M273.266 162.046 C 273.425 162.199,274.140 162.769,274.855 163.311 C 276.675 164.691,278.272 166.526,278.716 167.744 C 278.826 168.045,278.996 168.210,279.095 168.111 C 279.613 167.594,275.858 163.340,273.979 162.314 C 273.428 162.014,273.107 161.893,273.266 162.046 M87.759 164.306 C 87.858 165.260,88.051 166.301,88.187 166.618 C 88.336 166.969,88.362 166.513,88.253 165.462 C 88.153 164.509,87.960 163.468,87.825 163.150 C 87.675 162.800,87.649 163.256,87.759 164.306 M311.879 164.547 C 311.513 166.653,311.493 167.458,311.829 166.618 C 312.110 165.917,312.524 162.717,312.334 162.717 C 312.259 162.717,312.055 163.540,311.879 164.547 M88.604 168.786 C 88.708 169.501,88.909 170.282,89.049 170.520 C 89.208 170.789,89.236 170.458,89.123 169.653 C 89.022 168.938,88.822 168.158,88.677 167.919 C 88.511 167.644,88.484 167.960,88.604 168.786 M311.168 168.136 C 310.846 169.273,310.676 171.233,310.935 170.809 C 311.234 170.319,311.673 167.630,311.453 167.630 C 311.375 167.630,311.246 167.858,311.168 168.136 M279.528 169.379 C 279.697 169.864,279.889 170.207,279.955 170.142 C 280.098 169.998,279.553 168.497,279.357 168.497 C 279.282 168.497,279.359 168.894,279.528 169.379 M280.282 172.276 C 280.548 174.268,280.550 177.149,280.286 179.191 C 280.119 180.485,280.145 180.673,280.424 180.202 C 280.896 179.407,280.889 171.525,280.416 171.052 C 280.152 170.787,280.121 171.068,280.282 172.276 M89.306 171.600 C 89.306 172.299,91.514 179.800,92.647 182.948 C 93.864 186.331,93.938 186.505,94.090 186.353 C 94.168 186.275,93.797 185.054,93.264 183.640 C 92.732 182.226,92.068 180.289,91.790 179.335 C 91.511 178.382,91.167 177.276,91.026 176.879 C 90.884 176.481,90.489 175.051,90.149 173.699 C 89.491 171.094,89.306 170.632,89.306 171.600 M309.848 173.869 C 308.235 180.084,305.354 187.809,302.368 193.931 C 300.032 198.718,299.947 198.911,300.255 198.721 C 300.511 198.562,303.226 193.144,304.321 190.607 C 304.664 189.812,305.067 188.902,305.216 188.584 C 305.576 187.818,307.757 181.958,308.229 180.491 C 309.687 175.956,310.754 172.002,310.625 171.614 C 310.566 171.437,310.216 172.451,309.848 173.869 M187.091 176.590 C 187.091 177.782,187.142 178.270,187.205 177.673 C 187.267 177.077,187.267 176.102,187.205 175.506 C 187.142 174.910,187.091 175.397,187.091 176.590 M140.263 176.734 C 140.265 177.688,140.319 178.043,140.383 177.524 C 140.447 177.004,140.446 176.224,140.380 175.790 C 140.314 175.355,140.261 175.780,140.263 176.734 M194.887 176.734 C 194.889 177.688,194.943 178.043,195.007 177.524 C 195.071 177.004,195.070 176.224,195.004 175.790 C 194.938 175.355,194.886 175.780,194.887 176.734 M279.480 181.936 C 279.312 182.378,279.240 182.804,279.319 182.884 C 279.399 182.963,279.601 182.667,279.769 182.225 C 279.937 181.784,280.009 181.358,279.929 181.278 C 279.850 181.199,279.648 181.495,279.480 181.936 M277.973 184.835 C 277.400 185.705,277.017 186.416,277.122 186.416 C 277.393 186.415,279.311 183.550,279.149 183.388 C 279.075 183.314,278.546 183.965,277.973 184.835 M94.220 186.896 C 94.220 187.617,99.107 198.057,99.746 198.699 C 100.129 199.085,99.906 198.577,97.781 194.220 C 96.813 192.233,95.666 189.762,95.234 188.728 C 94.413 186.766,94.220 186.417,94.220 186.896 M275.289 187.768 C 274.653 188.339,273.223 189.239,272.110 189.768 C 270.997 190.298,270.282 190.731,270.520 190.732 C 271.474 190.735,274.809 188.786,276.268 187.373 C 277.377 186.298,276.556 186.630,275.289 187.768 M188.977 188.439 C 189.995 189.302,194.732 188.856,193.856 187.979 C 193.785 187.909,193.351 188.048,192.890 188.288 C 191.823 188.844,190.273 188.846,189.162 188.293 L 188.295 187.860 188.977 188.439 M266.958 191.078 C 265.858 191.219,232.000 191.299,190.455 191.258 C 149.463 191.218,116.025 191.285,116.147 191.408 C 116.549 191.809,268.847 191.525,269.509 191.122 L 270.087 190.769 269.509 190.797 C 269.191 190.812,268.043 190.939,266.958 191.078 M100.000 199.310 C 100.000 199.551,102.645 203.947,104.589 206.936 C 112.689 219.389,124.096 230.934,136.561 239.295 C 141.424 242.557,152.961 248.870,153.349 248.482 C 153.435 248.396,152.749 247.972,151.825 247.541 C 148.335 245.912,145.112 244.212,143.068 242.922 C 142.436 242.523,141.846 242.197,141.757 242.197 C 141.668 242.197,141.243 241.950,140.812 241.648 C 140.381 241.346,138.858 240.344,137.428 239.421 C 127.284 232.878,114.285 220.596,108.671 212.249 C 108.432 211.895,107.513 210.587,106.629 209.343 C 105.220 207.362,103.343 204.489,102.457 202.956 C 102.298 202.681,101.735 201.709,101.207 200.795 C 100.317 199.256,100.000 198.865,100.000 199.310 M299.235 200.045 C 298.950 200.577,298.556 201.272,298.358 201.590 C 298.161 201.908,297.908 202.363,297.795 202.601 C 297.115 204.045,289.837 214.610,289.035 215.318 C 288.945 215.397,287.902 216.633,286.718 218.064 C 285.534 219.494,282.673 222.557,280.360 224.869 C 278.048 227.182,274.986 230.042,273.555 231.227 C 272.124 232.411,270.889 233.456,270.809 233.550 C 270.046 234.451,260.080 241.249,257.081 242.915 C 252.080 245.694,251.075 246.243,250.987 246.243 C 250.635 246.243,246.526 248.357,246.646 248.476 C 246.907 248.737,253.815 245.183,258.424 242.415 C 272.337 234.063,283.711 223.542,293.223 210.230 C 295.494 207.051,300.119 199.445,299.908 199.234 C 299.823 199.149,299.520 199.514,299.235 200.045 M153.916 248.814 C 154.619 249.478,165.956 253.593,166.543 253.397 C 166.740 253.331,165.927 252.991,164.737 252.640 C 163.546 252.289,162.117 251.822,161.561 251.602 C 161.004 251.383,159.509 250.793,158.237 250.292 C 156.965 249.791,155.515 249.195,155.014 248.968 C 153.978 248.498,153.512 248.433,153.916 248.814 M244.942 248.979 C 243.957 249.446,240.681 250.790,239.595 251.173 C 239.198 251.313,237.572 251.877,235.983 252.426 C 234.393 252.976,233.310 253.435,233.575 253.447 C 234.425 253.484,245.470 249.394,246.084 248.814 C 246.496 248.425,245.943 248.505,244.942 248.979 M167.197 253.692 C 167.355 253.848,168.006 254.060,168.642 254.162 C 170.039 254.386,169.431 253.927,167.919 253.615 C 167.255 253.479,167.007 253.505,167.197 253.692 M231.560 253.753 C 231.036 253.878,230.516 254.077,230.404 254.196 C 230.113 254.507,232.461 254.054,232.789 253.735 C 233.107 253.426,232.930 253.429,231.560 253.753 M169.993 254.482 C 170.150 254.639,173.427 255.459,176.734 256.167 C 178.735 256.596,181.938 257.141,186.705 257.864 C 190.139 258.385,209.545 258.377,213.295 257.854 C 218.200 257.169,224.810 255.963,226.301 255.481 C 227.583 255.067,226.026 255.157,224.266 255.599 C 209.871 259.214,186.730 258.830,172.130 254.735 C 170.682 254.329,169.726 254.216,169.993 254.482 M228.381 254.620 C 226.986 254.951,226.826 255.289,228.179 255.047 C 229.431 254.822,230.582 254.335,229.769 254.374 C 229.530 254.385,228.906 254.496,228.381 254.620 " stroke="none" fill="#867c7c" fill-rule="evenodd"></path></g></svg>