<svg id="svg" version="1.1" xmlns="http://www.w3.org/2000/svg" xmlns:xlink="http://www.w3.org/1999/xlink" width="400" height="288.8888888888889" viewBox="0, 0, 400,288.8888888888889"><g id="svgg"><path id="path0" d="M191.040 31.074 C 168.474 33.018,149.143 40.411,131.069 54.008 C 116.521 64.953,103.141 81.795,96.254 97.832 C 95.912 98.627,95.517 99.538,95.376 99.855 C 91.477 108.608,88.882 118.191,87.078 130.491 C 86.337 135.549,86.334 153.516,87.075 158.526 C 88.988 171.480,92.336 183.314,96.476 191.763 C 96.787 192.399,97.444 193.764,97.936 194.798 C 101.195 201.650,108.011 212.177,112.422 217.173 C 118.311 223.842,119.764 225.360,123.555 228.799 C 137.559 241.505,156.200 251.379,173.410 255.206 C 190.881 259.091,206.522 259.351,222.688 256.027 C 224.277 255.700,226.098 255.323,226.734 255.190 C 257.122 248.818,286.793 225.229,301.608 195.665 C 306.143 186.615,308.664 179.552,311.101 169.075 C 314.910 152.701,314.401 131.909,309.767 114.595 C 303.527 91.277,288.732 69.046,269.942 54.753 C 268.909 53.967,267.999 53.259,267.919 53.179 C 267.073 52.333,264.658 51.005,263.346 50.664 C 262.444 50.430,260.535 49.643,259.104 48.915 C 257.673 48.187,255.983 47.332,255.347 47.016 C 253.305 45.999,251.691 46.025,250.014 47.101 C 244.630 50.556,243.536 58.113,246.352 72.399 C 247.699 79.232,247.794 79.958,247.793 83.382 C 247.792 89.846,245.414 94.143,241.150 95.387 C 238.518 96.154,236.459 94.517,233.309 89.154 C 227.828 79.821,224.250 77.311,216.474 77.345 C 204.466 77.398,199.263 86.633,201.431 104.046 C 201.964 108.334,202.524 111.404,203.169 113.582 C 203.334 114.137,203.483 115.048,203.502 115.605 C 203.520 116.162,203.595 116.391,203.667 116.113 C 203.847 115.427,205.079 115.459,206.503 116.185 C 208.076 116.987,231.502 117.094,232.294 116.303 C 232.873 115.723,253.617 115.785,253.985 116.367 C 254.098 116.546,254.873 116.786,255.708 116.900 C 256.542 117.013,257.291 117.213,257.371 117.343 C 257.452 117.473,258.037 117.668,258.672 117.775 C 259.307 117.882,259.827 118.089,259.827 118.233 C 259.827 118.378,259.940 118.497,260.079 118.497 C 260.440 118.497,262.707 119.581,263.728 120.242 C 264.205 120.550,264.790 120.895,265.029 121.007 C 265.908 121.421,267.208 122.886,266.826 123.033 C 266.606 123.118,266.974 123.518,267.736 124.023 C 272.943 127.472,277.759 135.367,279.519 143.338 C 280.244 146.623,280.293 157.266,279.600 160.809 C 274.901 184.809,247.387 195.727,227.500 181.483 L 225.107 179.769 201.114 179.769 L 177.120 179.769 175.916 180.747 C 159.255 194.272,133.278 187.588,124.936 167.630 C 120.997 158.205,121.231 144.605,125.487 135.586 C 127.655 130.992,133.414 124.029,135.473 123.512 C 136.085 123.358,136.126 123.288,135.731 123.067 C 134.811 122.552,140.679 118.497,142.345 118.497 C 142.581 118.497,142.775 118.369,142.775 118.212 C 142.775 118.054,143.295 117.843,143.931 117.741 C 144.566 117.639,145.087 117.455,145.087 117.331 C 145.087 117.207,145.770 117.013,146.604 116.900 C 147.439 116.786,148.214 116.546,148.327 116.367 C 148.474 116.134,151.582 116.040,159.166 116.040 L 169.798 116.040 169.787 116.824 C 169.778 117.528,169.824 117.565,170.243 117.185 C 170.637 116.829,172.590 116.763,182.722 116.763 C 194.073 116.763,194.804 116.732,195.994 116.191 C 196.687 115.877,197.538 115.617,197.884 115.613 C 198.456 115.608,198.490 115.521,198.248 114.676 C 191.760 92.055,198.280 74.251,213.680 72.534 C 224.204 71.361,230.628 75.004,237.141 85.838 C 240.109 90.774,240.078 90.746,241.123 89.525 C 242.199 88.266,242.775 86.194,242.775 83.579 C 242.775 81.373,242.702 80.828,241.483 73.844 C 239.142 60.440,239.248 55.193,241.981 49.133 C 242.997 46.881,245.714 43.859,247.765 42.700 C 249.286 41.840,249.146 41.707,244.778 39.868 C 238.756 37.332,231.277 34.890,225.723 33.645 C 213.801 30.975,202.188 30.114,191.040 31.074 M150.000 117.879 C 150.000 118.016,150.325 118.066,150.723 117.990 C 151.120 117.914,151.445 117.802,151.445 117.741 C 151.445 117.680,151.120 117.630,150.723 117.630 C 150.325 117.630,150.000 117.742,150.000 117.879 M250.891 117.734 C 251.236 118.032,252.601 118.184,252.601 117.925 C 252.601 117.763,252.189 117.630,251.686 117.630 C 251.183 117.630,250.825 117.677,250.891 117.734 M142.035 120.367 C 141.726 120.600,141.612 120.795,141.780 120.800 C 141.948 120.805,142.339 120.618,142.647 120.385 C 142.956 120.152,143.070 119.956,142.902 119.951 C 142.734 119.946,142.344 120.133,142.035 120.367 M259.826 120.340 C 260.223 120.572,260.603 120.708,260.669 120.641 C 260.849 120.462,260.632 120.325,259.827 120.111 L 259.104 119.918 259.826 120.340 M140.301 121.234 C 139.992 121.467,139.878 121.662,140.046 121.667 C 140.214 121.672,140.604 121.485,140.913 121.252 C 141.222 121.019,141.336 120.823,141.168 120.818 C 141.000 120.813,140.609 121.000,140.301 121.234 M138.362 122.409 C 137.270 123.152,136.859 123.675,137.789 123.140 C 138.471 122.748,139.777 121.691,139.590 121.683 C 139.508 121.679,138.955 122.006,138.362 122.409 M262.876 121.919 C 263.389 122.373,265.318 123.458,265.318 123.293 C 265.318 123.099,263.111 121.676,262.809 121.676 C 262.695 121.676,262.725 121.786,262.876 121.919 M245.376 126.479 C 247.009 126.686,251.367 126.719,251.057 126.522 C 250.873 126.405,249.357 126.327,247.688 126.348 C 246.019 126.370,244.978 126.428,245.376 126.479 M240.896 127.168 C 240.339 127.407,240.341 127.417,240.951 127.436 C 241.299 127.448,241.665 127.327,241.763 127.168 C 241.974 126.826,241.691 126.826,240.896 127.168 M218.280 130.835 C 218.559 130.908,219.014 130.908,219.292 130.835 C 219.570 130.762,219.342 130.703,218.786 130.703 C 218.230 130.703,218.002 130.762,218.280 130.835 M263.873 131.743 C 264.429 132.234,264.998 132.641,265.137 132.647 C 265.569 132.667,264.829 131.962,263.823 131.394 L 262.861 130.851 263.873 131.743 M267.550 134.837 C 268.589 135.876,269.484 136.681,269.540 136.626 C 269.674 136.492,266.135 132.948,265.868 132.948 C 265.754 132.948,266.511 133.798,267.550 134.837 M270.358 137.956 C 270.803 138.540,271.225 139.017,271.297 139.017 C 271.498 139.017,270.246 137.327,269.876 137.098 C 269.696 136.987,269.912 137.373,270.358 137.956 M239.685 139.980 C 237.971 141.277,238.142 141.542,239.884 140.290 C 240.679 139.719,241.329 139.199,241.329 139.135 C 241.329 138.859,240.820 139.121,239.685 139.980 M153.251 142.411 C 154.483 142.466,156.499 142.466,157.731 142.411 C 158.963 142.357,157.955 142.313,155.491 142.313 C 153.027 142.313,152.020 142.357,153.251 142.411 M235.898 142.815 C 235.375 143.151,235.010 143.488,235.087 143.565 C 235.228 143.706,236.994 142.554,236.994 142.321 C 236.994 142.129,236.916 142.164,235.898 142.815 M255.925 143.932 C 255.925 144.855,256.020 145.460,256.137 145.276 C 256.416 144.837,256.420 142.557,256.142 142.387 C 256.022 142.314,255.925 143.009,255.925 143.932 M221.395 143.187 C 220.966 144.316,221.051 144.494,221.566 143.544 C 221.810 143.093,221.939 142.652,221.852 142.564 C 221.764 142.477,221.559 142.757,221.395 143.187 M233.085 144.892 C 232.445 145.397,231.600 146.043,231.206 146.328 C 230.813 146.614,230.686 146.755,230.925 146.642 C 231.510 146.365,234.682 144.162,234.682 144.033 C 234.682 143.767,234.150 144.053,233.085 144.892 M220.552 145.408 C 220.374 145.919,220.279 146.387,220.341 146.449 C 220.403 146.511,220.599 146.143,220.777 145.633 C 220.955 145.122,221.050 144.653,220.988 144.592 C 220.927 144.530,220.730 144.897,220.552 145.408 M253.902 148.962 C 252.936 149.906,252.893 149.992,253.638 149.482 C 254.559 148.852,255.371 148.013,255.171 147.898 C 255.109 147.862,254.538 148.341,253.902 148.962 M268.207 149.565 C 268.580 149.962,268.938 150.233,269.004 150.167 C 269.146 150.025,268.004 148.844,267.724 148.844 C 267.617 148.844,267.834 149.169,268.207 149.565 M260.520 149.981 C 257.065 151.655,256.267 156.150,258.936 158.900 C 262.451 162.522,268.509 160.062,268.492 155.019 C 268.479 151.010,264.102 148.245,260.520 149.981 M255.789 150.448 C 255.237 150.837,254.911 151.155,255.066 151.155 C 255.220 151.154,255.737 150.833,256.214 150.442 C 257.327 149.530,257.084 149.533,255.789 150.448 M275.790 150.867 C 275.790 151.423,275.849 151.651,275.922 151.373 C 275.994 151.095,275.994 150.639,275.922 150.361 C 275.849 150.083,275.790 150.311,275.790 150.867 M168.902 155.925 C 168.902 158.309,168.947 159.246,169.001 158.007 C 169.056 156.768,169.055 154.817,169.000 153.672 C 168.946 152.527,168.901 153.540,168.902 155.925 M219.004 152.457 C 218.928 152.854,218.978 153.179,219.115 153.179 C 219.252 153.179,219.364 152.854,219.364 152.457 C 219.364 152.059,219.314 151.734,219.253 151.734 C 219.192 151.734,219.080 152.059,219.004 152.457 M153.068 152.627 C 150.018 155.026,151.690 159.830,155.573 159.826 C 158.934 159.822,160.746 155.242,158.280 152.982 C 156.956 151.769,154.382 151.593,153.068 152.627 M224.759 152.505 C 224.497 152.767,224.522 157.286,224.788 157.705 C 224.904 157.889,225.000 156.751,225.000 155.176 C 225.000 153.601,224.989 152.313,224.976 152.313 C 224.963 152.312,224.865 152.399,224.759 152.505 M246.547 154.357 C 244.660 155.738,244.350 156.045,245.520 155.372 C 246.416 154.857,248.522 153.191,248.266 153.200 C 248.186 153.203,247.413 153.724,246.547 154.357 M249.141 155.361 C 248.589 155.751,248.264 156.069,248.419 156.068 C 248.573 156.067,249.090 155.747,249.566 155.356 C 250.680 154.443,250.437 154.446,249.141 155.361 M219.004 157.948 C 219.080 158.345,219.192 158.671,219.253 158.671 C 219.314 158.671,219.364 158.345,219.364 157.948 C 219.364 157.551,219.252 157.225,219.115 157.225 C 218.978 157.225,218.928 157.551,219.004 157.948 M275.903 158.537 C 275.804 158.795,275.737 159.354,275.756 159.778 C 275.781 160.356,275.846 160.259,276.014 159.393 C 276.254 158.165,276.201 157.760,275.903 158.537 M269.074 159.899 C 268.649 160.480,268.579 160.682,268.891 160.428 C 269.365 160.044,270.082 158.960,269.862 158.960 C 269.807 158.960,269.452 159.382,269.074 159.899 M238.873 159.962 C 237.738 160.892,238.049 160.898,239.306 159.971 C 239.845 159.574,240.163 159.249,240.013 159.250 C 239.863 159.251,239.350 159.571,238.873 159.962 M226.881 160.913 C 226.883 161.176,228.873 162.556,229.021 162.397 C 229.079 162.335,228.621 161.927,228.003 161.491 C 227.384 161.056,226.880 160.795,226.881 160.913 M244.798 161.732 C 239.533 164.013,240.896 171.650,246.613 171.903 C 248.297 171.978,248.874 171.886,249.605 171.427 C 255.294 167.857,250.938 159.073,244.798 161.732 M239.084 166.474 C 239.084 167.030,239.144 167.258,239.217 166.980 C 239.289 166.702,239.289 166.246,239.217 165.968 C 239.144 165.690,239.084 165.918,239.084 166.474 M221.292 166.695 C 221.383 167.055,221.571 167.421,221.711 167.507 C 222.107 167.752,222.010 167.223,221.546 166.601 C 221.142 166.060,221.133 166.064,221.292 166.695 M258.526 167.668 C 257.226 168.641,256.521 169.310,257.231 168.897 C 258.093 168.395,260.116 166.973,260.116 166.869 C 260.116 166.606,259.595 166.868,258.526 167.668 M221.965 168.136 C 221.965 168.274,222.154 168.639,222.384 168.948 C 222.789 169.489,222.798 169.486,222.639 168.854 C 222.474 168.201,221.965 167.659,221.965 168.136 M153.528 169.289 C 154.594 169.345,156.415 169.345,157.574 169.290 C 158.733 169.235,157.861 169.190,155.636 169.189 C 153.410 169.189,152.462 169.234,153.528 169.289 M271.326 170.882 C 269.775 173.102,269.583 173.410,269.754 173.410 C 269.889 173.410,271.400 171.341,272.339 169.870 C 273.298 168.367,272.587 169.077,271.326 170.882 M239.895 170.247 C 239.889 170.336,240.210 170.849,240.607 171.387 C 241.004 171.926,241.329 172.244,241.328 172.094 C 241.327 171.801,239.912 169.979,239.895 170.247 M254.295 170.800 C 253.920 171.112,253.716 171.372,253.842 171.378 C 253.967 171.383,254.350 171.127,254.691 170.809 C 255.491 170.064,255.187 170.057,254.295 170.800 M267.823 175.193 C 267.531 175.511,267.347 175.824,267.412 175.890 C 267.478 175.956,267.836 175.685,268.209 175.288 C 268.582 174.891,268.767 174.577,268.620 174.591 C 268.473 174.604,268.114 174.875,267.823 175.193 M229.796 177.728 C 230.331 178.195,230.818 178.526,230.880 178.465 C 231.027 178.317,229.409 176.899,229.079 176.888 C 228.939 176.883,229.261 177.261,229.796 177.728 M234.227 180.601 C 234.313 180.741,234.679 180.929,235.039 181.020 C 235.671 181.179,235.674 181.170,235.133 180.766 C 234.511 180.302,233.983 180.205,234.227 180.601 " stroke="none" fill="#de7d42" fill-rule="evenodd"></path><path id="path1" d="M0.000 144.509 L 0.000 289.017 200.000 289.017 L 400.000 289.017 400.000 144.509 L 400.000 0.000 200.000 0.000 L 0.000 0.000 0.000 144.509 M214.306 31.133 C 214.624 31.311,216.055 31.586,217.486 31.744 C 220.398 32.068,225.983 33.127,228.324 33.800 C 233.557 35.306,235.474 35.894,235.875 36.116 C 236.133 36.259,236.818 36.465,237.395 36.574 C 237.973 36.682,238.517 36.886,238.604 37.027 C 238.691 37.168,238.982 37.288,239.251 37.293 C 239.520 37.298,240.260 37.554,240.896 37.861 C 241.532 38.168,242.216 38.424,242.417 38.429 C 242.618 38.435,243.008 38.565,243.284 38.718 C 243.560 38.872,244.436 39.275,245.231 39.615 C 247.081 40.406,252.301 43.034,254.346 44.204 C 255.215 44.701,256.250 45.264,256.647 45.455 C 257.045 45.646,257.521 45.934,257.705 46.095 C 257.889 46.256,259.558 47.298,261.415 48.410 C 264.404 50.202,270.547 54.543,272.543 56.275 C 272.941 56.619,273.591 57.171,273.988 57.501 C 277.168 60.142,284.089 67.068,286.998 70.520 C 287.333 70.918,287.848 71.523,288.141 71.865 C 291.347 75.599,297.749 84.968,299.762 88.873 C 303.017 95.186,303.902 97.010,305.055 99.785 C 305.798 101.572,306.590 103.445,306.815 103.945 C 307.041 104.446,307.225 105.056,307.225 105.301 C 307.225 105.546,307.341 105.818,307.482 105.905 C 307.623 105.992,307.827 106.536,307.935 107.113 C 308.043 107.691,308.245 108.375,308.383 108.634 C 309.046 109.873,311.164 117.846,311.848 121.676 C 312.033 122.710,312.309 124.010,312.461 124.566 C 312.737 125.572,313.036 127.852,313.616 133.382 C 314.010 137.139,313.824 158.170,313.392 158.715 C 313.223 158.929,312.997 160.194,312.890 161.526 C 312.784 162.858,312.571 164.182,312.418 164.469 C 312.264 164.756,312.139 165.349,312.139 165.786 C 312.139 166.530,311.930 167.531,310.787 172.254 C 310.169 174.812,308.692 179.807,308.383 180.383 C 308.245 180.642,308.043 181.326,307.935 181.904 C 307.827 182.482,307.623 183.026,307.482 183.113 C 307.341 183.200,307.225 183.471,307.225 183.716 C 307.225 183.961,307.041 184.571,306.815 185.072 C 306.590 185.573,305.792 187.459,305.042 189.264 C 302.691 194.919,295.951 207.360,295.024 207.755 C 294.899 207.808,294.798 207.975,294.798 208.126 C 294.798 208.400,289.627 215.452,288.507 216.705 C 288.181 217.070,287.479 217.906,286.948 218.563 C 284.212 221.946,277.481 228.675,273.995 231.515 C 273.125 232.223,272.225 232.979,271.996 233.193 C 271.075 234.053,263.876 239.306,263.619 239.306 C 263.467 239.306,263.300 239.410,263.247 239.537 C 263.115 239.853,255.946 244.220,255.560 244.220 C 255.390 244.220,255.207 244.323,255.154 244.449 C 255.058 244.678,247.141 248.630,244.942 249.546 C 244.306 249.811,243.560 250.152,243.284 250.303 C 243.008 250.454,242.618 250.582,242.417 250.588 C 242.216 250.593,241.532 250.849,240.896 251.156 C 240.260 251.463,239.576 251.719,239.375 251.724 C 239.174 251.730,238.784 251.851,238.508 251.993 C 235.411 253.593,224.723 256.305,217.197 257.400 C 208.350 258.687,195.673 258.992,188.006 258.101 C 182.390 257.449,180.463 257.186,180.058 257.015 C 179.819 256.915,178.714 256.670,177.601 256.472 C 173.570 255.753,172.105 255.422,171.835 255.170 C 171.684 255.029,171.266 254.913,170.906 254.913 C 170.546 254.913,169.694 254.731,169.013 254.508 C 168.332 254.285,166.409 253.681,164.740 253.165 C 163.071 252.650,161.582 252.117,161.431 251.981 C 161.280 251.845,160.954 251.730,160.708 251.724 C 160.462 251.719,159.740 251.463,159.104 251.156 C 158.468 250.849,157.784 250.593,157.583 250.588 C 157.382 250.582,156.992 250.454,156.716 250.303 C 156.440 250.152,155.694 249.811,155.058 249.546 C 152.950 248.668,144.944 244.665,144.846 244.440 C 144.793 244.319,144.614 244.220,144.449 244.220 C 144.168 244.220,137.017 239.956,136.705 239.602 C 136.626 239.511,136.171 239.189,135.694 238.886 C 133.714 237.626,127.418 232.821,126.022 231.503 C 125.769 231.264,125.111 230.697,124.559 230.241 C 123.181 229.104,119.036 225.068,116.763 222.649 C 115.065 220.842,113.677 219.258,111.122 216.213 C 105.792 209.857,99.151 198.985,95.658 190.896 C 95.521 190.578,95.076 189.566,94.670 188.648 C 94.263 187.729,93.926 186.883,93.921 186.769 C 93.915 186.654,93.660 186.040,93.353 185.405 C 93.045 184.769,92.790 184.029,92.784 183.760 C 92.779 183.491,92.656 183.198,92.511 183.108 C 92.366 183.018,92.159 182.426,92.052 181.792 C 91.945 181.158,91.746 180.570,91.610 180.486 C 91.474 180.402,91.275 179.750,91.168 179.036 C 91.061 178.322,90.870 177.674,90.743 177.596 C 90.616 177.518,90.422 176.902,90.310 176.227 C 90.199 175.552,90.009 174.870,89.888 174.711 C 89.767 174.552,89.576 173.785,89.463 173.007 C 89.350 172.228,89.151 171.383,89.019 171.128 C 88.888 170.873,88.577 169.624,88.329 168.353 C 88.081 167.081,87.799 165.650,87.701 165.173 C 87.463 164.010,86.764 159.073,86.432 156.214 C 86.084 153.215,86.084 135.803,86.432 132.803 C 86.764 129.944,87.463 125.007,87.701 123.844 C 87.799 123.367,88.081 121.936,88.329 120.665 C 88.577 119.393,88.888 118.144,89.019 117.889 C 89.151 117.634,89.350 116.789,89.463 116.011 C 89.576 115.232,89.765 114.465,89.883 114.306 C 90.001 114.147,90.192 113.497,90.306 112.861 C 90.421 112.225,90.616 111.575,90.740 111.416 C 90.864 111.257,91.056 110.623,91.167 110.008 C 91.278 109.392,91.483 108.677,91.623 108.418 C 91.762 108.160,92.150 107.103,92.484 106.069 C 92.818 105.036,93.345 103.639,93.655 102.966 C 93.966 102.292,94.220 101.661,94.220 101.564 C 94.220 101.467,94.405 100.978,94.632 100.477 C 95.817 97.863,96.243 96.823,96.243 96.548 C 96.243 96.380,96.373 96.243,96.532 96.243 C 96.691 96.243,96.821 96.070,96.821 95.858 C 96.821 95.502,98.502 92.106,100.208 89.017 C 103.157 83.676,107.847 76.709,111.122 72.804 C 111.602 72.233,112.640 70.997,113.430 70.059 C 115.217 67.936,123.292 59.845,125.434 58.031 C 126.308 57.291,127.348 56.401,127.746 56.054 C 128.684 55.235,134.570 50.845,135.694 50.128 C 136.171 49.823,136.733 49.410,136.943 49.209 C 137.153 49.008,137.499 48.844,137.713 48.844 C 137.927 48.844,138.145 48.743,138.198 48.619 C 138.328 48.317,144.096 44.798,144.462 44.798 C 144.620 44.798,144.793 44.699,144.846 44.578 C 144.948 44.345,152.324 40.654,154.769 39.613 C 155.564 39.274,156.440 38.872,156.716 38.718 C 156.992 38.565,157.382 38.435,157.583 38.429 C 157.784 38.424,158.468 38.168,159.104 37.861 C 159.740 37.554,160.480 37.298,160.749 37.293 C 161.018 37.288,161.309 37.168,161.396 37.027 C 161.483 36.886,162.027 36.682,162.605 36.574 C 163.182 36.465,163.867 36.259,164.125 36.116 C 164.526 35.894,166.443 35.306,171.676 33.800 C 172.861 33.459,174.732 33.059,177.746 32.500 C 178.938 32.280,180.564 31.972,181.358 31.818 C 182.153 31.664,183.395 31.530,184.118 31.520 C 184.842 31.511,185.557 31.379,185.708 31.229 C 186.327 30.611,213.209 30.521,214.306 31.133 M246.109 138.972 C 244.022 140.139,243.356 141.269,243.356 143.642 C 243.356 149.430,250.831 150.839,253.073 145.473 C 254.795 141.352,249.945 136.825,246.109 138.972 " stroke="none" fill="#1c84c4" fill-rule="evenodd"></path><path id="path2" d="M195.994 116.191 C 194.804 116.732,194.073 116.763,182.663 116.763 C 172.285 116.763,170.541 116.824,170.231 117.197 C 169.926 117.565,168.537 117.630,161.037 117.630 C 152.035 117.630,150.517 117.760,146.676 118.861 C 144.407 119.511,139.916 121.598,138.434 122.692 C 137.805 123.156,137.077 123.410,136.378 123.410 C 133.925 123.410,128.227 129.781,125.487 135.586 C 121.231 144.605,120.997 158.205,124.936 167.630 C 133.278 187.588,159.255 194.272,175.916 180.747 L 177.120 179.769 201.114 179.769 L 225.107 179.769 227.500 181.483 C 247.387 195.727,274.901 184.809,279.600 160.809 C 280.801 154.671,280.131 144.209,278.177 138.587 C 275.855 131.909,269.105 123.410,266.123 123.410 C 265.603 123.410,264.408 122.906,263.187 122.171 C 261.357 121.070,258.466 119.736,255.925 118.821 C 253.756 118.040,251.092 117.829,241.965 117.718 C 233.901 117.620,232.315 117.533,232.180 117.182 C 232.043 116.825,230.210 116.763,219.828 116.763 C 208.207 116.763,207.584 116.736,206.503 116.185 C 204.767 115.300,203.897 115.407,203.577 116.546 C 202.937 118.831,199.630 118.900,198.814 116.645 C 198.373 115.426,197.863 115.343,195.994 116.191 M190.125 126.401 C 190.204 126.815,190.101 126.894,189.663 126.755 C 188.662 126.438,188.341 127.264,189.165 128.038 C 190.642 129.425,189.669 131.296,187.726 130.809 C 186.829 130.583,187.024 130.058,188.006 130.058 C 189.040 130.058,189.143 129.568,188.316 128.585 C 187.416 127.516,187.387 127.063,188.168 126.283 C 188.874 125.577,189.980 125.644,190.125 126.401 M191.735 127.890 C 191.567 129.751,191.603 130.058,191.993 130.058 C 192.472 130.058,192.522 129.938,193.067 127.528 C 193.669 124.867,194.468 125.276,193.924 127.967 C 193.450 130.308,192.963 130.980,191.817 130.870 L 190.896 130.780 190.899 128.757 C 190.901 126.614,191.114 125.723,191.621 125.723 C 191.832 125.723,191.869 126.417,191.735 127.890 M197.125 126.315 C 198.006 127.197,197.424 128.775,196.150 128.957 C 195.725 129.017,195.430 129.351,195.244 129.986 C 194.596 132.186,194.092 130.797,194.622 128.272 C 195.207 125.488,195.819 125.009,197.125 126.315 M200.434 126.301 C 200.434 126.539,200.141 126.776,199.783 126.826 C 199.047 126.931,198.849 128.035,199.566 128.035 C 200.211 128.035,200.091 128.436,199.350 128.761 C 198.992 128.918,198.699 129.241,198.699 129.480 C 198.699 129.718,198.992 129.955,199.350 130.006 C 200.217 130.129,200.177 130.581,199.278 130.806 C 198.300 131.051,197.688 130.772,197.688 130.081 C 197.688 129.516,198.187 126.804,198.428 126.065 C 198.604 125.522,200.434 125.737,200.434 126.301 M203.404 126.172 C 204.167 126.707,204.212 127.224,203.577 128.193 C 203.275 128.654,203.169 129.212,203.279 129.761 C 203.536 131.048,202.942 131.117,202.412 129.862 C 201.920 128.696,201.877 128.719,201.315 130.467 C 200.582 132.749,200.601 128.722,201.335 126.228 C 201.520 125.600,202.547 125.572,203.404 126.172 M208.633 126.110 C 209.068 126.635,208.733 126.905,207.904 126.697 C 207.325 126.552,207.154 126.689,206.769 127.610 C 206.264 128.821,206.428 130.058,207.096 130.058 C 207.693 130.058,207.982 129.191,207.487 128.885 C 206.944 128.549,207.545 127.942,208.279 128.084 C 208.694 128.165,208.801 128.415,208.753 129.195 C 208.699 130.067,208.832 129.900,209.744 127.951 C 211.103 125.049,211.604 125.048,211.960 127.947 C 212.272 130.491,211.586 132.334,211.066 130.347 C 210.886 129.656,210.245 129.589,209.890 130.223 C 209.061 131.705,205.491 130.843,205.491 129.161 C 205.491 126.809,207.552 124.808,208.633 126.110 M214.360 125.949 C 214.549 126.069,214.744 126.815,214.794 127.607 L 214.884 129.046 215.404 127.890 C 216.239 126.031,216.364 125.867,216.938 125.867 C 217.561 125.867,217.567 126.979,216.958 129.355 C 216.552 130.938,216.076 131.152,215.947 129.809 L 215.855 128.837 215.369 129.809 C 214.775 130.999,214.356 130.965,214.151 129.708 L 213.996 128.757 213.597 129.814 C 212.893 131.680,212.470 130.888,212.911 128.528 C 213.465 125.558,213.539 125.427,214.360 125.949 M220.376 126.301 C 220.376 126.539,220.083 126.776,219.725 126.826 C 218.993 126.931,218.846 127.676,219.509 127.930 C 220.115 128.163,220.049 128.540,219.364 128.757 C 218.576 129.007,218.595 130.058,219.388 130.058 C 220.281 130.058,219.898 130.763,218.945 130.875 C 218.501 130.927,218.028 130.860,217.893 130.726 C 217.600 130.432,218.171 126.603,218.588 126.069 C 218.981 125.565,220.376 125.746,220.376 126.301 M181.973 127.068 C 182.231 128.092,181.762 128.757,180.784 128.757 C 179.640 128.757,179.040 127.800,179.644 126.937 C 180.313 125.983,181.721 126.062,181.973 127.068 M252.674 126.819 C 259.211 127.993,265.488 131.654,269.533 136.651 C 270.473 137.813,271.373 138.924,271.532 139.120 C 271.691 139.317,272.061 139.927,272.354 140.476 C 272.647 141.025,273.063 141.799,273.277 142.197 C 273.492 142.594,273.852 143.374,274.077 143.931 C 274.301 144.487,274.639 145.318,274.827 145.777 C 279.747 157.799,273.250 174.120,260.983 180.556 C 254.222 184.102,243.807 184.848,237.962 182.204 C 237.461 181.977,236.843 181.792,236.589 181.792 C 236.335 181.792,236.127 181.676,236.127 181.534 C 236.127 181.392,235.801 181.195,235.403 181.095 C 231.516 180.119,224.392 173.177,221.980 168.013 C 221.473 166.928,220.954 165.841,220.826 165.597 C 220.698 165.354,220.497 164.704,220.379 164.152 C 220.261 163.601,220.064 163.020,219.942 162.861 C 217.727 159.987,219.900 142.296,222.616 141.089 C 222.735 141.036,222.832 140.866,222.832 140.712 C 222.832 140.250,225.807 136.375,227.334 134.848 C 231.408 130.774,238.829 126.940,242.800 126.858 C 243.342 126.847,244.046 126.722,244.364 126.581 C 245.080 126.262,250.427 126.416,252.674 126.819 M202.213 126.785 C 201.933 127.065,201.982 128.035,202.277 128.035 C 202.837 128.035,203.199 127.255,202.795 126.919 C 202.580 126.741,202.318 126.680,202.213 126.785 M195.665 127.457 C 195.665 127.778,195.857 128.035,196.098 128.035 C 196.339 128.035,196.532 127.778,196.532 127.457 C 196.532 127.136,196.339 126.879,196.098 126.879 C 195.857 126.879,195.665 127.136,195.665 127.457 M210.627 128.022 C 210.427 128.733,210.547 129.145,210.862 128.830 C 210.954 128.738,210.984 128.359,210.928 127.987 L 210.826 127.312 210.627 128.022 M179.470 129.172 C 180.238 130.608,178.923 131.962,177.601 131.096 C 176.763 130.547,176.681 129.889,177.357 129.141 C 177.983 128.450,179.092 128.466,179.470 129.172 M184.228 129.067 C 184.840 129.679,184.799 130.230,184.089 130.940 C 183.155 131.874,181.807 131.262,181.796 129.899 C 181.787 128.677,183.315 128.154,184.228 129.067 M181.522 131.224 C 182.155 131.563,182.284 132.919,181.734 133.468 C 180.854 134.348,179.480 133.652,179.480 132.327 C 179.480 131.182,180.457 130.654,181.522 131.224 M219.075 133.962 L 219.075 134.976 203.107 134.901 L 187.139 134.827 187.048 133.887 L 186.958 132.948 203.016 132.948 L 219.075 132.948 219.075 133.962 M245.514 136.228 C 245.193 136.411,242.071 138.650,238.578 141.204 C 235.084 143.758,230.826 146.856,229.117 148.088 C 225.365 150.792,224.855 151.626,224.855 155.058 C 224.855 161.496,231.748 165.360,236.586 161.635 C 237.842 160.667,244.074 156.122,246.387 154.486 C 247.500 153.700,248.540 152.951,248.699 152.823 C 248.858 152.695,250.289 151.641,251.879 150.482 C 255.330 147.965,255.913 146.999,255.920 143.786 C 255.927 140.672,253.514 136.989,251.158 136.518 C 250.674 136.421,250.207 136.228,250.121 136.090 C 249.896 135.725,246.203 135.835,245.514 136.228 M250.841 138.670 C 254.746 140.618,254.693 146.792,250.756 148.580 C 245.902 150.784,241.056 145.929,243.360 141.170 C 244.647 138.511,248.166 137.335,250.841 138.670 M160.314 142.825 C 160.926 143.401,160.983 143.696,160.983 146.343 C 160.983 150.235,161.035 150.288,164.857 150.293 C 169.048 150.300,169.075 150.336,169.075 155.996 C 169.075 161.272,169.075 161.272,164.968 161.272 C 161.028 161.272,160.983 161.315,160.983 165.163 C 160.983 169.379,161.192 169.220,155.634 169.220 C 149.930 169.220,150.000 169.272,150.000 165.018 C 150.000 161.307,149.965 161.272,146.286 161.272 C 142.088 161.272,142.197 161.415,142.197 155.859 C 142.197 150.081,142.044 150.289,146.277 150.289 C 150.052 150.289,150.000 150.343,150.000 146.445 C 150.000 142.247,150.064 142.197,155.421 142.197 C 159.360 142.197,159.690 142.239,160.314 142.825 M261.088 147.371 C 260.056 147.633,259.812 147.796,253.902 152.165 C 251.517 153.927,248.916 155.813,248.121 156.356 C 247.327 156.898,246.530 157.479,246.350 157.645 C 246.171 157.812,245.733 158.143,245.377 158.382 C 241.685 160.853,240.718 161.721,240.026 163.183 C 237.962 167.546,240.310 172.716,245.003 174.140 C 247.967 175.040,249.033 174.678,253.847 171.138 C 258.190 167.946,260.982 165.918,261.863 165.318 C 270.200 159.633,271.603 157.637,270.366 153.225 C 269.260 149.284,264.754 146.441,261.088 147.371 M266.145 150.509 C 269.523 153.229,269.192 158.130,265.506 159.967 C 260.063 162.680,254.884 156.391,258.575 151.551 C 260.312 149.274,263.984 148.768,266.145 150.509 M233.878 150.013 C 236.888 150.849,238.645 154.413,237.453 157.265 C 235.616 161.662,229.373 161.907,227.422 157.659 C 225.405 153.266,229.239 148.724,233.878 150.013 M195.382 155.999 C 196.489 157.406,196.214 157.950,192.545 161.620 C 188.814 165.350,188.162 165.659,186.600 164.430 C 184.977 163.154,185.409 162.121,189.090 158.474 C 190.878 156.702,192.601 155.203,192.919 155.144 C 193.935 154.954,194.795 155.252,195.382 155.999 M211.199 155.964 C 212.421 157.308,212.139 157.890,208.469 161.606 C 204.693 165.430,203.907 165.783,202.444 164.319 C 201.031 162.907,201.364 162.136,204.955 158.496 C 208.745 154.655,209.669 154.280,211.199 155.964 M249.339 161.879 C 253.151 163.725,253.301 169.107,249.605 171.427 C 247.940 172.472,244.820 172.097,243.367 170.679 C 238.819 166.238,243.647 159.124,249.339 161.879 " stroke="none" fill="#e8e1e0" fill-rule="evenodd"></path><path id="path3" d="M193.280 30.840 C 193.638 30.909,194.223 30.909,194.581 30.840 C 194.939 30.771,194.646 30.715,193.931 30.715 C 193.215 30.715,192.923 30.771,193.280 30.840 M205.419 30.840 C 205.777 30.909,206.362 30.909,206.720 30.840 C 207.077 30.771,206.785 30.715,206.069 30.715 C 205.354 30.715,205.061 30.771,205.419 30.840 M189.957 31.124 C 190.235 31.197,190.690 31.197,190.968 31.124 C 191.246 31.051,191.019 30.992,190.462 30.992 C 189.906 30.992,189.678 31.051,189.957 31.124 M209.032 31.124 C 209.310 31.197,209.765 31.197,210.043 31.124 C 210.322 31.051,210.094 30.992,209.538 30.992 C 208.981 30.992,208.754 31.051,209.032 31.124 M248.733 41.747 C 248.804 41.930,248.370 42.358,247.769 42.698 C 245.714 43.859,242.998 46.879,241.981 49.133 C 239.248 55.193,239.142 60.440,241.483 73.844 C 242.702 80.828,242.775 81.373,242.775 83.579 C 242.775 86.194,242.199 88.266,241.123 89.525 C 240.078 90.746,240.109 90.774,237.141 85.838 C 231.566 76.564,227.304 73.391,219.268 72.532 C 200.868 70.565,192.235 85.831,197.443 111.127 C 198.675 117.112,199.238 118.182,201.164 118.199 C 203.302 118.218,204.039 116.520,203.169 113.582 C 202.524 111.404,201.964 108.334,201.431 104.046 C 199.263 86.633,204.466 77.398,216.474 77.345 C 224.250 77.311,227.828 79.821,233.309 89.154 C 236.461 94.520,238.604 96.207,241.220 95.379 C 245.475 94.033,247.792 89.804,247.793 83.382 C 247.794 79.958,247.699 79.232,246.352 72.399 C 243.536 58.113,244.630 50.556,250.014 47.101 C 251.691 46.025,253.305 45.999,255.347 47.016 C 255.983 47.332,257.673 48.187,259.104 48.915 C 261.139 49.951,265.486 51.506,264.985 51.018 C 263.499 49.575,248.441 40.985,248.733 41.747 M137.066 49.455 C 136.081 50.086,135.763 50.510,136.633 50.031 C 137.296 49.667,138.335 48.864,138.150 48.858 C 138.071 48.856,137.583 49.124,137.066 49.455 M274.855 58.815 C 275.395 59.371,275.901 59.827,275.980 59.827 C 276.060 59.827,275.684 59.371,275.145 58.815 C 274.605 58.259,274.099 57.803,274.020 57.803 C 273.940 57.803,274.316 58.259,274.855 58.815 M124.693 59.032 L 123.844 59.971 124.783 59.122 C 125.659 58.331,125.855 58.092,125.632 58.092 C 125.582 58.092,125.160 58.515,124.693 59.032 M277.890 61.561 C 278.511 62.197,279.084 62.717,279.164 62.717 C 279.243 62.717,278.800 62.197,278.179 61.561 C 277.558 60.925,276.985 60.405,276.906 60.405 C 276.826 60.405,277.269 60.925,277.890 61.561 M121.232 62.211 L 119.798 63.728 121.315 62.294 C 122.150 61.505,122.832 60.822,122.832 60.777 C 122.832 60.561,122.565 60.801,121.232 62.211 M117.472 65.968 L 116.329 67.197 117.558 66.054 C 118.700 64.992,118.919 64.740,118.700 64.740 C 118.653 64.740,118.100 65.293,117.472 65.968 M282.514 66.185 C 283.297 66.980,284.003 67.630,284.082 67.630 C 284.162 67.630,283.586 66.980,282.803 66.185 C 282.021 65.390,281.315 64.740,281.236 64.740 C 281.156 64.740,281.732 65.390,282.514 66.185 M114.435 69.292 L 113.439 70.376 114.523 69.380 C 115.119 68.832,115.607 68.344,115.607 68.296 C 115.607 68.075,115.362 68.283,114.435 69.292 M291.040 76.301 C 291.380 76.777,291.723 77.168,291.802 77.168 C 291.882 77.168,291.669 76.777,291.329 76.301 C 290.990 75.824,290.647 75.434,290.568 75.434 C 290.488 75.434,290.701 75.824,291.040 76.301 M149.639 116.106 C 148.884 116.167,148.266 116.325,148.266 116.457 C 148.266 116.588,147.551 116.786,146.676 116.895 C 145.802 117.004,145.087 117.198,145.087 117.325 C 145.087 117.452,144.566 117.639,143.931 117.741 C 143.295 117.843,142.775 118.054,142.775 118.212 C 142.775 118.369,142.581 118.497,142.345 118.497 C 141.488 118.497,136.887 121.152,135.765 122.295 C 135.281 122.787,135.284 122.825,135.818 123.111 C 136.632 123.546,136.928 123.490,137.955 122.707 C 139.355 121.639,143.774 119.420,144.933 119.202 C 145.498 119.096,146.025 118.905,146.104 118.776 C 146.184 118.648,147.093 118.452,148.124 118.342 C 149.156 118.231,150.000 118.028,150.000 117.889 C 150.000 117.751,154.454 117.603,159.899 117.562 L 169.798 117.486 169.798 116.763 L 169.798 116.040 160.405 116.018 C 155.238 116.006,150.394 116.046,149.639 116.106 M232.370 116.166 C 232.035 116.391,232.009 116.574,232.257 116.972 C 232.552 117.446,233.354 117.491,242.589 117.562 C 248.096 117.603,252.601 117.748,252.601 117.882 C 252.601 118.017,253.325 118.202,254.211 118.293 C 255.096 118.385,255.974 118.583,256.162 118.734 C 256.349 118.885,256.934 119.101,257.462 119.214 C 257.989 119.326,258.769 119.601,259.196 119.823 C 259.622 120.046,260.123 120.228,260.308 120.229 C 260.494 120.230,260.689 120.329,260.742 120.448 C 260.795 120.567,261.358 120.918,261.994 121.229 C 262.630 121.539,263.723 122.166,264.423 122.622 C 265.623 123.403,267.052 123.541,267.052 122.875 C 267.052 122.599,265.644 121.303,265.022 121.007 C 264.787 120.895,264.205 120.550,263.728 120.242 C 262.707 119.581,260.440 118.497,260.079 118.497 C 259.940 118.497,259.827 118.378,259.827 118.233 C 259.827 118.089,259.307 117.882,258.672 117.775 C 258.037 117.668,257.452 117.473,257.371 117.343 C 257.291 117.213,256.542 117.013,255.708 116.900 C 254.873 116.786,254.098 116.546,253.985 116.367 C 253.710 115.933,233.002 115.740,232.370 116.166 M188.205 126.312 C 187.376 127.084,187.407 127.606,188.333 128.533 C 189.215 129.414,188.962 130.269,187.867 130.106 C 187.430 130.042,187.260 130.136,187.346 130.395 C 187.534 130.967,188.875 131.026,189.415 130.486 C 190.093 129.808,189.992 128.815,189.165 128.038 C 188.361 127.282,188.665 126.430,189.647 126.687 C 190.299 126.857,190.361 126.145,189.716 125.898 C 189.029 125.634,188.892 125.672,188.205 126.312 M191.156 126.059 C 190.485 127.143,190.672 130.605,191.410 130.790 C 192.909 131.166,193.820 129.878,194.010 127.112 C 194.131 125.342,193.513 125.850,193.064 127.890 C 192.695 129.563,192.519 129.913,192.046 129.913 C 191.415 129.913,191.390 129.691,191.743 127.240 C 191.953 125.781,191.674 125.220,191.156 126.059 M195.263 125.960 C 195.149 126.145,194.221 130.239,194.220 130.564 C 194.218 131.093,195.091 130.407,195.231 129.769 C 195.373 129.123,195.585 128.902,196.063 128.902 C 197.546 128.902,198.032 126.527,196.657 126.004 C 195.753 125.660,195.454 125.651,195.263 125.960 M198.683 125.937 C 198.420 126.125,197.688 129.342,197.688 130.308 C 197.688 130.499,198.179 130.636,198.861 130.636 C 199.569 130.636,199.963 130.521,199.855 130.347 C 199.757 130.188,199.424 130.058,199.116 130.058 C 198.253 130.058,198.387 128.955,199.277 128.731 C 200.073 128.532,200.265 128.035,199.546 128.035 C 198.791 128.035,199.157 126.751,199.944 126.640 C 200.311 126.588,200.561 126.392,200.500 126.206 C 200.369 125.806,199.122 125.621,198.683 125.937 M201.223 126.923 C 200.576 129.597,200.499 130.636,200.950 130.636 C 201.189 130.636,201.448 130.258,201.546 129.769 C 201.642 129.292,201.837 128.902,201.980 128.902 C 202.123 128.902,202.318 129.292,202.413 129.769 C 202.516 130.283,202.768 130.636,203.033 130.636 C 203.368 130.636,203.433 130.451,203.293 129.895 C 203.179 129.439,203.306 128.714,203.626 128.004 C 204.233 126.659,203.950 126.151,202.422 125.846 C 201.563 125.674,201.516 125.716,201.223 126.923 M206.561 126.466 C 205.350 127.677,205.169 130.339,206.268 130.761 C 206.992 131.039,209.572 130.593,209.738 130.162 C 209.941 129.632,210.960 129.661,211.167 130.202 C 211.715 131.631,212.201 130.574,211.998 128.396 C 211.681 125.003,211.189 125.016,209.652 128.459 C 208.688 130.615,208.371 130.834,208.592 129.191 C 208.727 128.182,208.674 128.035,208.179 128.035 C 207.379 128.035,207.206 128.300,207.596 128.926 C 208.007 129.584,207.516 130.231,206.811 129.961 C 205.741 129.550,206.601 126.756,207.815 126.703 C 208.980 126.651,209.046 126.609,208.671 126.156 C 208.141 125.518,207.401 125.626,206.561 126.466 M213.449 126.084 C 212.460 129.160,212.632 132.050,213.647 129.408 L 214.119 128.179 214.141 129.408 C 214.167 130.916,214.753 131.049,215.420 129.697 C 215.889 128.744,216.002 128.811,215.907 129.986 C 215.771 131.671,216.723 130.567,217.067 128.640 C 217.649 125.382,216.850 124.790,215.584 127.542 L 214.893 129.046 214.737 127.746 C 214.569 126.347,214.294 125.723,213.847 125.723 C 213.692 125.723,213.513 125.885,213.449 126.084 M218.553 126.211 C 218.404 126.499,218.193 127.384,218.084 128.179 C 217.975 128.974,217.820 129.852,217.739 130.130 C 217.615 130.553,217.784 130.636,218.767 130.636 C 219.413 130.636,219.942 130.506,219.942 130.347 C 219.942 130.188,219.682 130.058,219.364 130.058 C 218.970 130.058,218.786 129.865,218.786 129.453 C 218.786 129.091,219.018 128.787,219.364 128.696 C 220.049 128.517,220.139 128.035,219.489 128.035 C 218.733 128.035,219.100 126.751,219.887 126.640 C 220.764 126.515,220.540 125.892,219.578 125.777 C 219.080 125.718,218.733 125.865,218.553 126.211 M179.827 126.647 C 178.955 127.519,179.728 129.033,180.952 128.852 C 182.436 128.632,182.459 126.301,180.977 126.301 C 180.535 126.301,180.017 126.457,179.827 126.647 M196.628 127.622 C 196.399 128.219,195.665 128.129,195.665 127.505 C 195.665 127.213,195.750 126.889,195.855 126.785 C 196.161 126.478,196.801 127.171,196.628 127.622 M203.179 127.030 C 203.179 127.524,202.723 128.035,202.281 128.035 C 201.654 128.035,201.621 127.919,202.028 127.159 C 202.262 126.722,203.179 126.619,203.179 127.030 M243.358 126.784 C 242.646 126.858,241.928 127.031,241.761 127.169 C 241.595 127.307,240.780 127.510,239.949 127.620 C 239.119 127.730,238.439 127.922,238.439 128.047 C 238.439 128.171,237.919 128.361,237.283 128.468 C 236.647 128.576,236.127 128.772,236.127 128.904 C 236.127 129.037,235.737 129.231,235.260 129.335 C 234.783 129.440,234.393 129.630,234.393 129.758 C 234.393 129.886,234.165 130.067,233.887 130.160 C 233.396 130.325,232.373 130.922,232.081 131.214 C 231.791 131.504,230.077 132.659,229.937 132.659 C 229.744 132.659,225.657 136.776,225.289 137.341 C 225.130 137.585,224.476 138.550,223.836 139.485 C 222.542 141.373,221.649 143.167,220.780 145.619 C 220.461 146.519,220.079 147.479,219.929 147.753 C 219.780 148.027,219.572 149.360,219.468 150.715 C 219.364 152.070,219.168 153.179,219.033 153.179 C 218.897 153.179,218.786 154.090,218.786 155.202 C 218.786 156.315,218.897 157.225,219.032 157.225 C 219.168 157.225,219.358 158.260,219.456 159.526 C 219.553 160.791,219.752 162.059,219.897 162.343 C 220.042 162.628,220.322 163.382,220.520 164.017 C 220.932 165.343,222.828 169.437,223.130 169.653 C 223.242 169.733,223.424 170.090,223.535 170.448 C 223.647 170.806,223.860 171.098,224.008 171.098 C 224.156 171.098,224.277 171.264,224.277 171.468 C 224.277 171.671,224.505 172.041,224.783 172.290 C 225.061 172.539,225.484 173.032,225.723 173.386 C 226.304 174.250,228.865 176.878,229.127 176.880 C 229.242 176.881,229.751 177.271,230.259 177.747 C 230.767 178.223,231.313 178.613,231.473 178.613 C 231.633 178.613,231.867 178.775,231.994 178.974 C 232.294 179.443,237.595 182.081,238.237 182.081 C 238.507 182.081,238.728 182.196,238.728 182.337 C 238.728 182.477,239.476 182.685,240.390 182.798 C 241.304 182.911,242.227 183.148,242.441 183.323 C 242.965 183.754,252.561 183.764,252.837 183.335 C 252.946 183.165,253.783 182.934,254.697 182.822 C 255.611 182.709,256.358 182.508,256.358 182.375 C 256.358 182.241,256.879 182.044,257.514 181.936 C 258.150 181.829,258.671 181.622,258.671 181.477 C 258.671 181.332,258.855 181.214,259.081 181.214 C 259.550 181.214,261.199 180.377,261.785 179.841 C 262.002 179.642,262.355 179.480,262.569 179.480 C 262.783 179.480,263.001 179.382,263.054 179.263 C 263.107 179.144,263.730 178.656,264.438 178.179 C 267.257 176.281,271.604 171.173,273.167 167.919 C 274.301 165.559,274.855 164.160,274.855 163.657 C 274.855 163.363,274.973 162.998,275.117 162.847 C 275.788 162.143,276.681 151.734,276.071 151.734 C 275.925 151.734,275.718 150.797,275.612 149.651 C 275.505 148.505,275.308 147.497,275.172 147.411 C 275.037 147.325,274.834 146.702,274.721 146.026 C 274.608 145.350,274.397 144.798,274.252 144.798 C 274.107 144.798,273.984 144.635,273.979 144.436 C 273.973 144.238,273.718 143.555,273.410 142.919 C 273.103 142.283,272.848 141.600,272.842 141.402 C 272.837 141.203,272.702 141.040,272.543 141.040 C 272.384 141.040,272.254 140.856,272.254 140.631 C 272.254 140.406,272.157 140.178,272.038 140.125 C 271.918 140.072,271.431 139.450,270.954 138.743 C 270.102 137.479,265.901 133.081,265.005 132.514 C 264.754 132.355,263.817 131.738,262.924 131.142 C 262.030 130.546,261.163 130.058,260.997 130.058 C 260.830 130.058,260.694 129.938,260.694 129.792 C 260.694 129.645,260.303 129.440,259.827 129.335 C 259.350 129.231,258.960 129.031,258.960 128.892 C 258.960 128.753,258.503 128.553,257.945 128.449 C 257.387 128.344,256.863 128.150,256.782 128.019 C 256.701 127.887,256.019 127.690,255.268 127.581 C 254.516 127.473,253.747 127.261,253.558 127.110 C 253.184 126.813,245.460 126.566,243.358 126.784 M211.272 128.324 C 211.272 128.924,210.820 129.340,210.583 128.957 C 210.353 128.585,210.724 127.441,211.016 127.621 C 211.156 127.709,211.272 128.025,211.272 128.324 M177.357 129.141 C 176.681 129.889,176.763 130.547,177.601 131.096 C 178.988 132.004,180.482 130.235,179.315 129.067 C 178.711 128.463,177.944 128.493,177.357 129.141 M182.246 129.067 C 181.618 129.695,181.678 130.523,182.389 131.021 C 183.490 131.792,184.936 130.793,184.485 129.573 C 184.104 128.541,183.018 128.295,182.246 129.067 M312.784 129.480 C 312.784 130.036,312.843 130.264,312.916 129.986 C 312.989 129.707,312.989 129.252,312.916 128.974 C 312.843 128.696,312.784 128.923,312.784 129.480 M87.061 129.769 C 87.061 130.325,87.121 130.553,87.193 130.275 C 87.266 129.996,87.266 129.541,87.193 129.263 C 87.121 128.985,87.061 129.212,87.061 129.769 M180.119 131.248 C 179.367 131.526,179.227 132.956,179.897 133.513 C 180.915 134.358,182.317 133.351,181.982 132.016 C 181.775 131.189,181.067 130.897,180.119 131.248 M187.105 133.365 C 186.520 134.890,185.799 134.820,203.111 134.901 L 219.075 134.976 219.075 133.962 L 219.075 132.948 203.170 132.948 C 189.585 132.948,187.242 133.009,187.105 133.365 M86.499 135.694 C 86.501 136.488,86.557 136.779,86.624 136.340 C 86.690 135.901,86.688 135.250,86.620 134.895 C 86.551 134.539,86.497 134.899,86.499 135.694 M313.362 135.260 C 313.362 135.816,313.421 136.044,313.494 135.766 C 313.567 135.488,313.567 135.033,313.494 134.754 C 313.421 134.476,313.362 134.704,313.362 135.260 M250.703 136.095 C 250.790 136.237,251.213 136.440,251.641 136.548 C 252.526 136.770,255.202 139.393,255.202 140.038 C 255.202 140.271,255.332 140.462,255.491 140.462 C 255.650 140.462,255.780 140.845,255.780 141.312 C 255.780 141.780,255.910 142.243,256.069 142.341 C 256.459 142.582,256.435 144.375,256.025 145.644 C 255.340 147.766,254.864 148.563,253.819 149.341 C 253.229 149.781,252.681 150.207,252.601 150.287 C 252.194 150.699,250.565 151.734,250.325 151.734 C 250.173 151.734,250.005 151.844,249.952 151.978 C 249.899 152.112,248.750 153.022,247.399 154.000 C 246.048 154.979,244.736 155.975,244.484 156.213 C 244.233 156.452,243.875 156.647,243.690 156.647 C 243.504 156.647,243.353 156.769,243.353 156.917 C 243.353 157.065,243.080 157.273,242.746 157.379 C 242.412 157.485,241.915 157.786,241.642 158.049 C 240.801 158.855,238.980 160.246,238.406 160.521 C 238.106 160.665,237.861 160.892,237.861 161.027 C 237.861 161.161,237.695 161.272,237.492 161.272 C 237.289 161.272,236.900 161.532,236.628 161.850 C 236.356 162.168,235.936 162.428,235.696 162.428 C 235.456 162.428,235.260 162.558,235.260 162.717 C 235.260 163.075,230.157 163.111,229.936 162.754 C 229.851 162.616,229.420 162.429,228.980 162.339 C 228.070 162.154,225.723 160.023,225.723 159.382 C 225.723 159.150,225.619 158.960,225.492 158.960 C 224.734 158.960,224.141 152.898,224.855 152.457 C 225.014 152.358,225.145 152.085,225.145 151.849 C 225.145 151.386,225.425 150.990,226.672 149.685 C 227.114 149.223,227.667 148.844,227.900 148.844 C 228.133 148.844,228.324 148.724,228.324 148.578 C 228.324 148.432,228.782 148.030,229.342 147.684 C 229.901 147.338,230.649 146.811,231.003 146.514 C 232.385 145.353,234.412 143.931,234.685 143.931 C 234.842 143.931,234.971 143.811,234.971 143.665 C 234.971 143.519,235.459 143.102,236.055 142.738 C 236.651 142.374,237.182 141.974,237.235 141.848 C 237.288 141.722,237.509 141.618,237.726 141.618 C 237.944 141.618,238.226 141.456,238.353 141.257 C 238.619 140.841,240.921 139.017,241.180 139.017 C 241.276 139.017,241.511 138.882,241.703 138.718 C 244.527 136.293,245.447 135.877,248.032 135.857 C 249.414 135.847,250.615 135.954,250.703 136.095 M313.709 144.509 C 313.709 148.562,313.750 150.220,313.800 148.194 C 313.849 146.167,313.849 142.850,313.800 140.824 C 313.750 138.797,313.709 140.455,313.709 144.509 M86.252 144.509 C 86.252 148.403,86.293 149.996,86.343 148.049 C 86.393 146.102,86.393 142.915,86.343 140.968 C 86.293 139.021,86.252 140.614,86.252 144.509 M150.541 142.963 C 150.276 143.281,150.112 144.459,150.045 146.503 C 149.920 150.383,150.010 150.289,146.416 150.289 C 142.061 150.289,142.197 150.113,142.197 155.780 C 142.197 161.448,142.061 161.272,146.416 161.272 C 150.010 161.272,149.920 161.178,150.045 165.058 C 150.182 169.272,149.912 169.075,155.567 169.075 C 161.201 169.075,160.959 169.250,160.978 165.173 C 160.996 161.314,160.865 161.445,164.884 161.272 C 169.008 161.094,168.776 161.422,168.782 155.753 C 168.787 150.085,168.941 150.289,164.655 150.289 C 160.925 150.289,160.983 150.351,160.983 146.307 C 160.983 142.374,161.144 142.486,155.432 142.486 C 151.608 142.486,150.879 142.557,150.541 142.963 M265.582 147.631 C 265.675 147.772,266.109 147.975,266.546 148.082 C 266.983 148.189,267.341 148.404,267.341 148.560 C 267.341 148.716,267.471 148.844,267.630 148.844 C 267.789 148.844,268.179 149.104,268.497 149.422 C 268.815 149.740,269.075 150.130,269.075 150.289 C 269.075 150.448,269.180 150.578,269.309 150.578 C 270.358 150.578,271.292 157.980,270.285 158.315 C 270.096 158.378,269.942 158.629,269.942 158.873 C 269.942 159.423,267.778 161.561,267.220 161.561 C 266.995 161.561,266.768 161.676,266.715 161.817 C 266.584 162.163,263.934 164.162,263.605 164.162 C 263.461 164.162,263.300 164.259,263.247 164.379 C 263.086 164.741,260.749 166.474,260.422 166.474 C 260.253 166.474,260.116 166.582,260.116 166.715 C 260.116 166.848,259.368 167.465,258.454 168.086 C 257.540 168.708,256.620 169.380,256.410 169.579 C 256.200 169.779,255.901 169.942,255.746 169.942 C 255.591 169.942,255.162 170.267,254.794 170.665 C 254.426 171.062,254.036 171.387,253.929 171.387 C 253.821 171.387,253.576 171.519,253.384 171.681 C 252.026 172.822,250.251 173.988,249.873 173.988 C 249.625 173.988,249.422 174.118,249.422 174.277 C 249.422 174.446,248.459 174.566,247.110 174.566 C 245.761 174.566,244.798 174.446,244.798 174.277 C 244.798 174.118,244.585 173.988,244.326 173.988 C 243.013 173.988,240.793 172.008,239.808 169.959 C 239.107 168.502,238.920 163.857,239.553 163.646 C 239.735 163.585,239.884 163.305,239.884 163.022 C 239.884 162.322,242.781 159.538,243.510 159.538 C 243.708 159.538,243.944 159.342,244.035 159.104 C 244.127 158.866,244.390 158.671,244.620 158.671 C 244.850 158.671,245.082 158.572,245.135 158.452 C 245.299 158.078,247.609 156.358,247.946 156.358 C 248.122 156.358,248.266 156.256,248.266 156.132 C 248.266 156.007,248.624 155.693,249.061 155.435 C 249.498 155.176,250.142 154.725,250.492 154.433 C 251.772 153.365,252.435 152.890,252.647 152.890 C 252.766 152.890,253.176 152.598,253.558 152.240 C 254.446 151.408,255.427 150.664,256.431 150.063 C 256.868 149.801,257.225 149.484,257.225 149.360 C 257.225 149.235,257.400 149.133,257.614 149.133 C 257.828 149.133,258.238 148.873,258.526 148.555 C 258.814 148.237,259.224 147.977,259.438 147.977 C 259.652 147.977,259.827 147.855,259.827 147.707 C 259.827 147.121,265.199 147.049,265.582 147.631 M158.280 152.982 C 160.746 155.242,158.934 159.822,155.573 159.826 C 152.589 159.829,150.540 156.635,151.873 154.057 C 153.067 151.747,156.335 151.199,158.280 152.982 M86.495 153.468 C 86.495 154.184,86.551 154.476,86.620 154.118 C 86.689 153.761,86.689 153.176,86.620 152.818 C 86.551 152.460,86.495 152.753,86.495 153.468 M313.368 153.902 C 313.371 154.538,313.430 154.764,313.499 154.404 C 313.568 154.045,313.566 153.524,313.493 153.248 C 313.421 152.972,313.364 153.266,313.368 153.902 M192.889 155.139 C 191.736 155.314,185.838 161.627,185.838 162.686 C 185.838 163.919,186.945 165.029,188.176 165.029 C 189.727 165.029,196.110 158.514,195.847 157.199 C 195.527 155.596,194.516 154.892,192.889 155.139 M204.990 158.489 C 201.349 162.165,201.061 162.832,202.496 164.267 C 203.942 165.713,204.612 165.422,208.343 161.729 C 211.966 158.143,212.411 157.199,211.140 155.795 C 209.811 154.326,208.582 154.864,204.990 158.489 M87.061 159.249 C 87.061 159.805,87.121 160.033,87.193 159.754 C 87.266 159.476,87.266 159.021,87.193 158.743 C 87.121 158.465,87.061 158.692,87.061 159.249 M312.784 159.538 C 312.784 160.094,312.843 160.322,312.916 160.043 C 312.989 159.765,312.989 159.310,312.916 159.032 C 312.843 158.754,312.784 158.981,312.784 159.538 M291.908 211.561 C 291.568 212.038,291.355 212.428,291.435 212.428 C 291.514 212.428,291.857 212.038,292.197 211.561 C 292.536 211.084,292.749 210.694,292.669 210.694 C 292.590 210.694,292.247 211.084,291.908 211.561 M285.675 219.436 L 284.827 220.376 285.766 219.527 C 286.283 219.060,286.705 218.637,286.705 218.588 C 286.705 218.364,286.467 218.561,285.675 219.436 M114.451 219.798 C 114.990 220.354,115.496 220.809,115.576 220.809 C 115.655 220.809,115.279 220.354,114.740 219.798 C 114.201 219.241,113.694 218.786,113.615 218.786 C 113.535 218.786,113.912 219.241,114.451 219.798 M117.197 222.832 C 117.979 223.627,118.685 224.277,118.764 224.277 C 118.844 224.277,118.268 223.627,117.486 222.832 C 116.703 222.038,115.997 221.387,115.918 221.387 C 115.838 221.387,116.414 222.038,117.197 222.832 M282.790 222.616 L 281.647 223.844 282.876 222.701 C 284.018 221.639,284.237 221.387,284.018 221.387 C 283.971 221.387,283.418 221.940,282.790 222.616 M121.821 227.457 C 122.442 228.092,123.015 228.613,123.094 228.613 C 123.174 228.613,122.731 228.092,122.110 227.457 C 121.489 226.821,120.916 226.301,120.836 226.301 C 120.757 226.301,121.200 226.821,121.821 227.457 M277.877 227.529 L 276.734 228.757 277.962 227.615 C 279.105 226.552,279.324 226.301,279.105 226.301 C 279.058 226.301,278.505 226.853,277.877 227.529 M124.855 230.202 C 125.395 230.759,125.901 231.214,125.980 231.214 C 126.060 231.214,125.684 230.759,125.145 230.202 C 124.605 229.646,124.099 229.191,124.020 229.191 C 123.940 229.191,124.316 229.646,124.855 230.202 M274.693 230.419 L 273.844 231.358 274.783 230.510 C 275.300 230.043,275.723 229.620,275.723 229.570 C 275.723 229.347,275.484 229.544,274.693 230.419 M225.289 255.491 C 224.925 255.648,224.871 255.740,225.145 255.740 C 225.383 255.740,225.838 255.628,226.156 255.491 C 226.520 255.335,226.574 255.243,226.301 255.243 C 226.062 255.243,225.607 255.355,225.289 255.491 M189.957 258.003 C 190.235 258.075,190.690 258.075,190.968 258.003 C 191.246 257.930,191.019 257.871,190.462 257.871 C 189.906 257.871,189.678 257.930,189.957 258.003 M209.032 258.003 C 209.310 258.075,209.765 258.075,210.043 258.003 C 210.322 257.930,210.094 257.871,209.538 257.871 C 208.981 257.871,208.754 257.930,209.032 258.003 M192.851 258.300 C 193.290 258.366,193.940 258.365,194.296 258.296 C 194.651 258.227,194.292 258.173,193.497 258.175 C 192.702 258.177,192.411 258.233,192.851 258.300 M205.857 258.300 C 206.296 258.366,206.946 258.365,207.302 258.296 C 207.657 258.227,207.298 258.173,206.503 258.175 C 205.708 258.177,205.417 258.233,205.857 258.300 " stroke="none" fill="#585655" fill-rule="evenodd"></path><path id="path4" d="M190.535 30.843 C 190.972 30.909,191.687 30.909,192.124 30.843 C 192.561 30.777,192.204 30.722,191.329 30.722 C 190.455 30.722,190.098 30.777,190.535 30.843 M207.876 30.843 C 208.313 30.909,209.028 30.909,209.465 30.843 C 209.902 30.777,209.545 30.722,208.671 30.722 C 207.796 30.722,207.439 30.777,207.876 30.843 M185.700 31.204 C 185.591 31.379,186.256 31.418,187.489 31.308 C 190.049 31.080,190.168 30.925,187.782 30.925 C 186.732 30.925,185.795 31.050,185.700 31.204 M210.429 31.029 C 210.733 31.293,214.459 31.461,214.300 31.204 C 214.205 31.050,213.268 30.925,212.218 30.925 C 211.168 30.925,210.362 30.972,210.429 31.029 M181.291 31.775 C 180.619 31.884,179.969 32.075,179.846 32.198 C 179.633 32.412,180.079 32.357,182.948 31.813 C 184.561 31.507,183.135 31.474,181.291 31.775 M216.908 31.770 C 219.079 32.211,220.679 32.377,220.231 32.115 C 219.993 31.976,218.887 31.788,217.775 31.698 C 216.354 31.584,216.096 31.606,216.908 31.770 M176.514 32.647 C 175.916 32.763,175.331 32.955,175.214 33.073 C 174.992 33.296,176.769 33.023,178.035 32.639 C 178.993 32.348,178.029 32.353,176.514 32.647 M221.965 32.624 C 223.170 33.014,225.048 33.277,224.566 32.990 C 224.328 32.847,223.483 32.654,222.688 32.561 C 221.781 32.454,221.512 32.478,221.965 32.624 M172.601 33.522 C 172.076 33.646,171.556 33.840,171.445 33.952 C 171.211 34.188,173.277 33.843,174.133 33.503 L 174.711 33.274 174.133 33.285 C 173.815 33.291,173.126 33.398,172.601 33.522 M225.867 33.484 C 226.723 33.853,228.852 34.173,228.324 33.854 C 228.085 33.709,227.305 33.511,226.590 33.413 C 225.755 33.299,225.496 33.324,225.867 33.484 M169.509 34.393 L 168.931 34.641 169.509 34.641 C 169.827 34.641,170.347 34.530,170.665 34.393 L 171.243 34.145 170.665 34.145 C 170.347 34.145,169.827 34.256,169.509 34.393 M229.335 34.393 C 229.653 34.530,230.173 34.641,230.491 34.641 L 231.069 34.641 230.491 34.393 C 230.173 34.256,229.653 34.145,229.335 34.145 L 228.757 34.145 229.335 34.393 M166.618 35.260 C 166.254 35.417,166.201 35.509,166.474 35.509 C 166.712 35.509,167.168 35.397,167.486 35.260 C 167.850 35.104,167.903 35.012,167.630 35.012 C 167.392 35.012,166.936 35.124,166.618 35.260 M232.514 35.260 C 232.832 35.397,233.288 35.509,233.526 35.509 C 233.799 35.509,233.746 35.417,233.382 35.260 C 233.064 35.124,232.608 35.012,232.370 35.012 C 232.097 35.012,232.150 35.104,232.514 35.260 M164.884 35.755 C 164.566 35.832,164.185 36.009,164.037 36.150 C 163.889 36.291,164.199 36.282,164.726 36.131 C 166.216 35.704,166.342 35.405,164.884 35.755 M234.138 35.679 C 234.235 35.776,234.746 35.980,235.274 36.131 C 235.801 36.282,236.111 36.295,235.963 36.159 C 235.656 35.879,233.866 35.408,234.138 35.679 M162.283 36.622 C 161.965 36.699,161.575 36.893,161.416 37.055 C 161.221 37.253,161.362 37.279,161.850 37.136 C 163.346 36.697,163.696 36.282,162.283 36.622 M236.994 36.666 C 237.698 37.085,238.915 37.390,238.584 37.064 C 238.425 36.908,237.905 36.696,237.428 36.594 C 236.862 36.473,236.711 36.498,236.994 36.666 M159.610 37.581 C 158.609 37.984,158.840 38.161,159.899 37.803 C 160.415 37.629,160.892 37.441,160.959 37.385 C 161.194 37.186,160.250 37.324,159.610 37.581 M239.017 37.344 C 239.097 37.422,239.614 37.639,240.167 37.826 C 240.720 38.013,241.045 38.042,240.889 37.890 C 240.734 37.738,240.217 37.521,239.740 37.408 C 239.263 37.294,238.938 37.266,239.017 37.344 M157.659 38.356 C 157.341 38.433,156.951 38.627,156.792 38.789 C 156.597 38.987,156.738 39.013,157.225 38.870 C 158.722 38.431,159.072 38.017,157.659 38.356 M241.813 38.443 C 242.211 38.810,243.445 39.112,243.249 38.794 C 243.152 38.637,242.735 38.444,242.323 38.365 C 241.912 38.286,241.682 38.321,241.813 38.443 M155.233 39.331 C 154.852 39.483,154.613 39.680,154.701 39.769 C 154.790 39.857,155.231 39.730,155.683 39.485 C 156.590 38.993,156.314 38.898,155.233 39.331 M244.220 39.429 C 245.025 39.914,245.658 40.040,245.217 39.628 C 245.066 39.487,244.617 39.286,244.220 39.182 L 243.497 38.993 244.220 39.429 M152.647 40.509 C 151.958 40.826,151.450 41.142,151.519 41.211 C 151.661 41.353,154.335 40.218,154.335 40.015 C 154.335 39.797,153.959 39.907,152.647 40.509 M246.921 40.640 C 247.692 41.041,248.386 41.306,248.463 41.229 C 248.599 41.093,246.062 39.871,245.700 39.898 C 245.601 39.905,246.151 40.239,246.921 40.640 M248.844 41.468 C 248.844 41.547,249.884 42.135,251.156 42.775 C 252.428 43.414,253.468 43.872,253.468 43.793 C 253.468 43.713,252.428 43.125,251.156 42.486 C 249.884 41.846,248.844 41.388,248.844 41.468 M146.893 43.362 C 146.535 43.505,146.243 43.692,146.243 43.777 C 146.243 44.057,146.703 43.936,147.271 43.506 C 147.911 43.023,147.821 42.988,146.893 43.362 M253.757 44.069 C 253.757 44.146,254.277 44.473,254.913 44.798 C 256.346 45.529,256.431 45.357,255.041 44.537 C 253.982 43.912,253.757 43.830,253.757 44.069 M143.136 45.409 C 141.841 46.238,141.958 46.376,143.353 45.665 C 144.440 45.110,144.787 44.791,144.292 44.803 C 144.173 44.805,143.652 45.078,143.136 45.409 M139.237 47.773 C 138.642 48.124,138.155 48.510,138.153 48.631 C 138.152 48.753,138.671 48.508,139.306 48.087 C 139.942 47.666,140.462 47.274,140.462 47.216 C 140.462 47.058,140.408 47.082,139.237 47.773 M262.139 48.996 C 262.139 49.056,263.407 49.944,264.957 50.968 C 266.507 51.992,268.783 53.626,270.014 54.600 C 271.246 55.574,272.252 56.270,272.250 56.148 C 272.240 55.663,262.139 48.518,262.139 48.996 M134.942 50.626 C 131.965 52.769,128.396 55.483,127.457 56.318 C 126.900 56.812,126.361 57.218,126.259 57.221 C 126.157 57.223,125.991 57.440,125.890 57.703 C 125.789 57.966,126.393 57.581,127.232 56.848 C 128.071 56.114,130.480 54.257,132.587 52.719 C 134.693 51.181,136.416 49.876,136.416 49.817 C 136.416 49.604,136.190 49.728,134.942 50.626 M272.552 56.562 C 272.557 56.688,272.883 57.026,273.275 57.311 C 273.667 57.597,273.984 57.727,273.979 57.600 C 273.974 57.474,273.649 57.136,273.257 56.851 C 272.864 56.565,272.547 56.435,272.552 56.562 M279.509 63.006 C 285.716 69.185,289.257 73.331,293.639 79.552 C 294.675 81.022,295.203 81.451,294.351 80.130 C 293.674 79.081,289.258 73.176,288.461 72.254 C 288.118 71.857,287.227 70.816,286.482 69.942 C 283.855 66.857,278.472 61.420,275.436 58.785 C 274.722 58.166,276.555 60.065,279.509 63.006 M120.532 62.615 C 117.972 65.102,115.475 67.670,114.984 68.323 C 114.492 68.975,115.311 68.223,116.802 66.652 C 118.293 65.082,120.878 62.516,122.546 60.952 C 124.214 59.388,125.490 58.105,125.382 58.100 C 125.274 58.096,123.091 60.127,120.532 62.615 M112.841 70.731 C 112.375 71.323,111.602 72.266,111.122 72.826 C 109.240 75.023,105.595 80.058,105.886 80.058 C 105.959 80.058,106.991 78.725,108.179 77.095 C 109.367 75.466,111.135 73.185,112.106 72.026 C 113.078 70.867,113.873 69.859,113.873 69.786 C 113.873 69.496,113.653 69.698,112.841 70.731 M103.951 82.731 C 102.097 85.676,101.627 86.516,101.940 86.323 C 102.114 86.215,102.653 85.444,103.138 84.610 C 103.622 83.775,104.297 82.670,104.639 82.153 C 104.980 81.637,105.180 81.214,105.083 81.214 C 104.986 81.214,104.476 81.897,103.951 82.731 M295.250 82.031 C 295.557 82.560,295.996 83.145,296.224 83.331 C 296.485 83.544,296.431 83.312,296.080 82.709 C 295.772 82.180,295.333 81.595,295.105 81.408 C 294.845 81.196,294.898 81.427,295.250 82.031 M298.162 86.633 C 299.219 88.475,299.711 89.196,299.711 88.903 C 299.711 88.597,297.695 85.260,297.510 85.260 C 297.436 85.260,297.729 85.878,298.162 86.633 M100.884 87.753 C 100.544 88.330,100.327 88.862,100.402 88.937 C 100.476 89.012,100.810 88.541,101.142 87.889 C 101.889 86.424,101.721 86.335,100.884 87.753 M99.277 90.751 C 98.875 91.546,98.610 92.197,98.690 92.197 C 98.769 92.197,99.164 91.546,99.566 90.751 C 99.969 89.957,100.234 89.306,100.154 89.306 C 100.075 89.306,99.680 89.957,99.277 90.751 M300.578 90.968 C 300.578 91.106,300.767 91.471,300.997 91.780 C 301.402 92.321,301.411 92.318,301.251 91.686 C 301.087 91.034,300.578 90.491,300.578 90.968 M97.987 93.045 C 97.621 93.729,97.604 94.017,97.942 93.808 C 98.197 93.650,98.595 92.486,98.394 92.486 C 98.335 92.486,98.152 92.737,97.987 93.045 M97.118 94.921 C 96.688 96.051,96.773 96.228,97.289 95.278 C 97.533 94.827,97.662 94.386,97.574 94.299 C 97.487 94.211,97.281 94.491,97.118 94.921 M302.312 94.436 C 302.312 94.574,302.501 94.940,302.731 95.248 C 303.136 95.789,303.145 95.786,302.985 95.154 C 302.821 94.502,302.312 93.959,302.312 94.436 M303.192 96.171 C 303.210 96.462,304.595 99.037,304.611 98.808 C 304.631 98.529,303.458 95.954,303.310 95.954 C 303.238 95.954,303.185 96.051,303.192 96.171 M96.143 96.880 C 95.909 97.778,96.088 97.824,96.479 96.967 C 96.660 96.568,96.696 96.243,96.559 96.243 C 96.422 96.243,96.235 96.530,96.143 96.880 M95.384 98.678 C 94.954 99.808,95.039 99.986,95.554 99.035 C 95.799 98.584,95.927 98.143,95.840 98.056 C 95.752 97.968,95.547 98.248,95.384 98.678 M304.789 99.711 C 304.893 100.108,305.094 100.557,305.235 100.708 C 305.647 101.150,305.521 100.516,305.036 99.711 L 304.600 98.988 304.789 99.711 M94.517 100.701 C 94.087 101.831,94.172 102.009,94.687 101.058 C 94.932 100.607,95.060 100.166,94.973 100.079 C 94.885 99.991,94.680 100.271,94.517 100.701 M305.657 101.734 C 305.763 102.132,305.971 102.652,306.118 102.890 C 306.304 103.191,306.327 103.103,306.193 102.601 C 306.086 102.204,305.879 101.684,305.732 101.445 C 305.545 101.144,305.523 101.232,305.657 101.734 M93.072 104.169 C 92.619 105.360,92.764 105.769,93.246 104.663 C 93.480 104.128,93.603 103.622,93.520 103.539 C 93.437 103.456,93.235 103.740,93.072 104.169 M306.505 104.046 C 306.850 105.220,307.292 105.777,307.079 104.769 C 306.978 104.292,306.760 103.772,306.594 103.613 C 306.387 103.414,306.359 103.548,306.505 104.046 M92.225 106.691 C 91.842 107.789,91.827 108.007,92.159 107.645 C 92.436 107.343,92.859 105.780,92.664 105.780 C 92.597 105.780,92.399 106.190,92.225 106.691 M307.372 106.358 C 307.715 107.525,308.128 108.076,307.915 107.081 C 307.812 106.604,307.601 106.084,307.445 105.925 C 307.258 105.735,307.233 105.884,307.372 106.358 M91.537 108.579 C 91.460 108.709,91.317 109.270,91.220 109.827 L 91.042 110.838 91.476 109.707 C 91.862 108.700,91.902 107.961,91.537 108.579 M308.239 108.960 C 308.582 110.126,308.995 110.677,308.782 109.682 C 308.679 109.205,308.468 108.685,308.312 108.526 C 308.125 108.336,308.100 108.485,308.239 108.960 M308.965 111.199 C 308.977 111.665,310.359 115.728,310.381 115.363 C 310.409 114.898,309.243 110.983,309.076 110.983 C 309.012 110.983,308.962 111.080,308.965 111.199 M90.670 111.469 C 90.593 111.599,90.450 112.160,90.353 112.717 L 90.175 113.728 90.609 112.597 C 90.995 111.591,91.035 110.851,90.670 111.469 M89.788 114.355 C 89.682 114.461,89.607 114.883,89.620 115.294 C 89.645 116.027,89.650 116.025,89.900 115.188 C 90.162 114.308,90.124 114.019,89.788 114.355 M310.734 117.486 C 310.734 117.803,310.846 118.324,310.983 118.642 L 311.231 119.220 311.231 118.642 C 311.231 118.324,311.119 117.803,310.983 117.486 L 310.734 116.908 310.734 117.486 M88.921 117.823 C 88.815 117.929,88.740 118.351,88.753 118.762 C 88.778 119.495,88.783 119.493,89.033 118.656 C 89.295 117.777,89.257 117.487,88.921 117.823 M311.469 120.809 C 311.566 121.525,311.757 122.370,311.893 122.688 C 312.050 123.053,312.074 122.788,311.959 121.965 C 311.858 121.250,311.667 120.405,311.535 120.087 C 311.385 119.730,311.360 120.006,311.469 120.809 M88.006 121.965 C 87.895 122.623,87.869 123.225,87.948 123.305 C 88.028 123.384,88.184 122.912,88.295 122.254 C 88.406 121.597,88.432 120.994,88.352 120.915 C 88.273 120.835,88.117 121.308,88.006 121.965 M87.475 124.761 C 87.242 125.582,86.911 129.064,87.082 128.902 C 87.270 128.723,87.871 124.480,87.728 124.337 C 87.671 124.280,87.557 124.471,87.475 124.761 M312.318 125.434 C 312.658 127.915,312.997 128.893,312.819 126.879 C 312.727 125.845,312.537 124.805,312.396 124.566 C 312.237 124.297,312.207 124.624,312.318 125.434 M86.599 130.832 C 86.511 131.280,86.375 133.013,86.299 134.682 L 86.159 137.717 86.552 133.960 C 86.926 130.373,86.946 129.077,86.599 130.832 M313.183 131.647 C 313.633 136.445,313.825 137.416,313.670 134.104 C 313.584 132.276,313.403 130.585,313.267 130.347 C 313.122 130.092,313.087 130.629,313.183 131.647 M245.329 138.985 C 239.520 142.669,244.476 151.432,250.756 148.580 C 254.693 146.792,254.746 140.618,250.841 138.670 C 249.221 137.861,246.891 137.995,245.329 138.985 M250.317 138.922 C 253.648 140.557,254.457 144.535,251.989 147.149 C 248.704 150.628,243.356 148.456,243.356 143.642 C 243.356 139.761,246.997 137.293,250.317 138.922 M230.418 150.096 C 225.861 151.749,225.674 158.387,230.131 160.249 C 234.793 162.197,239.387 157.578,237.318 153.023 C 236.125 150.396,233.113 149.118,230.418 150.096 M86.328 154.624 C 86.416 156.452,86.597 158.208,86.729 158.526 C 86.971 159.110,86.916 158.234,86.417 153.613 C 86.200 151.600,86.189 151.731,86.328 154.624 M313.670 153.179 C 313.670 154.053,313.725 154.411,313.791 153.974 C 313.857 153.537,313.857 152.822,313.791 152.384 C 313.725 151.947,313.670 152.305,313.670 153.179 M313.350 155.961 C 313.320 156.617,313.213 157.592,313.112 158.129 C 312.973 158.872,313.011 159.028,313.271 158.786 C 313.489 158.583,313.576 157.796,313.510 156.618 C 313.444 155.436,313.386 155.199,313.350 155.961 M87.187 161.994 C 87.278 163.107,87.464 164.212,87.601 164.451 C 87.877 164.934,87.650 162.611,87.262 160.983 C 87.099 160.296,87.075 160.622,87.187 161.994 M312.594 161.777 C 312.491 162.533,312.340 163.540,312.260 164.017 C 312.157 164.627,312.194 164.756,312.383 164.451 C 312.675 163.981,313.152 160.405,312.922 160.405 C 312.845 160.405,312.698 161.022,312.594 161.777 M87.919 166.185 C 87.919 166.582,88.023 167.233,88.150 167.630 L 88.382 168.353 88.382 167.630 C 88.382 167.233,88.278 166.582,88.150 166.185 L 87.919 165.462 87.919 166.185 M311.733 166.742 C 311.638 167.231,311.485 168.020,311.393 168.497 C 311.301 168.974,311.292 169.364,311.373 169.364 C 311.580 169.364,312.220 166.170,312.047 165.997 C 311.969 165.919,311.827 166.254,311.733 166.742 M88.728 170.310 C 88.728 170.725,88.864 171.148,89.029 171.250 C 89.226 171.372,89.262 171.154,89.133 170.617 C 88.867 169.509,88.728 169.405,88.728 170.310 M310.838 170.809 C 310.728 171.309,310.704 171.783,310.783 171.862 C 310.863 171.942,311.017 171.598,311.127 171.098 C 311.237 170.599,311.262 170.125,311.182 170.045 C 311.103 169.966,310.948 170.310,310.838 170.809 M89.595 173.779 C 89.595 174.193,89.731 174.616,89.896 174.718 C 90.093 174.840,90.129 174.622,90.000 174.085 C 89.734 172.978,89.595 172.873,89.595 173.779 M309.607 175.595 C 309.263 176.843,309.027 177.909,309.082 177.965 C 309.245 178.127,310.446 173.969,310.334 173.632 C 310.278 173.464,309.951 174.347,309.607 175.595 M90.351 176.301 C 90.446 176.857,90.640 177.436,90.782 177.587 C 91.147 177.974,91.076 177.510,90.587 176.301 L 90.178 175.289 90.351 176.301 M91.218 179.191 C 91.313 179.747,91.507 180.326,91.649 180.477 C 92.014 180.864,91.943 180.400,91.455 179.191 L 91.046 178.179 91.218 179.191 M308.410 179.523 C 308.027 180.622,308.012 180.840,308.344 180.477 C 308.621 180.175,309.044 178.613,308.849 178.613 C 308.782 178.613,308.584 179.022,308.410 179.523 M92.085 181.936 C 92.188 182.413,92.399 182.934,92.555 183.092 C 92.742 183.282,92.767 183.134,92.628 182.659 C 92.285 181.492,91.872 180.942,92.085 181.936 M307.543 182.124 C 307.160 183.223,307.145 183.441,307.477 183.078 C 307.754 182.776,308.177 181.214,307.982 181.214 C 307.915 181.214,307.717 181.623,307.543 182.124 M92.798 183.724 C 92.763 184.236,93.346 185.652,93.520 185.478 C 93.603 185.395,93.480 184.890,93.246 184.354 C 93.013 183.819,92.811 183.536,92.798 183.724 M306.697 184.375 C 306.509 184.914,306.418 185.416,306.494 185.492 C 306.686 185.685,307.267 184.084,307.141 183.707 C 307.084 183.536,306.884 183.837,306.697 184.375 M93.816 186.391 C 94.110 187.508,94.820 189.092,94.963 188.949 C 95.035 188.877,94.765 188.115,94.363 187.256 C 93.961 186.397,93.715 186.007,93.816 186.391 M305.812 186.737 C 305.634 187.248,305.539 187.717,305.601 187.778 C 305.663 187.840,305.859 187.473,306.037 186.962 C 306.215 186.451,306.310 185.983,306.249 185.921 C 306.187 185.859,305.991 186.227,305.812 186.737 M304.960 188.885 C 304.476 189.948,304.568 190.175,305.092 189.209 C 305.337 188.757,305.482 188.334,305.416 188.268 C 305.350 188.202,305.145 188.480,304.960 188.885 M95.252 189.884 C 95.356 190.282,95.556 190.730,95.697 190.882 C 96.110 191.323,95.983 190.690,95.498 189.884 L 95.063 189.162 95.252 189.884 M303.799 191.515 C 303.443 192.246,303.213 192.905,303.286 192.978 C 303.360 193.052,303.692 192.495,304.026 191.742 C 304.812 189.965,304.637 189.790,303.799 191.515 M96.119 191.908 C 96.223 192.305,96.423 192.754,96.564 192.905 C 96.977 193.346,96.850 192.713,96.365 191.908 L 95.930 191.185 96.119 191.908 M98.749 197.331 C 98.839 197.691,99.028 198.057,99.168 198.143 C 99.563 198.387,99.467 197.859,99.003 197.237 C 98.598 196.696,98.589 196.699,98.749 197.331 M300.877 197.380 C 300.511 198.064,300.494 198.352,300.832 198.143 C 301.087 197.985,301.485 196.821,301.284 196.821 C 301.225 196.821,301.042 197.072,300.877 197.380 M299.303 200.445 C 298.732 201.484,298.054 202.687,297.797 203.118 L 297.330 203.902 297.907 203.204 C 298.556 202.420,300.695 198.555,300.480 198.555 C 300.404 198.555,299.875 199.405,299.303 200.445 M100.289 200.128 C 100.289 200.342,101.493 202.312,101.624 202.312 C 101.691 202.312,101.480 201.792,101.156 201.156 C 100.638 200.141,100.289 199.727,100.289 200.128 M103.243 205.206 C 103.605 205.844,104.208 206.722,104.582 207.157 L 105.263 207.948 104.750 207.081 C 103.899 205.642,102.821 204.046,102.699 204.046 C 102.636 204.046,102.880 204.568,103.243 205.206 M295.732 206.286 C 294.888 207.505,294.743 207.804,294.997 207.801 C 295.126 207.800,295.528 207.280,295.890 206.645 C 296.645 205.324,296.549 205.106,295.732 206.286 M293.344 209.895 C 292.655 210.891,291.202 212.843,290.114 214.234 C 289.027 215.625,288.238 216.763,288.361 216.762 C 288.651 216.761,294.890 208.378,294.724 208.212 C 294.655 208.142,294.034 208.900,293.344 209.895 M105.931 209.249 C 106.288 209.904,110.090 214.996,111.326 216.474 C 111.925 217.189,112.743 218.165,113.143 218.642 C 113.544 219.118,113.872 219.413,113.872 219.296 C 113.873 219.179,113.176 218.262,112.325 217.258 C 111.474 216.255,109.770 214.075,108.540 212.414 C 106.332 209.433,105.449 208.362,105.931 209.249 M287.197 217.784 C 286.912 218.176,286.782 218.493,286.908 218.488 C 287.035 218.483,287.372 218.158,287.658 217.765 C 287.944 217.373,288.074 217.056,287.947 217.061 C 287.820 217.066,287.483 217.391,287.197 217.784 M281.647 223.823 C 278.945 226.576,275.759 229.708,274.566 230.783 C 273.374 231.857,272.953 232.317,273.631 231.804 C 276.225 229.839,282.858 223.328,286.244 219.421 C 287.658 217.790,286.155 219.229,281.647 223.823 M114.962 220.665 C 115.980 222.002,123.070 229.059,124.566 230.223 C 125.123 230.656,124.056 229.556,122.196 227.778 C 120.336 226.000,117.750 223.412,116.448 222.027 C 115.147 220.642,114.478 220.029,114.962 220.665 M126.445 231.912 C 126.922 232.294,127.363 232.557,127.425 232.496 C 127.581 232.342,126.224 231.235,125.867 231.225 C 125.708 231.220,125.968 231.530,126.445 231.912 M127.749 232.863 C 127.753 233.097,134.018 237.838,135.660 238.850 C 137.096 239.735,136.170 238.938,133.815 237.260 C 132.623 236.411,130.770 235.023,129.697 234.175 C 128.624 233.328,127.747 232.737,127.749 232.863 M269.314 234.942 C 266.834 236.891,265.282 238.230,266.474 237.393 C 266.874 237.112,271.958 233.275,272.230 233.048 C 272.296 232.993,272.296 232.902,272.230 232.846 C 272.164 232.790,270.852 233.733,269.314 234.942 M264.851 238.200 C 263.600 239.142,263.432 239.307,263.743 239.299 C 264.049 239.290,266.143 237.592,265.863 237.580 C 265.765 237.576,265.310 237.855,264.851 238.200 M136.707 239.533 C 136.709 239.647,137.245 240.045,137.898 240.419 C 138.552 240.792,139.007 240.968,138.909 240.809 C 138.663 240.412,136.705 239.276,136.707 239.533 M262.197 240.008 C 260.753 241.030,260.700 241.198,262.064 240.430 C 262.739 240.050,263.291 239.642,263.293 239.523 C 263.296 239.233,263.291 239.236,262.197 240.008 M259.610 241.652 C 258.625 242.283,258.306 242.706,259.176 242.228 C 259.839 241.863,260.878 241.060,260.694 241.055 C 260.614 241.052,260.126 241.321,259.610 241.652 M141.185 242.346 C 141.503 242.605,142.023 242.945,142.341 243.101 L 142.919 243.384 142.341 242.914 C 142.023 242.655,141.503 242.315,141.185 242.159 L 140.607 241.876 141.185 242.346 M143.480 243.795 C 143.789 244.029,144.171 244.220,144.330 244.220 C 144.489 244.220,144.367 244.029,144.058 243.795 C 143.750 243.562,143.367 243.371,143.208 243.371 C 143.049 243.371,143.172 243.562,143.480 243.795 M250.867 246.532 C 249.993 246.994,249.379 247.378,249.504 247.385 C 249.811 247.404,252.601 245.980,252.601 245.804 C 252.601 245.611,252.641 245.594,250.867 246.532 M147.977 246.096 C 147.977 246.292,150.324 247.460,150.455 247.329 C 150.516 247.268,149.983 246.936,149.271 246.590 C 148.559 246.244,147.977 246.022,147.977 246.096 M152.760 248.522 C 152.911 248.664,153.360 248.864,153.757 248.968 L 154.480 249.157 153.757 248.722 C 152.952 248.237,152.319 248.110,152.760 248.522 M246.387 248.710 C 245.661 249.059,245.638 249.099,246.243 248.953 C 246.640 248.857,247.089 248.664,247.240 248.522 C 247.614 248.172,247.409 248.218,246.387 248.710 M154.783 249.389 C 154.934 249.531,155.383 249.731,155.780 249.835 L 156.503 250.024 155.780 249.589 C 154.975 249.104,154.342 248.977,154.783 249.389 M244.220 249.589 L 243.497 250.024 244.220 249.835 C 244.617 249.731,245.066 249.531,245.217 249.389 C 245.658 248.977,245.025 249.104,244.220 249.589 M156.792 250.219 C 156.951 250.376,157.471 250.587,157.948 250.689 C 158.943 250.902,158.392 250.489,157.225 250.147 C 156.751 250.008,156.602 250.033,156.792 250.219 M158.960 251.034 C 158.960 251.229,160.461 251.774,160.604 251.631 C 160.670 251.566,160.326 251.374,159.841 251.205 C 159.356 251.035,158.960 250.959,158.960 251.034 M240.029 251.311 C 239.303 251.661,239.279 251.700,239.884 251.554 C 240.282 251.458,240.730 251.265,240.882 251.124 C 241.256 250.774,241.050 250.819,240.029 251.311 M161.343 251.890 C 161.598 252.159,164.439 253.185,164.873 253.166 C 165.038 253.158,164.523 252.897,163.728 252.586 C 161.766 251.818,161.086 251.619,161.343 251.890 M236.561 252.487 C 235.607 252.878,235.152 253.140,235.549 253.068 C 236.444 252.906,238.360 252.199,238.627 251.932 C 238.973 251.586,238.344 251.754,236.561 252.487 M166.618 253.757 C 166.936 253.894,167.392 254.006,167.630 254.006 C 167.903 254.006,167.850 253.914,167.486 253.757 C 167.168 253.621,166.712 253.509,166.474 253.509 C 166.201 253.509,166.254 253.601,166.618 253.757 M232.514 253.757 C 232.150 253.914,232.097 254.006,232.370 254.006 C 232.608 254.006,233.064 253.894,233.382 253.757 C 233.746 253.601,233.799 253.509,233.526 253.509 C 233.288 253.509,232.832 253.621,232.514 253.757 M168.497 254.307 C 169.097 254.654,171.085 255.017,170.520 254.677 C 170.282 254.533,169.632 254.334,169.075 254.235 C 168.446 254.124,168.227 254.151,168.497 254.307 M230.202 254.491 C 229.058 254.887,229.056 254.889,230.058 254.724 C 230.614 254.633,231.264 254.447,231.503 254.311 C 232.139 253.948,231.524 254.033,230.202 254.491 M171.830 255.162 C 171.984 255.304,172.630 255.505,173.266 255.607 C 173.985 255.722,174.258 255.696,173.988 255.537 C 173.367 255.171,171.487 254.844,171.830 255.162 M226.734 255.352 L 225.578 255.746 226.734 255.582 C 227.954 255.408,229.177 254.918,228.324 254.944 C 228.085 254.952,227.370 255.135,226.734 255.352 M175.434 256.027 C 175.672 256.170,176.517 256.363,177.312 256.456 C 178.219 256.563,178.488 256.539,178.035 256.393 C 176.830 256.004,174.952 255.740,175.434 256.027 M222.688 256.221 L 221.243 256.607 222.688 256.447 C 224.062 256.294,225.624 255.771,224.566 255.817 C 224.328 255.827,223.483 256.009,222.688 256.221 M179.924 256.954 C 180.016 257.103,180.561 257.225,181.135 257.225 C 182.414 257.225,182.297 257.074,180.846 256.850 C 180.196 256.750,179.824 256.791,179.924 256.954 M218.786 256.936 L 217.775 257.149 218.786 257.183 C 219.342 257.201,219.993 257.091,220.231 256.936 C 220.757 256.597,220.400 256.597,218.786 256.936 M185.550 257.810 C 185.943 258.059,189.852 258.232,189.571 257.988 C 189.505 257.930,188.476 257.805,187.284 257.710 C 185.872 257.597,185.267 257.632,185.550 257.810 M211.416 257.832 C 207.640 258.225,207.464 258.328,210.838 258.169 C 212.587 258.087,214.212 257.910,214.451 257.776 C 214.973 257.482,214.734 257.487,211.416 257.832 M190.390 258.296 C 190.748 258.365,191.333 258.365,191.691 258.296 C 192.048 258.228,191.756 258.171,191.040 258.171 C 190.325 258.171,190.033 258.228,190.390 258.296 M196.315 258.597 C 198.342 258.647,201.658 258.647,203.685 258.597 C 205.712 258.548,204.053 258.507,200.000 258.507 C 195.947 258.507,194.288 258.548,196.315 258.597 " stroke="none" fill="#3595ab" fill-rule="evenodd"></path></g></svg>