<svg id="svg" version="1.1" xmlns="http://www.w3.org/2000/svg" xmlns:xlink="http://www.w3.org/1999/xlink" width="400" height="288.8888888888889" viewBox="0, 0, 400,288.8888888888889"><g id="svgg"><path id="path0" d="M0.000 144.509 L 0.000 289.017 200.000 289.017 L 400.000 289.017 400.000 144.509 L 400.000 0.000 200.000 0.000 L 0.000 0.000 0.000 144.509 M210.116 31.066 C 216.154 31.644,219.621 32.211,226.879 33.808 C 260.177 41.137,291.419 67.668,304.822 100.000 C 306.670 104.457,307.021 105.379,307.953 108.218 C 314.942 129.505,315.726 153.101,310.126 173.555 C 302.475 201.499,284.765 225.881,261.619 240.337 C 260.618 240.962,259.448 241.694,259.018 241.964 C 258.589 242.233,257.912 242.634,257.514 242.855 C 257.117 243.075,255.686 243.873,254.335 244.626 C 251.971 245.944,250.532 246.654,246.315 248.578 C 224.204 258.670,198.371 261.055,173.410 255.308 C 171.312 254.825,164.047 252.718,163.150 252.332 C 162.832 252.195,161.402 251.662,159.971 251.148 C 157.557 250.281,156.365 249.800,153.757 248.642 C 124.773 235.771,101.904 210.551,91.945 180.476 C 85.840 162.039,84.563 141.806,88.285 122.483 C 89.240 117.524,91.916 107.891,93.046 105.347 C 93.187 105.029,93.715 103.728,94.218 102.457 C 94.721 101.185,95.285 99.761,95.471 99.293 C 107.651 68.616,140.624 40.811,173.121 33.813 C 173.678 33.693,175.368 33.321,176.879 32.987 C 186.396 30.880,199.966 30.095,210.116 31.066 M164.296 96.745 C 163.232 96.925,162.121 98.072,161.842 99.277 C 161.333 101.477,161.490 118.096,162.025 118.631 C 163.162 119.768,163.268 118.977,163.356 108.768 C 163.447 98.143,163.342 98.752,165.172 98.253 C 166.494 97.893,165.691 96.509,164.296 96.745 M147.254 130.334 C 132.621 133.194,122.183 144.394,120.359 159.191 C 119.796 163.763,120.239 165.029,122.403 165.029 C 123.948 165.029,124.481 164.129,124.715 161.127 C 125.842 146.628,136.967 135.329,150.955 134.476 C 154.484 134.261,155.727 133.483,155.375 131.708 C 154.974 129.688,152.609 129.287,147.254 130.334 M294.261 155.997 C 292.360 157.591,292.856 160.637,295.128 161.318 C 297.355 161.985,299.139 160.688,299.124 158.412 C 299.104 155.609,296.354 154.243,294.261 155.997 M286.705 159.249 C 286.387 159.566,286.127 160.087,286.127 160.405 C 286.127 160.723,286.387 161.243,286.705 161.561 C 287.023 161.879,287.543 162.139,287.861 162.139 C 288.179 162.139,288.699 161.879,289.017 161.561 C 289.335 161.243,289.595 160.723,289.595 160.405 C 289.595 160.087,289.335 159.566,289.017 159.249 C 288.699 158.931,288.179 158.671,287.861 158.671 C 287.543 158.671,287.023 158.931,286.705 159.249 M291.040 161.457 C 288.903 162.948,289.737 166.185,292.258 166.185 C 293.417 166.185,294.798 164.792,294.798 163.622 C 294.798 161.754,292.507 160.434,291.040 161.457 M299.855 161.764 C 297.334 162.433,296.043 165.628,297.397 167.849 C 299.584 171.436,305.024 170.054,305.024 165.912 C 305.024 163.148,302.443 161.077,299.855 161.764 " stroke="none" fill="#cbb3a3" fill-rule="evenodd"></path><path id="path1" d="M189.451 31.103 C 183.769 31.713,178.746 32.544,173.121 33.804 C 135.689 42.190,103.260 72.574,91.368 110.405 C 84.027 133.755,84.667 162.274,93.010 183.536 C 93.164 183.928,93.516 184.834,93.794 185.549 C 94.071 186.264,94.458 187.240,94.654 187.717 C 94.849 188.194,95.189 189.028,95.409 189.572 C 101.204 203.884,113.375 220.396,125.994 231.063 C 158.247 258.327,200.623 265.683,240.607 250.959 C 242.600 250.226,242.936 250.088,245.809 248.832 C 274.593 236.250,297.899 210.865,307.756 181.358 C 315.805 157.267,315.872 132.339,307.953 108.218 C 307.022 105.380,306.674 104.468,304.823 100.000 C 291.445 67.715,259.892 40.922,226.879 33.813 C 226.322 33.693,224.632 33.323,223.121 32.991 C 213.460 30.863,199.156 30.062,189.451 31.103 M164.756 71.396 C 166.718 72.446,166.121 75.682,163.959 75.713 C 162.155 75.739,161.048 74.205,161.718 72.610 C 162.294 71.242,163.538 70.744,164.756 71.396 M198.782 94.819 C 199.894 95.207,200.232 95.741,201.421 98.988 C 201.945 100.419,202.945 103.055,203.644 104.846 C 204.342 106.638,204.913 108.270,204.913 108.474 C 204.913 108.677,205.027 108.967,205.167 109.118 C 205.306 109.270,205.690 110.173,206.020 111.127 C 206.350 112.081,206.896 113.577,207.234 114.451 C 207.571 115.325,207.958 116.366,208.095 116.763 C 208.231 117.160,208.755 118.591,209.260 119.942 C 209.764 121.293,210.240 122.615,210.318 122.880 C 210.445 123.312,211.476 123.376,220.620 123.516 C 230.752 123.672,233.083 123.828,238.006 124.682 C 240.376 125.093,241.404 125.317,245.376 126.295 C 270.293 132.427,285.676 152.990,279.433 171.821 C 276.110 181.845,266.125 191.424,253.791 196.419 C 252.421 196.974,251.040 197.540,250.723 197.678 C 249.938 198.019,248.308 198.564,247.254 198.839 C 246.777 198.963,245.412 199.327,244.220 199.648 C 235.154 202.083,235.883 202.052,188.006 202.041 C 143.045 202.031,144.557 202.071,139.451 200.737 C 114.658 194.258,102.830 164.534,116.274 142.492 C 120.951 134.823,126.755 129.970,135.983 126.012 C 139.937 124.316,146.185 123.412,153.974 123.411 L 159.249 123.410 159.249 110.010 C 159.249 95.244,159.211 95.553,161.095 94.792 C 162.026 94.416,197.698 94.441,198.782 94.819 M284.682 147.832 C 284.682 159.141,284.659 159.336,283.397 158.510 C 279.301 155.826,279.506 139.371,283.664 137.069 C 284.656 136.521,284.682 136.800,284.682 147.832 M192.269 151.644 C 192.547 151.717,193.002 151.717,193.280 151.644 C 193.559 151.572,193.331 151.512,192.775 151.512 C 192.218 151.512,191.991 151.572,192.269 151.644 M232.012 151.649 C 232.372 151.719,232.892 151.716,233.168 151.644 C 233.444 151.571,233.150 151.515,232.514 151.518 C 231.879 151.521,231.653 151.580,232.012 151.649 M160.549 154.913 C 161.170 155.549,161.743 156.069,161.823 156.069 C 161.902 156.069,161.459 155.549,160.838 154.913 C 160.217 154.277,159.644 153.757,159.565 153.757 C 159.485 153.757,159.928 154.277,160.549 154.913 M200.289 154.769 C 200.828 155.325,201.334 155.780,201.414 155.780 C 201.493 155.780,201.117 155.325,200.578 154.769 C 200.039 154.212,199.533 153.757,199.453 153.757 C 199.374 153.757,199.750 154.212,200.289 154.769 M224.551 154.841 L 223.555 155.925 224.639 154.929 C 225.648 154.002,225.855 153.757,225.635 153.757 C 225.586 153.757,225.099 154.245,224.551 154.841 M298.290 156.006 C 300.974 158.405,298.282 162.830,294.978 161.450 C 293.858 160.982,292.777 159.505,292.776 158.439 C 292.771 155.666,296.211 154.149,298.290 156.006 M221.857 159.115 C 221.757 159.374,221.687 159.802,221.701 160.067 C 221.715 160.332,221.841 160.165,221.981 159.697 C 222.253 158.784,222.157 158.333,221.857 159.115 M289.444 159.524 C 290.002 160.604,289.579 161.698,288.450 162.092 C 286.752 162.684,285.514 160.933,286.426 159.230 C 286.942 158.266,288.892 158.456,289.444 159.524 M141.708 162.572 C 141.710 163.526,141.764 163.881,141.828 163.362 C 141.892 162.842,141.891 162.062,141.825 161.628 C 141.759 161.193,141.706 161.618,141.708 162.572 M203.558 162.572 C 203.559 163.526,203.613 163.881,203.678 163.362 C 203.742 162.842,203.741 162.062,203.675 161.628 C 203.609 161.193,203.556 161.618,203.558 162.572 M293.685 161.295 C 294.440 161.699,295.104 163.298,294.886 164.189 C 294.113 167.350,289.595 166.704,289.595 163.431 C 289.595 161.703,292.051 160.420,293.685 161.295 M181.586 162.572 C 181.588 163.367,181.644 163.658,181.710 163.219 C 181.777 162.779,181.775 162.129,181.706 161.773 C 181.638 161.418,181.583 161.777,181.586 162.572 M302.870 162.067 C 306.874 164.109,305.362 170.099,300.859 170.031 C 298.468 169.995,296.769 168.304,296.733 165.926 C 296.683 162.609,299.929 160.567,302.870 162.067 M243.388 163.728 C 243.364 164.046,243.278 164.632,243.196 165.029 L 243.047 165.751 243.357 165.042 C 243.527 164.652,243.614 164.067,243.549 163.742 C 243.434 163.166,243.430 163.165,243.388 163.728 M284.613 176.307 C 284.693 187.604,284.677 187.766,283.528 187.194 C 279.648 185.260,279.357 169.528,283.135 166.026 C 284.524 164.739,284.533 164.800,284.613 176.307 M160.405 170.376 C 159.703 171.091,159.193 171.676,159.273 171.676 C 159.352 171.676,159.992 171.091,160.694 170.376 C 161.396 169.660,161.905 169.075,161.826 169.075 C 161.746 169.075,161.107 169.660,160.405 170.376 M224.554 170.303 C 225.263 171.059,225.881 171.676,225.927 171.676 C 226.144 171.676,225.915 171.417,224.639 170.219 L 223.266 168.931 224.554 170.303 M144.942 170.520 C 145.563 171.156,146.136 171.676,146.216 171.676 C 146.295 171.676,145.852 171.156,145.231 170.520 C 144.610 169.884,144.037 169.364,143.958 169.364 C 143.878 169.364,144.321 169.884,144.942 170.520 M240.015 170.592 L 238.873 171.821 240.101 170.678 C 240.777 170.050,241.329 169.497,241.329 169.450 C 241.329 169.231,241.078 169.450,240.015 170.592 M148.266 172.784 C 148.504 172.931,149.025 173.138,149.422 173.245 C 149.924 173.379,150.012 173.356,149.711 173.170 C 149.473 173.023,148.952 172.815,148.555 172.709 C 148.053 172.575,147.965 172.597,148.266 172.784 M151.655 173.619 C 152.168 173.683,153.079 173.684,153.679 173.621 C 154.278 173.559,153.858 173.507,152.746 173.505 C 151.633 173.504,151.142 173.555,151.655 173.619 M191.835 173.619 C 192.352 173.684,193.197 173.684,193.714 173.619 C 194.230 173.555,193.808 173.503,192.775 173.503 C 191.741 173.503,191.319 173.555,191.835 173.619 M231.286 173.621 C 231.882 173.683,232.858 173.683,233.454 173.621 C 234.050 173.559,233.562 173.508,232.370 173.508 C 231.178 173.508,230.690 173.559,231.286 173.621 " stroke="none" fill="#344c5c" fill-rule="evenodd"></path><path id="path2" d="M160.317 95.605 L 159.543 96.413 159.468 109.984 L 159.393 123.555 152.168 123.729 C 144.521 123.914,142.362 124.199,138.006 125.603 C 125.668 129.579,116.277 139.059,112.692 151.156 C 112.386 152.189,112.013 153.425,111.864 153.902 C 110.494 158.264,110.641 167.172,112.175 172.777 C 112.510 174.000,112.849 175.260,112.929 175.578 C 113.106 176.282,116.388 183.153,116.773 183.623 C 116.924 183.808,117.816 185.000,118.756 186.272 C 124.377 193.878,130.441 197.782,141.908 201.174 C 143.545 201.659,228.989 201.931,232.797 201.464 C 238.508 200.763,241.604 200.140,247.254 198.554 C 251.403 197.389,256.800 194.989,261.127 192.384 C 294.262 172.439,283.252 134.870,241.554 125.596 C 235.380 124.222,232.046 123.923,220.834 123.733 L 210.311 123.555 209.612 121.532 C 206.721 113.164,199.934 95.847,199.358 95.366 C 198.726 94.839,197.938 94.817,179.895 94.807 L 161.091 94.798 160.317 95.605 M165.840 97.622 C 165.789 97.883,165.489 98.167,165.172 98.253 C 163.342 98.752,163.447 98.143,163.356 108.768 C 163.268 118.977,163.162 119.768,162.025 118.631 C 161.490 118.096,161.333 101.477,161.842 99.277 C 162.346 97.097,166.252 95.480,165.840 97.622 M203.721 109.798 C 204.217 110.112,204.239 111.414,203.758 111.993 C 203.200 112.666,173.382 112.647,172.709 111.974 C 172.181 111.446,172.134 110.881,172.554 110.097 C 172.878 109.490,202.783 109.204,203.721 109.798 M154.546 130.281 C 156.948 132.141,155.168 134.220,150.955 134.476 C 136.967 135.329,125.842 146.628,124.715 161.127 C 124.481 164.129,123.948 165.029,122.403 165.029 C 120.239 165.029,119.796 163.763,120.359 159.191 C 121.783 147.643,128.425 138.252,138.873 133.016 C 143.878 130.508,152.824 128.947,154.546 130.281 M283.345 137.527 C 280.133 140.211,279.744 153.094,282.740 157.541 C 284.364 159.949,284.393 159.777,284.393 147.854 C 284.393 141.881,284.296 136.999,284.176 137.004 C 284.057 137.009,283.683 137.245,283.345 137.527 M156.648 149.094 C 172.257 153.578,169.957 174.767,153.613 177.061 C 148.047 177.843,141.251 172.891,139.337 166.660 C 136.098 156.116,146.025 146.043,156.648 149.094 M197.110 149.208 C 199.747 150.275,200.470 150.744,202.586 152.766 C 208.611 158.523,208.630 166.897,202.633 172.845 C 191.227 184.156,172.917 170.447,180.209 156.056 C 183.140 150.273,191.433 146.912,197.110 149.208 M236.253 149.044 C 245.241 151.550,249.489 161.518,245.036 169.653 C 244.118 171.330,240.711 174.855,240.009 174.855 C 239.781 174.855,239.595 174.986,239.595 175.145 C 239.595 175.303,239.433 175.434,239.234 175.435 C 239.035 175.436,238.516 175.623,238.080 175.851 C 228.808 180.687,216.606 171.017,218.605 160.417 C 220.202 151.952,228.199 146.798,236.253 149.044 M278.837 160.855 C 279.536 161.344,279.685 162.396,279.133 162.948 C 278.526 163.555,259.301 163.432,258.621 162.816 C 256.735 161.110,257.772 160.854,267.258 160.685 C 271.993 160.601,276.391 160.503,277.031 160.468 C 277.712 160.431,278.462 160.591,278.837 160.855 M283.452 165.920 C 279.943 167.963,279.797 183.265,283.252 186.721 C 284.366 187.834,284.393 187.586,284.393 176.445 C 284.393 170.484,284.296 165.611,284.176 165.616 C 284.057 165.621,283.731 165.758,283.452 165.920 " stroke="none" fill="#e4c449" fill-rule="evenodd"></path><path id="path3" d="M162.618 71.425 C 161.772 71.917,161.295 73.339,161.655 74.294 C 162.143 75.585,164.011 76.148,165.090 75.329 C 167.294 73.654,165.004 70.038,162.618 71.425 M149.190 152.289 C 137.551 156.605,140.546 173.409,152.954 173.410 C 164.568 173.411,167.863 157.527,157.260 152.656 C 155.035 151.634,151.404 151.469,149.190 152.289 M189.154 152.265 C 177.599 156.536,180.124 172.955,192.398 173.364 C 204.209 173.757,207.911 157.662,197.160 152.652 C 194.984 151.638,191.328 151.461,189.154 152.265 M229.273 152.137 C 217.227 156.065,220.127 173.784,232.747 173.364 C 244.439 172.975,247.593 157.753,237.030 152.698 C 235.066 151.758,231.276 151.484,229.273 152.137 M294.019 155.946 L 293.208 156.690 294.147 156.036 C 294.664 155.677,295.087 155.342,295.087 155.292 C 295.087 155.064,294.767 155.260,294.019 155.946 M292.955 157.381 C 292.856 157.639,292.790 158.198,292.808 158.622 C 292.833 159.200,292.898 159.103,293.066 158.237 C 293.306 157.009,293.253 156.604,292.955 157.381 M299.206 158.526 C 299.209 159.162,299.268 159.388,299.337 159.028 C 299.406 158.669,299.404 158.149,299.332 157.872 C 299.259 157.596,299.203 157.890,299.206 158.526 M289.662 163.584 C 289.662 164.140,289.722 164.368,289.795 164.090 C 289.867 163.811,289.867 163.356,289.795 163.078 C 289.722 162.800,289.662 163.027,289.662 163.584 " stroke="none" fill="#1c94b3" fill-rule="evenodd"></path><path id="path4" d="M170.758 94.725 C 175.896 94.770,184.220 94.770,189.255 94.725 C 194.290 94.681,190.087 94.645,179.913 94.645 C 169.740 94.645,165.620 94.681,170.758 94.725 M200.337 96.836 C 200.507 97.321,200.698 97.664,200.764 97.598 C 200.907 97.455,200.362 95.954,200.167 95.954 C 200.092 95.954,200.168 96.351,200.337 96.836 M159.318 109.893 L 159.249 123.398 153.396 123.483 L 147.543 123.568 153.405 123.633 C 157.877 123.684,159.300 123.614,159.405 123.338 C 159.481 123.139,159.508 116.994,159.465 109.682 L 159.387 96.387 159.318 109.893 M201.033 98.555 C 201.139 98.952,201.347 99.473,201.494 99.711 C 201.680 100.012,201.703 99.924,201.568 99.422 C 201.462 99.025,201.255 98.504,201.107 98.266 C 200.921 97.965,200.898 98.053,201.033 98.555 M202.767 103.179 C 202.873 103.577,203.081 104.097,203.228 104.335 C 203.414 104.637,203.437 104.548,203.303 104.046 C 203.196 103.649,202.989 103.129,202.841 102.890 C 202.655 102.589,202.633 102.677,202.767 103.179 M204.212 106.936 C 204.318 107.334,204.526 107.854,204.673 108.092 C 204.859 108.394,204.882 108.306,204.748 107.803 C 204.641 107.406,204.434 106.886,204.286 106.647 C 204.100 106.346,204.078 106.434,204.212 106.936 M205.251 109.841 C 205.420 110.326,205.612 110.670,205.677 110.604 C 205.820 110.461,205.275 108.960,205.080 108.960 C 205.005 108.960,205.082 109.356,205.251 109.841 M172.554 110.097 C 172.134 110.881,172.181 111.446,172.709 111.974 C 173.382 112.647,203.200 112.666,203.758 111.993 C 204.239 111.414,204.217 110.112,203.721 109.798 C 202.783 109.204,172.878 109.490,172.554 110.097 M209.857 122.019 C 209.840 122.128,209.953 122.550,210.108 122.958 L 210.390 123.699 219.718 123.631 L 229.046 123.563 219.780 123.483 L 210.513 123.403 210.201 122.612 C 210.029 122.177,209.874 121.910,209.857 122.019 M229.700 123.904 C 230.059 123.973,230.580 123.970,230.856 123.898 C 231.132 123.826,230.838 123.769,230.202 123.772 C 229.566 123.776,229.340 123.835,229.700 123.904 M142.197 124.277 C 141.225 124.589,142.275 124.589,143.497 124.277 C 144.276 124.079,144.291 124.056,143.642 124.051 C 143.244 124.048,142.594 124.150,142.197 124.277 M232.394 124.095 C 232.460 124.153,233.360 124.275,234.393 124.366 C 235.571 124.470,236.002 124.441,235.549 124.289 C 234.841 124.051,232.157 123.886,232.394 124.095 M138.584 125.145 C 138.219 125.301,138.166 125.393,138.439 125.393 C 138.678 125.393,139.133 125.281,139.451 125.145 C 139.815 124.988,139.869 124.896,139.595 124.896 C 139.357 124.896,138.902 125.008,138.584 125.145 M238.752 124.962 C 238.819 125.020,239.393 125.147,240.029 125.244 C 240.835 125.367,241.010 125.341,240.607 125.158 C 240.052 124.907,238.504 124.743,238.752 124.962 M136.850 125.640 C 136.532 125.716,136.142 125.911,135.983 126.072 C 135.788 126.270,135.928 126.297,136.416 126.154 C 137.913 125.715,138.262 125.300,136.850 125.640 M242.799 125.826 C 242.865 125.884,243.309 126.018,243.786 126.124 C 244.419 126.266,244.536 126.239,244.220 126.025 C 243.829 125.761,242.509 125.576,242.799 125.826 M245.665 126.547 C 245.903 126.686,246.488 126.885,246.965 126.988 C 247.520 127.108,247.676 127.084,247.399 126.922 C 247.160 126.782,246.575 126.583,246.098 126.480 C 245.543 126.360,245.387 126.384,245.665 126.547 M248.555 127.408 C 248.793 127.555,249.314 127.763,249.711 127.869 C 250.213 128.003,250.301 127.981,250.000 127.794 C 249.762 127.647,249.241 127.440,248.844 127.333 C 248.342 127.199,248.254 127.222,248.555 127.408 M250.867 128.275 C 251.105 128.422,251.626 128.630,252.023 128.736 C 252.525 128.870,252.613 128.848,252.312 128.661 C 252.074 128.514,251.553 128.307,251.156 128.200 C 250.654 128.066,250.566 128.089,250.867 128.275 M128.974 129.513 C 127.989 130.144,127.670 130.568,128.540 130.089 C 129.204 129.725,130.242 128.921,130.058 128.916 C 129.978 128.913,129.491 129.182,128.974 129.513 M126.666 131.015 C 126.151 131.363,125.728 131.752,125.726 131.879 C 125.724 132.006,126.178 131.763,126.734 131.339 C 127.290 130.914,127.746 130.518,127.746 130.457 C 127.746 130.294,127.687 130.325,126.666 131.015 M123.013 134.127 C 121.808 135.252,120.414 136.715,119.915 137.378 C 119.303 138.192,119.520 138.027,120.581 136.871 C 121.446 135.930,122.924 134.470,123.866 133.627 C 124.807 132.784,125.494 132.092,125.391 132.088 C 125.287 132.084,124.217 133.001,123.013 134.127 M259.538 132.180 C 259.538 132.254,260.155 132.674,260.910 133.113 C 261.665 133.552,262.608 134.100,263.006 134.331 L 263.728 134.751 263.006 134.149 C 262.203 133.482,259.538 131.968,259.538 132.180 M263.943 134.851 C 264.037 135.003,264.733 135.572,265.489 136.115 C 266.246 136.659,266.787 136.978,266.693 136.826 C 266.599 136.673,265.903 136.104,265.147 135.561 C 264.390 135.018,263.849 134.698,263.943 134.851 M284.328 147.608 C 284.390 156.161,284.328 158.539,284.039 158.743 C 283.760 158.940,283.776 158.975,284.104 158.885 C 284.578 158.756,284.933 137.419,284.469 136.954 C 284.348 136.833,284.284 141.627,284.328 147.608 M270.809 140.607 C 271.833 141.640,272.736 142.486,272.816 142.486 C 272.895 142.486,272.122 141.640,271.098 140.607 C 270.074 139.574,269.171 138.728,269.092 138.728 C 269.012 138.728,269.785 139.574,270.809 140.607 M281.214 141.040 C 281.034 141.708,280.943 142.311,281.013 142.381 C 281.082 142.450,281.279 141.953,281.450 141.277 C 281.622 140.601,281.713 139.998,281.652 139.937 C 281.591 139.876,281.394 140.373,281.214 141.040 M274.158 144.509 C 275.814 146.781,276.274 147.281,275.561 146.034 C 275.268 145.521,274.525 144.546,273.909 143.866 C 272.883 142.734,272.904 142.787,274.158 144.509 M280.532 144.436 C 280.298 145.857,280.326 150.130,280.580 151.561 C 280.693 152.194,280.780 150.642,280.780 148.020 C 280.780 142.854,280.784 142.912,280.532 144.436 M113.992 146.749 C 113.112 148.724,111.997 152.054,111.742 153.468 C 111.487 154.884,111.940 153.821,112.605 151.445 C 112.894 150.412,113.554 148.559,114.070 147.327 C 115.156 144.738,115.094 144.276,113.992 146.749 M148.810 149.105 C 134.770 153.597,135.823 173.777,150.253 176.767 C 159.907 178.768,169.232 169.245,166.888 159.778 C 164.889 151.704,156.384 146.683,148.810 149.105 M188.712 149.082 C 176.289 153.198,175.044 170.115,186.757 175.651 C 201.122 182.440,214.062 163.731,202.586 152.766 C 199.415 149.737,197.394 148.855,193.208 148.675 C 190.926 148.576,189.980 148.662,188.712 149.082 M229.624 148.753 C 222.200 150.438,217.184 157.913,218.642 165.121 C 220.476 174.187,230.579 179.764,238.080 175.851 C 238.516 175.623,239.035 175.436,239.234 175.435 C 239.433 175.434,239.595 175.303,239.595 175.145 C 239.595 174.986,239.781 174.855,240.009 174.855 C 241.479 174.855,245.449 169.632,246.363 166.494 C 249.223 156.681,239.605 146.488,229.624 148.753 M277.072 149.065 C 277.163 149.425,277.352 149.791,277.492 149.877 C 277.887 150.122,277.791 149.593,277.327 148.971 C 276.922 148.430,276.913 148.433,277.072 149.065 M277.746 150.506 C 277.746 150.644,277.934 151.009,278.165 151.318 C 278.569 151.859,278.578 151.856,278.419 151.224 C 278.255 150.571,277.746 150.029,277.746 150.506 M154.517 151.737 C 167.954 153.918,166.365 173.561,152.752 173.553 C 138.222 173.546,137.949 153.067,152.457 151.481 C 152.616 151.464,153.543 151.579,154.517 151.737 M194.661 151.760 C 207.847 154.198,206.040 173.591,192.630 173.545 C 178.020 173.495,177.901 152.569,192.505 151.479 C 192.754 151.460,193.724 151.587,194.661 151.760 M234.557 151.756 C 245.000 153.646,246.904 167.899,237.343 172.607 C 234.670 173.923,230.571 173.999,227.972 172.780 C 216.138 167.234,221.714 149.430,234.557 151.756 M278.635 152.312 C 278.637 152.551,278.823 153.136,279.047 153.613 L 279.456 154.480 279.284 153.613 C 279.070 152.527,278.628 151.644,278.635 152.312 M281.101 154.046 C 281.200 154.603,281.397 155.253,281.540 155.491 C 281.848 156.004,281.552 154.506,281.169 153.613 C 281.003 153.223,280.980 153.364,281.101 154.046 M279.505 154.913 C 279.513 155.152,279.632 155.607,279.769 155.925 L 280.017 156.503 280.033 155.925 C 280.042 155.607,279.923 155.152,279.769 154.913 C 279.520 154.528,279.490 154.528,279.505 154.913 M111.019 157.081 C 110.691 159.288,110.591 161.182,110.814 160.958 C 110.985 160.787,111.597 155.142,111.459 155.004 C 111.396 154.942,111.199 155.876,111.019 157.081 M280.284 157.948 C 280.397 158.743,280.481 161.279,280.472 163.584 C 280.459 166.742,280.518 167.454,280.708 166.474 C 281.015 164.902,280.781 158.579,280.372 157.370 C 280.134 156.666,280.118 156.776,280.284 157.948 M267.258 160.685 C 257.772 160.854,256.735 161.110,258.621 162.816 C 259.301 163.432,278.526 163.555,279.133 162.948 C 280.221 161.859,278.953 160.363,277.031 160.468 C 276.391 160.503,271.993 160.601,267.258 160.685 M110.852 166.971 C 110.930 168.277,111.114 169.643,111.261 170.006 C 111.572 170.776,111.342 167.604,110.952 165.751 C 110.778 164.923,110.750 165.268,110.852 166.971 M283.682 165.588 C 283.570 165.770,283.676 165.820,283.951 165.715 C 284.362 165.557,284.399 166.626,284.328 176.542 C 284.284 182.593,284.348 187.445,284.469 187.323 C 284.848 186.944,284.588 165.527,284.203 165.399 C 284.019 165.338,283.784 165.423,283.682 165.588 M281.214 169.653 C 281.034 170.321,280.943 170.924,281.013 170.993 C 281.082 171.062,281.279 170.566,281.450 169.890 C 281.622 169.213,281.713 168.610,281.652 168.550 C 281.591 168.489,281.394 168.985,281.214 169.653 M279.632 170.216 C 279.509 170.765,279.038 172.123,278.586 173.236 C 278.133 174.348,277.816 175.311,277.882 175.377 C 278.161 175.656,280.166 170.114,279.980 169.579 C 279.912 169.381,279.755 169.668,279.632 170.216 M111.707 171.981 C 112.067 174.485,115.148 182.024,116.248 183.092 C 116.618 183.451,116.674 183.580,114.700 179.480 C 113.820 177.652,112.868 175.311,112.585 174.277 C 111.815 171.466,111.524 170.706,111.707 171.981 M280.531 173.017 C 280.295 174.735,280.322 178.430,280.580 179.883 C 280.693 180.515,280.780 178.963,280.780 176.343 C 280.780 171.118,280.784 171.168,280.531 173.017 M276.907 176.751 C 276.574 177.316,276.301 177.849,276.301 177.934 C 276.301 178.020,276.032 178.468,275.703 178.929 C 275.374 179.391,275.181 179.769,275.273 179.769 C 275.473 179.769,277.279 176.952,277.543 176.228 C 277.840 175.414,277.560 175.644,276.907 176.751 M273.701 181.645 C 272.233 183.548,267.513 188.109,265.561 189.512 C 264.791 190.064,264.162 190.569,264.162 190.634 C 264.162 191.675,273.754 182.695,274.870 180.608 C 275.393 179.631,274.955 180.020,273.701 181.645 M281.101 182.659 C 281.200 183.215,281.397 183.866,281.540 184.104 C 281.848 184.617,281.552 183.119,281.169 182.225 C 281.003 181.836,280.980 181.977,281.101 182.659 M116.654 183.887 C 117.317 185.007,119.982 188.400,120.684 189.017 C 121.155 189.432,120.978 189.127,120.268 188.302 C 119.588 187.510,118.554 186.120,117.970 185.211 C 117.093 183.847,115.947 182.694,116.654 183.887 M281.793 184.832 C 281.791 185.319,283.233 187.283,283.592 187.283 C 283.775 187.283,283.717 187.121,283.462 186.922 C 283.207 186.723,282.727 186.105,282.396 185.549 C 282.065 184.993,281.794 184.670,281.793 184.832 M123.236 191.696 C 125.808 194.020,128.102 195.743,129.913 196.713 C 131.877 197.765,131.539 197.470,128.468 195.451 C 126.069 193.873,122.716 191.103,122.168 190.246 C 122.041 190.047,121.780 189.887,121.590 189.890 C 121.399 189.893,122.140 190.706,123.236 191.696 M262.051 191.803 C 261.128 192.374,260.435 192.901,260.510 192.976 C 260.658 193.125,263.873 191.140,263.873 190.900 C 263.873 190.679,263.861 190.685,262.051 191.803 M258.587 193.838 C 257.825 194.247,257.262 194.642,257.336 194.715 C 257.472 194.852,260.116 193.392,260.116 193.181 C 260.116 193.015,260.120 193.013,258.587 193.838 M255.780 195.268 C 255.224 195.515,254.458 195.838,254.078 195.987 C 253.699 196.137,253.451 196.322,253.528 196.399 C 253.688 196.559,256.936 195.173,256.936 194.946 C 256.936 194.753,256.957 194.747,255.780 195.268 M251.879 196.975 C 251.156 197.324,251.132 197.364,251.734 197.217 C 252.553 197.016,253.474 196.547,253.035 196.554 C 252.876 196.556,252.355 196.746,251.879 196.975 M131.626 197.653 C 131.712 197.793,132.078 197.981,132.438 198.072 C 133.069 198.231,133.073 198.222,132.531 197.818 C 131.910 197.354,131.381 197.257,131.626 197.653 M249.566 197.834 L 248.699 198.242 249.566 198.072 C 250.043 197.979,250.557 197.789,250.708 197.651 C 251.120 197.273,250.568 197.361,249.566 197.834 M133.396 198.516 C 133.805 198.889,138.414 200.581,138.970 200.562 C 139.234 200.553,138.410 200.185,137.139 199.744 C 135.867 199.303,134.543 198.790,134.195 198.604 C 133.455 198.207,133.003 198.158,133.396 198.516 M246.893 198.589 C 246.376 198.738,245.954 198.919,245.954 198.989 C 245.954 199.173,247.747 198.812,248.266 198.524 C 248.871 198.188,248.166 198.222,246.893 198.589 M242.197 199.863 C 240.845 200.230,239.917 200.540,240.134 200.554 C 240.590 200.582,245.461 199.431,245.641 199.253 C 245.908 198.987,244.522 199.233,242.197 199.863 M141.040 201.156 C 141.438 201.283,142.023 201.391,142.341 201.396 L 142.919 201.404 142.341 201.156 C 142.023 201.019,141.438 200.912,141.040 200.916 L 140.318 200.925 141.040 201.156 M235.260 201.156 L 234.538 201.387 235.260 201.400 C 235.658 201.406,236.503 201.304,237.139 201.173 L 238.295 200.934 237.139 200.929 C 236.503 200.927,235.658 201.029,235.260 201.156 M144.278 201.800 C 145.499 202.069,230.925 202.061,232.659 201.792 C 233.374 201.681,213.567 201.590,188.642 201.590 C 163.717 201.590,143.753 201.684,144.278 201.800 " stroke="none" fill="#9a7416" fill-rule="evenodd"></path></g></svg>