<svg id="svg" version="1.1" xmlns="http://www.w3.org/2000/svg" xmlns:xlink="http://www.w3.org/1999/xlink" width="400" height="288.8888888888889" viewBox="0, 0, 400,288.8888888888889"><g id="svgg"><path id="path0" d="M0.000 144.509 L 0.000 289.017 200.000 289.017 L 400.000 289.017 400.000 144.509 L 400.000 0.000 200.000 0.000 L 0.000 0.000 0.000 144.509 M210.107 31.073 C 215.542 31.626,219.714 32.240,223.121 32.991 C 224.632 33.323,226.322 33.693,226.879 33.813 C 259.892 40.922,291.445 67.715,304.823 100.000 C 306.674 104.468,307.022 105.380,307.953 108.218 C 316.445 134.086,315.700 161.331,305.794 187.139 C 302.418 195.937,295.490 207.728,288.898 215.896 C 240.532 275.831,148.111 271.757,105.270 207.800 C 96.888 195.286,91.603 182.440,88.149 166.185 C 85.497 153.701,85.550 136.685,88.285 122.483 C 89.263 117.407,91.757 108.457,93.060 105.347 C 93.194 105.029,93.715 103.728,94.219 102.457 C 108.023 67.613,139.191 41.004,175.145 33.368 C 176.337 33.115,177.832 32.791,178.468 32.649 C 186.327 30.888,201.068 30.153,210.107 31.073 M209.827 109.073 C 209.827 109.295,210.900 110.431,212.211 111.598 C 213.522 112.766,214.861 113.982,215.186 114.303 C 215.511 114.623,217.137 116.119,218.799 117.629 C 222.838 121.296,224.410 122.739,225.967 124.205 C 227.308 125.469,227.847 125.683,228.209 125.097 C 228.413 124.767,227.081 123.420,222.115 118.931 C 220.884 117.818,219.086 116.192,218.119 115.318 C 217.152 114.444,215.820 113.202,215.159 112.559 C 211.769 109.259,209.827 107.989,209.827 109.073 M183.346 111.637 C 182.892 111.992,182.059 112.738,181.495 113.295 C 180.931 113.851,179.313 115.347,177.899 116.618 C 176.485 117.890,174.977 119.256,174.548 119.653 C 174.118 120.051,172.483 121.568,170.914 123.024 C 169.345 124.481,167.704 125.953,167.267 126.297 C 166.444 126.944,166.187 128.035,166.858 128.035 C 167.204 128.035,169.432 126.154,171.823 123.844 C 172.316 123.367,173.298 122.471,174.004 121.854 C 175.427 120.610,180.136 116.298,182.637 113.949 C 183.523 113.117,184.346 112.434,184.465 112.432 C 184.769 112.426,184.737 111.340,184.427 111.148 C 184.287 111.061,183.800 111.281,183.346 111.637 M220.014 123.328 C 219.382 123.556,219.617 124.010,221.007 125.243 C 221.752 125.904,222.701 126.770,223.116 127.168 C 223.531 127.565,225.296 129.178,227.037 130.751 C 228.778 132.325,231.503 134.817,233.092 136.290 C 237.459 140.336,238.150 140.793,238.150 139.639 C 238.150 139.343,237.347 138.407,236.350 137.543 C 235.360 136.685,234.018 135.462,233.368 134.827 C 232.718 134.191,231.675 133.229,231.050 132.689 C 230.425 132.148,229.128 130.978,228.167 130.087 C 221.053 123.490,220.602 123.116,220.014 123.328 M196.821 130.925 L 196.098 131.490 198.682 131.496 L 201.265 131.503 200.645 130.925 C 199.816 130.153,197.807 130.153,196.821 130.925 M182.659 144.075 L 181.980 144.798 189.087 144.798 C 196.334 144.798,196.693 144.744,196.314 143.714 C 196.213 143.440,194.633 143.353,189.759 143.353 L 183.338 143.353 182.659 144.075 M152.688 144.870 C 151.948 145.546,150.936 146.488,150.439 146.965 C 149.941 147.442,148.957 148.338,148.250 148.956 C 146.165 150.778,139.344 157.013,137.036 159.206 C 136.124 160.073,136.069 160.205,136.520 160.457 C 137.095 160.779,137.917 160.231,140.343 157.910 C 141.502 156.801,146.333 152.356,148.155 150.723 C 148.332 150.564,149.810 149.198,151.440 147.688 C 153.069 146.178,154.517 144.899,154.658 144.846 C 155.096 144.681,154.937 143.642,154.473 143.642 C 154.231 143.642,153.428 144.194,152.688 144.870 M193.931 155.925 C 193.931 156.303,195.488 156.358,206.214 156.358 C 216.940 156.358,218.497 156.303,218.497 155.925 C 218.497 155.546,216.940 155.491,206.214 155.491 C 195.488 155.491,193.931 155.546,193.931 155.925 M165.484 159.842 C 164.933 160.400,165.033 160.405,176.560 160.405 C 187.483 160.405,188.187 160.374,188.095 159.899 C 187.935 159.068,166.302 159.013,165.484 159.842 M223.033 159.740 C 221.226 160.208,223.089 160.554,227.769 160.619 L 232.803 160.690 232.081 160.120 C 231.379 159.567,224.772 159.289,223.033 159.740 M140.001 165.035 C 134.615 166.701,134.163 174.704,139.324 177.031 L 140.446 177.537 138.947 178.436 C 134.289 181.230,134.664 187.990,139.594 190.066 L 140.604 190.492 139.449 191.020 C 134.368 193.344,134.342 200.256,139.405 202.804 L 140.515 203.363 139.116 204.078 C 136.481 205.424,135.057 208.628,135.845 211.439 L 136.209 212.741 136.873 212.117 C 137.436 211.588,137.514 211.290,137.386 210.154 C 136.754 204.556,145.078 202.695,146.536 208.108 C 146.804 209.103,147.709 210.116,148.330 210.116 C 149.109 210.116,148.235 206.961,147.039 205.456 C 146.514 204.795,144.750 203.760,144.147 203.758 C 143.282 203.756,143.590 203.290,144.822 202.735 C 149.806 200.487,149.792 193.307,144.799 191.073 L 143.501 190.492 144.510 190.065 C 149.823 187.822,149.824 180.328,144.513 178.103 L 143.505 177.681 144.841 177.002 C 151.916 173.406,147.582 162.689,140.001 165.035 M254.622 164.993 C 248.657 166.946,248.218 174.539,253.918 177.175 L 254.959 177.657 253.997 178.045 C 248.418 180.295,248.448 187.679,254.046 190.125 C 254.849 190.476,254.944 190.592,254.508 190.689 C 248.813 191.952,248.278 200.621,253.755 202.889 C 254.835 203.337,254.857 203.636,253.829 203.893 C 248.659 205.183,248.567 213.266,253.695 215.676 L 255.014 216.296 253.844 216.686 C 248.210 218.564,248.692 227.087,254.527 228.783 C 262.364 231.062,266.183 219.818,258.648 216.650 L 257.754 216.274 258.798 215.779 C 264.049 213.287,263.975 206.046,258.676 203.826 L 257.670 203.405 258.821 202.826 C 264.023 200.209,264.033 193.385,258.838 191.026 L 257.706 190.511 259.057 189.876 C 263.967 187.568,263.858 180.176,258.884 178.181 L 257.659 177.690 258.815 177.107 C 265.850 173.561,262.043 162.563,254.622 164.993 M145.063 167.579 C 147.561 169.600,147.128 173.781,144.262 175.324 C 140.436 177.382,136.117 173.447,137.742 169.385 C 138.877 166.549,142.643 165.620,145.063 167.579 M258.909 167.255 C 263.404 170.584,259.922 177.561,254.751 175.587 C 249.734 173.671,251.393 166.156,256.741 166.573 C 257.529 166.635,258.472 166.931,258.909 167.255 M156.069 169.653 C 156.069 170.222,156.262 170.231,168.353 170.231 C 180.443 170.231,180.636 170.222,180.636 169.653 C 180.636 169.084,180.443 169.075,168.353 169.075 C 156.262 169.075,156.069 169.084,156.069 169.653 M177.173 171.755 C 175.665 172.525,175.289 174.608,176.420 175.923 L 177.118 176.734 197.110 176.734 L 217.102 176.734 217.831 175.887 C 218.710 174.865,218.623 173.119,217.644 172.140 C 216.889 171.385,178.611 171.021,177.173 171.755 M144.202 179.760 C 146.513 180.939,147.411 184.205,146.036 186.426 C 144.137 189.494,139.449 189.263,137.882 186.025 C 135.909 181.949,140.185 177.710,144.202 179.760 M258.665 179.986 C 262.619 181.973,261.362 188.238,256.924 188.664 C 253.536 188.990,251.199 186.322,251.847 182.869 C 252.363 180.119,255.929 178.611,258.665 179.986 M150.867 180.749 C 150.867 181.459,151.584 181.503,163.150 181.503 C 174.716 181.503,175.434 181.459,175.434 180.749 C 175.434 180.412,173.457 180.347,163.150 180.347 C 152.844 180.347,150.867 180.412,150.867 180.749 M217.919 183.351 C 217.919 184.060,218.636 184.104,230.202 184.104 C 241.768 184.104,242.486 184.060,242.486 183.351 C 242.486 183.013,240.509 182.948,230.202 182.948 C 219.896 182.948,217.919 183.013,217.919 183.351 M144.742 192.797 C 147.503 194.501,147.272 199.123,144.342 200.790 C 139.548 203.519,134.969 197.191,138.896 193.263 C 139.633 192.526,139.989 192.369,141.474 192.123 C 142.321 191.983,143.976 192.324,144.742 192.797 M259.092 193.179 C 262.754 195.973,260.929 201.580,256.358 201.580 C 253.485 201.580,251.524 199.395,251.802 196.503 C 252.153 192.854,256.229 190.995,259.092 193.179 M224.566 193.208 C 224.566 193.587,226.124 193.642,236.850 193.642 C 247.575 193.642,249.133 193.587,249.133 193.208 C 249.133 192.830,247.575 192.775,236.850 192.775 C 226.124 192.775,224.566 192.830,224.566 193.208 M155.257 193.569 C 155.348 194.042,156.169 194.075,167.630 194.075 C 179.091 194.075,179.912 194.042,180.003 193.569 C 180.094 193.094,179.351 193.064,167.630 193.064 C 155.909 193.064,155.166 193.094,155.257 193.569 M257.833 205.242 C 262.235 206.717,262.076 212.856,257.601 214.176 C 255.123 214.906,252.316 213.270,251.858 210.828 C 251.151 207.064,254.348 204.075,257.833 205.242 M215.800 205.395 C 215.694 205.501,215.607 205.826,215.607 206.118 C 215.607 206.884,239.786 206.951,240.080 206.185 C 240.178 205.930,240.076 205.607,239.854 205.467 C 239.390 205.173,216.091 205.103,215.800 205.395 M149.422 206.069 C 149.422 206.638,149.615 206.647,161.705 206.647 C 173.796 206.647,173.988 206.638,173.988 206.069 C 173.988 205.500,173.796 205.491,161.705 205.491 C 149.615 205.491,149.422 205.500,149.422 206.069 M259.192 218.778 C 262.691 221.313,261.129 226.748,256.798 227.107 C 251.823 227.519,249.747 221.045,254.046 218.525 C 255.621 217.602,257.710 217.705,259.192 218.778 M223.699 218.642 C 223.699 219.020,225.257 219.075,235.983 219.075 C 246.708 219.075,248.266 219.020,248.266 218.642 C 248.266 218.263,246.708 218.208,235.983 218.208 C 225.257 218.208,223.699 218.263,223.699 218.642 " stroke="none" fill="#bb4c63" fill-rule="evenodd"></path><path id="path1" d="M172.142 67.578 C 172.052 67.724,171.199 67.931,170.246 68.039 C 169.294 68.147,168.438 68.359,168.344 68.510 C 168.251 68.662,167.972 68.786,167.724 68.786 C 166.172 68.786,160.775 72.089,158.152 74.643 C 154.604 78.099,154.264 78.755,155.239 80.268 C 156.500 82.227,156.694 82.709,156.857 84.284 L 157.017 85.838 154.303 85.867 C 149.006 85.922,138.293 85.785,138.167 85.661 C 138.042 85.537,138.464 83.456,138.883 82.134 L 139.095 81.465 135.949 81.591 C 134.219 81.660,132.153 81.851,131.358 82.015 C 129.990 82.298,129.415 82.496,127.268 83.422 C 126.768 83.638,126.215 83.815,126.040 83.815 C 125.865 83.815,125.723 83.945,125.723 84.104 C 125.723 84.263,125.577 84.393,125.399 84.393 C 123.291 84.393,115.029 92.655,115.029 94.763 C 115.029 94.941,114.899 95.087,114.740 95.087 C 114.581 95.087,114.451 95.230,114.451 95.404 C 114.451 95.579,114.269 96.132,114.046 96.633 C 112.472 100.173,111.736 107.123,112.550 110.766 L 112.792 111.850 110.749 111.850 C 109.624 111.850,108.634 111.965,108.547 112.105 C 108.460 112.246,107.805 112.449,107.091 112.556 C 106.378 112.663,105.727 112.858,105.646 112.990 C 105.564 113.121,105.051 113.313,104.504 113.416 C 103.957 113.518,103.468 113.696,103.417 113.810 C 103.366 113.924,102.818 114.275,102.199 114.590 C 100.259 115.579,95.867 120.194,95.279 121.860 C 95.147 122.236,94.919 122.543,94.774 122.543 C 94.628 122.543,94.509 122.724,94.509 122.944 C 94.509 123.164,94.314 123.717,94.077 124.172 C 93.839 124.627,93.644 125.202,93.643 125.448 C 93.642 125.694,93.479 126.059,93.280 126.257 C 93.017 126.521,92.919 128.109,92.919 132.144 C 92.919 136.307,93.008 137.698,93.280 137.789 C 94.606 138.231,93.407 138.575,90.867 138.483 C 89.103 138.418,87.977 138.497,87.775 138.699 C 87.600 138.874,87.236 139.017,86.967 139.017 C 86.223 139.017,86.127 139.592,86.131 144.027 C 86.145 158.710,88.916 173.239,94.271 186.705 C 94.745 187.897,95.285 189.256,95.471 189.724 C 95.657 190.192,96.759 192.509,97.920 194.873 C 112.188 223.928,138.593 245.771,169.836 254.361 C 172.228 255.019,172.499 255.083,176.879 256.016 C 199.744 260.885,224.631 258.239,246.243 248.642 C 274.578 236.059,297.407 211.323,307.405 182.370 L 308.653 178.757 306.928 178.671 C 305.980 178.624,304.749 178.711,304.193 178.864 L 303.182 179.143 302.711 177.505 C 300.525 169.898,294.864 164.361,287.283 162.414 C 284.322 161.654,284.549 161.854,285.128 160.508 C 289.399 150.592,283.467 138.682,272.903 135.961 L 270.809 135.421 270.809 131.597 C 270.809 122.075,265.582 113.559,257.370 109.706 C 256.734 109.408,255.983 109.050,255.702 108.911 C 255.420 108.772,254.604 108.577,253.888 108.479 C 253.171 108.381,252.516 108.189,252.432 108.052 C 252.347 107.915,251.603 107.801,250.778 107.799 C 248.596 107.793,248.647 107.904,248.495 102.807 C 248.409 99.899,248.237 98.122,248.024 97.908 C 247.839 97.723,247.688 97.315,247.688 97.000 C 247.688 96.330,246.512 92.697,246.227 92.486 C 246.119 92.406,245.931 92.018,245.807 91.622 C 245.558 90.826,244.198 88.639,243.858 88.487 C 243.739 88.434,243.642 88.227,243.642 88.026 C 243.642 87.825,243.414 87.388,243.136 87.055 C 242.858 86.721,242.305 86.023,241.908 85.502 C 240.297 83.395,236.004 79.480,235.303 79.480 C 235.120 79.480,234.971 79.364,234.971 79.223 C 234.971 78.855,228.666 75.765,227.457 75.540 C 226.900 75.437,226.313 75.250,226.152 75.125 C 224.564 73.894,210.667 73.926,209.408 75.164 C 209.257 75.312,208.886 75.434,208.584 75.434 C 208.282 75.434,207.593 75.629,207.052 75.867 C 206.512 76.105,205.627 76.496,205.086 76.734 C 204.546 76.973,203.960 77.168,203.786 77.168 C 203.611 77.168,203.468 77.298,203.468 77.457 C 203.468 77.616,203.303 77.746,203.100 77.746 C 202.898 77.746,202.049 78.196,201.214 78.745 C 199.821 79.663,198.844 79.827,198.844 79.143 C 198.844 77.048,188.242 68.786,185.553 68.786 C 185.297 68.786,184.963 68.663,184.812 68.512 C 184.036 67.738,172.566 66.892,172.142 67.578 M157.176 91.594 C 158.215 92.123,159.904 93.789,160.555 94.924 C 160.832 95.407,160.919 95.410,161.963 94.974 C 166.017 93.280,171.344 96.575,171.722 101.012 L 171.821 102.168 164.339 102.245 L 156.856 102.322 157.035 101.017 C 157.134 100.299,157.295 99.389,157.394 98.995 L 157.574 98.279 151.981 98.200 L 146.387 98.121 146.470 97.110 C 146.857 92.357,152.736 89.328,157.176 91.594 M201.012 98.877 C 202.808 99.372,203.420 99.882,213.442 109.249 C 214.717 110.441,217.319 112.847,219.224 114.595 C 221.129 116.344,223.796 118.815,225.150 120.087 C 226.505 121.358,229.171 123.829,231.073 125.578 C 236.092 130.190,238.273 132.204,238.438 132.381 C 238.595 132.549,241.509 135.232,244.518 137.979 C 245.546 138.918,248.075 141.259,250.139 143.181 C 252.202 145.103,254.607 147.327,255.483 148.121 C 264.475 156.278,265.101 157.091,265.101 160.619 C 265.101 162.688,263.859 165.663,262.919 165.844 C 262.612 165.903,261.708 165.266,260.615 164.220 C 259.625 163.274,258.040 161.800,257.093 160.946 C 256.145 160.092,254.396 158.483,253.205 157.370 C 252.014 156.257,250.123 154.490,249.003 153.444 C 247.882 152.397,246.199 150.836,245.263 149.975 C 244.326 149.115,243.211 148.085,242.784 147.688 C 242.357 147.290,240.659 145.730,239.010 144.220 C 237.362 142.710,235.468 140.954,234.801 140.318 C 234.134 139.682,232.241 137.927,230.595 136.418 C 228.948 134.909,226.756 132.886,225.723 131.923 C 224.689 130.960,223.076 129.464,222.138 128.598 C 221.199 127.732,220.083 126.698,219.657 126.301 C 219.231 125.903,218.113 124.871,217.173 124.006 C 216.232 123.141,214.478 121.515,213.275 120.393 C 201.721 109.617,202.010 109.827,198.699 109.827 C 195.685 109.827,193.496 111.336,186.305 118.373 C 185.377 119.282,181.087 123.255,178.058 126.012 C 176.573 127.363,175.012 128.793,174.589 129.191 C 170.486 133.042,169.064 134.366,166.210 136.994 C 164.398 138.663,162.447 140.465,161.876 140.999 C 161.305 141.532,159.686 143.028,158.277 144.323 C 156.869 145.617,155.097 147.262,154.340 147.977 C 153.582 148.692,152.264 149.914,151.409 150.692 C 150.555 151.470,148.936 152.965,147.813 154.015 C 146.689 155.066,144.418 157.160,142.767 158.671 C 141.116 160.181,138.803 162.327,137.628 163.439 C 134.396 166.500,134.286 166.515,133.123 164.056 C 131.257 160.112,132.270 157.067,136.859 152.825 C 138.453 151.351,141.373 148.649,143.346 146.821 C 145.320 144.993,148.698 141.875,150.852 139.892 C 153.006 137.909,155.709 135.308,156.858 134.111 L 158.947 131.936 158.953 119.147 L 158.960 106.358 159.696 106.358 C 162.566 106.358,162.710 106.920,162.791 118.447 L 162.861 128.369 164.090 127.234 L 165.318 126.100 165.318 116.229 L 165.318 106.358 166.223 106.358 C 166.887 106.358,167.388 106.634,168.102 107.391 L 169.075 108.423 169.075 115.517 L 169.075 122.610 170.207 121.638 L 171.338 120.665 171.363 113.512 L 171.387 106.358 172.124 106.358 C 174.619 106.358,175.239 107.554,175.382 112.645 C 175.446 114.910,175.566 116.763,175.650 116.763 C 175.825 116.763,177.067 115.649,181.910 111.147 C 183.803 109.387,185.493 107.818,185.667 107.659 C 185.841 107.500,187.608 105.871,189.595 104.039 C 195.619 98.484,197.122 97.805,201.012 98.877 M89.272 117.856 C 89.177 118.430,89.219 118.700,89.380 118.540 C 89.525 118.394,89.596 117.967,89.537 117.591 C 89.446 117.013,89.405 117.053,89.272 117.856 M200.964 119.037 C 201.944 119.970,203.261 121.200,203.891 121.769 C 205.437 123.167,205.536 123.144,198.536 123.055 L 192.363 122.977 193.233 122.110 C 198.613 116.747,198.575 116.762,200.964 119.037 M87.897 124.711 C 87.873 125.029,87.786 125.614,87.705 126.012 L 87.556 126.734 87.866 126.025 C 88.036 125.635,88.122 125.050,88.058 124.725 C 87.943 124.148,87.939 124.148,87.897 124.711 M87.463 127.612 C 87.364 127.871,87.294 128.299,87.308 128.564 C 87.322 128.829,87.447 128.663,87.588 128.194 C 87.860 127.282,87.764 126.830,87.463 127.612 M215.126 132.161 C 217.007 133.945,218.448 135.502,218.329 135.621 C 218.025 135.925,179.259 135.894,179.072 135.590 C 178.923 135.350,179.755 134.503,183.880 130.696 L 185.824 128.902 198.764 128.909 L 211.705 128.917 215.126 132.161 M86.883 131.681 C 86.777 132.582,86.748 133.376,86.819 133.447 C 86.889 133.517,87.038 132.842,87.150 131.948 C 87.262 131.053,87.291 130.258,87.214 130.182 C 87.138 130.105,86.989 130.780,86.883 131.681 M86.489 136.561 C 86.492 137.197,86.551 137.423,86.621 137.063 C 86.690 136.704,86.687 136.183,86.615 135.907 C 86.542 135.631,86.486 135.925,86.489 136.561 M227.627 143.748 C 229.043 145.078,230.634 146.528,231.162 146.970 C 231.884 147.575,232.027 147.833,231.740 148.015 C 231.297 148.296,165.796 148.359,165.516 148.079 C 165.353 147.916,167.224 146.057,171.243 142.388 L 172.399 141.332 198.725 141.331 L 225.052 141.329 227.627 143.748 M240.374 155.564 C 241.463 156.557,243.359 158.272,244.588 159.373 C 245.816 160.475,246.821 161.548,246.821 161.758 C 246.821 162.071,238.327 162.139,198.699 162.139 C 161.066 162.139,150.578 162.062,150.578 161.787 C 150.578 161.593,150.936 161.128,151.373 160.753 C 152.177 160.064,153.882 158.488,157.128 155.433 L 158.910 153.757 198.652 153.757 L 238.394 153.757 240.374 155.564 M145.566 165.400 C 146.217 165.811,147.011 166.481,147.332 166.888 L 147.916 167.630 199.165 167.630 L 250.415 167.630 251.002 166.965 C 253.126 164.560,256.321 163.760,258.972 164.970 C 263.819 167.181,264.102 174.387,259.441 176.907 L 258.052 177.659 258.906 178.013 C 264.036 180.137,263.999 187.505,258.845 190.096 L 257.720 190.662 258.556 190.836 C 263.623 191.887,264.215 200.055,259.412 202.647 L 257.987 203.416 258.979 203.837 C 264.003 205.970,264.058 212.744,259.074 215.751 L 258.014 216.392 258.770 216.581 C 263.063 217.659,264.160 224.771,260.483 227.683 C 256.783 230.614,250.490 228.742,249.813 224.510 L 249.638 223.415 231.683 223.340 L 213.728 223.266 213.647 219.872 L 213.566 216.478 233.878 216.404 C 253.685 216.331,254.165 216.316,253.142 215.807 C 251.600 215.040,249.711 212.586,249.711 211.350 C 249.711 211.063,245.936 210.971,231.720 210.913 L 213.728 210.838 213.728 207.370 L 213.728 203.902 233.574 203.757 C 253.739 203.610,254.488 203.572,252.926 202.764 C 251.754 202.158,250.672 200.970,250.081 199.639 L 249.600 198.555 231.742 198.555 L 213.884 198.555 213.722 197.905 C 213.632 197.547,213.597 195.954,213.644 194.364 L 213.728 191.474 233.237 191.329 C 254.714 191.170,254.528 191.187,252.408 189.589 C 251.675 189.036,250.767 187.999,250.391 187.283 L 249.706 185.983 231.717 185.838 L 213.728 185.694 213.728 182.225 L 213.728 178.757 233.092 178.613 C 250.243 178.485,252.548 178.415,253.258 178.000 L 254.060 177.533 253.186 177.171 C 252.076 176.711,250.742 175.352,250.126 174.052 L 249.646 173.042 247.467 173.226 C 246.269 173.328,239.325 173.410,232.037 173.410 L 218.786 173.410 218.786 174.451 C 218.786 175.241,218.571 175.692,217.889 176.329 L 216.991 177.168 197.110 177.168 L 177.229 177.168 176.331 176.329 C 175.649 175.692,175.434 175.241,175.434 174.451 L 175.434 173.410 163.512 173.408 C 156.954 173.407,150.929 173.326,150.122 173.229 C 148.667 173.054,148.650 173.061,148.254 174.026 C 147.786 175.170,145.802 177.122,144.870 177.356 C 144.271 177.506,144.304 177.562,145.293 178.066 C 146.310 178.585,147.276 178.613,164.217 178.613 L 182.070 178.613 182.232 179.263 C 182.321 179.621,182.356 181.214,182.310 182.803 L 182.225 185.694 165.418 185.768 L 148.610 185.843 148.324 186.662 C 147.946 187.747,146.373 189.513,145.283 190.077 C 143.339 191.082,144.777 191.179,163.873 191.329 L 182.225 191.474 182.310 194.364 C 182.356 195.954,182.321 197.547,182.232 197.905 L 182.070 198.555 165.385 198.568 L 148.699 198.581 147.977 200.073 C 147.465 201.130,146.844 201.843,145.850 202.517 C 145.078 203.040,144.492 203.498,144.549 203.535 C 144.606 203.572,153.107 203.670,163.439 203.752 L 182.225 203.902 182.225 207.370 L 182.225 210.838 166.074 210.913 L 149.922 210.988 148.010 210.084 C 143.989 208.184,140.029 208.883,137.243 211.984 C 136.204 213.141,135.773 212.724,135.605 210.399 C 135.392 207.453,136.828 204.903,139.286 203.863 L 140.318 203.427 139.451 202.980 C 134.402 200.380,134.193 193.494,139.089 191.072 L 140.234 190.505 139.120 189.932 C 134.241 187.423,134.467 179.798,139.473 177.987 L 140.393 177.655 139.015 176.968 C 136.164 175.547,134.614 171.309,135.984 168.681 C 136.222 168.226,136.416 167.697,136.416 167.507 C 136.416 166.869,138.780 165.003,140.041 164.645 C 141.437 164.248,144.378 164.650,145.566 165.400 M182.307 219.870 L 182.225 223.266 176.123 223.344 L 170.021 223.422 169.131 221.560 C 168.566 220.376,167.636 219.111,166.578 218.086 L 164.913 216.474 173.651 216.474 L 182.388 216.474 182.307 219.870 " stroke="none" fill="#2c5c46" fill-rule="evenodd"></path><path id="path2" d="M189.492 31.091 C 185.444 31.512,180.298 32.239,178.468 32.649 C 177.832 32.791,176.337 33.115,175.145 33.368 C 150.474 38.608,126.725 53.553,110.595 73.988 C 105.597 80.321,97.688 93.119,97.688 94.875 C 97.688 95.108,97.413 95.647,97.077 96.075 C 96.741 96.502,96.546 96.931,96.644 97.029 C 96.742 97.127,96.594 97.459,96.316 97.767 C 96.037 98.075,95.833 98.410,95.863 98.513 C 95.893 98.616,95.678 99.241,95.385 99.902 C 95.092 100.563,94.760 101.409,94.645 101.781 C 94.531 102.152,94.342 102.587,94.224 102.746 C 94.010 103.035,92.234 108.075,92.043 108.937 C 91.940 109.399,91.427 110.936,91.022 111.994 C 90.900 112.312,90.511 113.808,90.156 115.318 C 89.802 116.828,89.410 118.324,89.286 118.642 C 89.014 119.339,88.858 120.120,88.276 123.699 C 87.793 126.666,87.722 127.141,87.445 129.335 C 87.344 130.130,87.141 131.691,86.994 132.803 C 86.234 138.537,86.433 140.041,87.775 138.699 C 87.977 138.497,89.103 138.418,90.867 138.483 C 93.407 138.575,94.606 138.231,93.280 137.789 C 92.762 137.616,92.762 126.775,93.280 126.257 C 93.479 126.059,93.642 125.694,93.643 125.448 C 93.644 125.202,93.839 124.627,94.077 124.172 C 94.314 123.717,94.509 123.164,94.509 122.944 C 94.509 122.724,94.628 122.543,94.774 122.543 C 94.919 122.543,95.147 122.236,95.279 121.860 C 95.867 120.194,100.259 115.579,102.199 114.590 C 102.818 114.275,103.366 113.924,103.417 113.810 C 103.468 113.696,103.957 113.518,104.504 113.416 C 105.051 113.313,105.564 113.121,105.646 112.990 C 105.727 112.858,106.378 112.663,107.091 112.556 C 107.805 112.449,108.460 112.246,108.547 112.105 C 108.634 111.965,109.624 111.850,110.749 111.850 L 112.792 111.850 112.550 110.766 C 111.736 107.123,112.472 100.173,114.046 96.633 C 114.269 96.132,114.451 95.579,114.451 95.404 C 114.451 95.230,114.581 95.087,114.740 95.087 C 114.899 95.087,115.029 94.941,115.029 94.763 C 115.029 92.655,123.291 84.393,125.399 84.393 C 125.577 84.393,125.723 84.263,125.723 84.104 C 125.723 83.945,125.865 83.815,126.040 83.815 C 126.215 83.815,126.768 83.638,127.268 83.422 C 129.415 82.496,129.990 82.298,131.358 82.015 C 133.213 81.631,139.019 81.393,139.013 81.702 C 139.011 81.831,138.821 82.457,138.592 83.092 C 138.141 84.345,138.018 85.839,138.367 85.837 C 138.486 85.836,138.618 85.240,138.660 84.513 C 138.703 83.786,138.930 82.818,139.166 82.361 C 139.922 80.899,140.044 80.925,132.352 80.925 L 125.109 80.925 125.302 79.552 C 126.481 71.186,138.382 69.154,142.231 76.662 C 142.536 77.258,142.821 77.746,142.863 77.746 C 142.905 77.746,143.715 77.471,144.663 77.136 C 148.500 75.778,152.870 77.178,155.091 80.475 C 155.629 81.275,156.069 81.807,156.069 81.659 C 156.069 81.511,155.725 80.892,155.303 80.284 C 154.249 78.763,154.567 78.135,158.152 74.643 C 160.775 72.089,166.172 68.786,167.724 68.786 C 167.972 68.786,168.249 68.665,168.340 68.517 C 168.431 68.370,169.252 68.158,170.164 68.048 C 171.075 67.938,171.972 67.727,172.157 67.580 C 172.989 66.917,184.028 67.730,184.812 68.512 C 184.963 68.663,185.297 68.786,185.553 68.786 C 188.242 68.786,198.844 77.048,198.844 79.143 C 198.844 79.827,199.821 79.663,201.214 78.745 C 202.049 78.196,202.898 77.746,203.100 77.746 C 203.303 77.746,203.468 77.616,203.468 77.457 C 203.468 77.298,203.611 77.168,203.786 77.168 C 203.960 77.168,204.546 76.973,205.086 76.734 C 205.627 76.496,206.512 76.105,207.052 75.867 C 207.593 75.629,208.282 75.434,208.584 75.434 C 208.886 75.434,209.257 75.312,209.408 75.164 C 210.667 73.926,224.564 73.894,226.152 75.125 C 226.313 75.250,226.900 75.437,227.457 75.540 C 228.666 75.765,234.971 78.855,234.971 79.223 C 234.971 79.364,235.120 79.480,235.303 79.480 C 236.004 79.480,240.297 83.395,241.908 85.502 C 242.305 86.023,242.858 86.721,243.136 87.055 C 243.414 87.388,243.642 87.825,243.642 88.026 C 243.642 88.227,243.739 88.434,243.858 88.487 C 244.198 88.639,245.558 90.826,245.807 91.622 C 245.931 92.018,246.119 92.406,246.227 92.486 C 246.512 92.697,247.688 96.330,247.688 97.000 C 247.688 97.315,247.839 97.723,248.024 97.908 C 248.237 98.122,248.409 99.899,248.495 102.807 C 248.647 107.904,248.596 107.793,250.778 107.799 C 251.603 107.801,252.347 107.915,252.432 108.052 C 252.516 108.189,253.171 108.381,253.888 108.479 C 254.604 108.577,255.420 108.772,255.702 108.911 C 255.983 109.050,256.734 109.408,257.370 109.706 C 265.582 113.559,270.809 122.075,270.809 131.597 L 270.809 135.421 272.903 135.961 C 283.467 138.682,289.399 150.592,285.128 160.508 C 284.549 161.854,284.322 161.654,287.283 162.414 C 294.878 164.364,300.524 169.895,302.721 177.539 C 303.033 178.626,303.315 179.141,303.527 179.010 C 303.707 178.899,304.962 178.732,306.316 178.638 L 308.779 178.468 309.171 177.023 C 315.781 152.667,315.396 130.889,307.953 108.218 C 307.022 105.380,306.674 104.468,304.823 100.000 C 291.445 67.715,259.892 40.922,226.879 33.813 C 226.322 33.693,224.632 33.323,223.121 32.991 C 213.494 30.871,199.314 30.070,189.492 31.091 M156.229 82.445 C 156.335 82.724,156.532 83.635,156.667 84.468 L 156.912 85.983 156.796 84.280 C 156.733 83.343,156.535 82.433,156.358 82.257 C 156.121 82.021,156.087 82.071,156.229 82.445 M151.879 91.005 C 149.985 91.503,147.776 93.242,147.291 94.618 C 147.186 94.916,147.685 94.510,148.400 93.714 C 151.652 90.097,157.395 90.483,159.823 94.481 C 160.574 95.719,160.844 95.854,161.561 95.352 C 161.902 95.113,161.860 95.087,161.359 95.227 C 160.863 95.366,160.631 95.228,160.300 94.596 C 158.878 91.880,154.939 90.200,151.879 91.005 M162.528 94.730 C 162.344 94.847,163.145 94.942,164.306 94.942 C 165.468 94.942,166.269 94.847,166.085 94.730 C 165.902 94.613,165.101 94.518,164.306 94.518 C 163.512 94.518,162.711 94.613,162.528 94.730 M167.888 95.819 C 168.587 96.219,169.211 96.492,169.276 96.427 C 169.452 96.252,167.483 95.086,167.018 95.090 C 166.798 95.092,167.190 95.420,167.888 95.819 M146.743 95.573 C 146.432 96.116,146.245 97.944,146.486 98.093 C 146.630 98.182,146.817 97.639,146.902 96.887 C 147.056 95.534,147.005 95.117,146.743 95.573 M170.186 97.905 C 170.653 98.501,171.177 99.509,171.350 100.145 L 171.666 101.301 171.549 100.245 C 171.432 99.179,170.090 96.821,169.601 96.821 C 169.456 96.821,169.719 97.309,170.186 97.905 M157.365 99.154 C 157.091 100.403,157.355 100.493,157.728 99.277 C 157.899 98.721,157.931 98.266,157.799 98.266 C 157.668 98.266,157.473 98.665,157.365 99.154 M156.980 101.378 L 156.936 102.322 164.355 102.245 C 170.086 102.185,171.790 102.084,171.847 101.799 C 171.888 101.596,171.856 101.564,171.775 101.727 C 171.681 101.917,169.063 102.023,164.446 102.023 L 157.264 102.023 157.143 101.228 C 157.032 100.492,157.020 100.503,156.980 101.378 " stroke="none" fill="#44b49b" fill-rule="evenodd"></path><path id="path3" d="M196.243 98.894 C 194.925 99.269,193.949 100.024,189.595 104.039 C 187.608 105.871,185.841 107.500,185.667 107.659 C 185.493 107.818,183.803 109.387,181.910 111.147 C 177.067 115.649,175.825 116.763,175.650 116.763 C 175.566 116.763,175.446 114.910,175.382 112.645 C 175.239 107.554,174.619 106.358,172.124 106.358 L 171.387 106.358 171.363 113.512 L 171.338 120.665 170.207 121.638 L 169.075 122.610 169.075 115.517 L 169.075 108.423 168.102 107.391 C 167.388 106.634,166.887 106.358,166.223 106.358 L 165.318 106.358 165.318 116.229 L 165.318 126.100 164.090 127.234 L 162.861 128.369 162.791 118.447 C 162.710 106.920,162.566 106.358,159.696 106.358 L 158.960 106.358 158.953 119.147 L 158.947 131.936 156.858 134.111 C 155.709 135.308,153.006 137.909,150.852 139.892 C 148.698 141.875,145.320 144.993,143.346 146.821 C 141.373 148.649,138.453 151.351,136.859 152.825 C 132.270 157.067,131.257 160.112,133.123 164.056 C 134.286 166.515,134.396 166.500,137.628 163.439 C 138.803 162.327,141.116 160.181,142.767 158.671 C 144.418 157.160,146.689 155.066,147.813 154.015 C 148.936 152.965,150.555 151.470,151.409 150.692 C 152.264 149.914,153.582 148.692,154.340 147.977 C 155.097 147.262,156.869 145.617,158.277 144.323 C 159.686 143.028,161.305 141.532,161.876 140.999 C 162.447 140.465,164.398 138.663,166.210 136.994 C 169.064 134.366,170.486 133.042,174.589 129.191 C 175.012 128.793,176.573 127.363,178.058 126.012 C 181.087 123.255,185.377 119.282,186.305 118.373 C 193.496 111.336,195.685 109.827,198.699 109.827 C 202.010 109.827,201.721 109.617,213.275 120.393 C 214.478 121.515,216.232 123.141,217.173 124.006 C 218.113 124.871,219.231 125.903,219.657 126.301 C 220.083 126.698,221.199 127.732,222.138 128.598 C 223.076 129.464,224.689 130.960,225.723 131.923 C 226.756 132.886,228.948 134.909,230.595 136.418 C 232.241 137.927,234.134 139.682,234.801 140.318 C 235.468 140.954,237.362 142.710,239.010 144.220 C 240.659 145.730,242.357 147.290,242.784 147.688 C 243.211 148.085,244.326 149.115,245.263 149.975 C 246.199 150.836,247.882 152.397,249.003 153.444 C 250.123 154.490,252.014 156.257,253.205 157.370 C 254.396 158.483,256.145 160.092,257.093 160.946 C 258.040 161.800,259.625 163.274,260.615 164.220 C 261.708 165.266,262.612 165.903,262.919 165.844 C 263.859 165.663,265.101 162.688,265.101 160.619 C 265.101 157.091,264.475 156.278,255.483 148.121 C 254.607 147.327,252.202 145.103,250.139 143.181 C 248.075 141.259,245.546 138.918,244.518 137.979 C 241.509 135.232,238.595 132.549,238.438 132.381 C 238.273 132.204,236.092 130.190,231.073 125.578 C 229.171 123.829,226.505 121.358,225.150 120.087 C 223.796 118.815,221.129 116.344,219.224 114.595 C 217.319 112.847,214.717 110.441,213.442 109.249 C 201.332 97.932,200.787 97.603,196.243 98.894 M212.367 110.030 C 213.242 110.777,214.499 111.915,215.159 112.559 C 215.820 113.202,217.152 114.444,218.119 115.318 C 219.086 116.192,220.884 117.818,222.115 118.931 C 227.081 123.420,228.413 124.767,228.209 125.097 C 227.847 125.683,227.308 125.469,225.967 124.205 C 224.410 122.739,222.838 121.296,218.799 117.629 C 217.137 116.119,215.511 114.623,215.186 114.303 C 214.861 113.982,213.522 112.766,212.211 111.598 C 208.916 108.666,209.061 107.206,212.367 110.030 M184.682 111.867 C 184.682 112.175,184.585 112.430,184.465 112.432 C 184.346 112.434,183.523 113.117,182.637 113.949 C 180.136 116.298,175.427 120.610,174.004 121.854 C 173.298 122.471,172.316 123.367,171.823 123.844 C 169.432 126.154,167.204 128.035,166.858 128.035 C 166.187 128.035,166.444 126.944,167.267 126.297 C 167.704 125.953,169.345 124.481,170.914 123.024 C 172.483 121.568,174.118 120.051,174.548 119.653 C 174.977 119.256,176.485 117.890,177.899 116.618 C 179.313 115.347,180.931 113.851,181.495 113.295 C 183.801 111.020,184.682 110.625,184.682 111.867 M196.185 119.292 C 195.040 120.365,193.711 121.633,193.233 122.110 L 192.363 122.977 198.536 123.055 C 205.536 123.144,205.437 123.167,203.891 121.769 C 203.261 121.200,201.944 119.970,200.964 119.037 C 198.743 116.922,198.713 116.924,196.185 119.292 M223.732 126.012 C 225.211 127.363,227.207 129.197,228.167 130.087 C 229.128 130.978,230.425 132.148,231.050 132.689 C 231.675 133.229,232.718 134.191,233.368 134.827 C 234.018 135.462,235.360 136.685,236.350 137.543 C 237.347 138.407,238.150 139.343,238.150 139.639 C 238.150 140.793,237.459 140.336,233.092 136.290 C 231.503 134.817,228.778 132.325,227.037 130.751 C 225.296 129.178,223.531 127.565,223.116 127.168 C 222.701 126.770,221.752 125.904,221.007 125.243 C 219.617 124.010,219.382 123.556,220.014 123.328 C 220.539 123.139,220.767 123.303,223.732 126.012 M183.880 130.696 C 179.755 134.503,178.923 135.350,179.072 135.590 C 179.259 135.894,218.025 135.925,218.329 135.621 C 218.448 135.502,217.007 133.945,215.126 132.161 L 211.705 128.917 198.764 128.909 L 185.824 128.902 183.880 130.696 M200.645 130.925 L 201.265 131.503 198.682 131.496 L 196.098 131.490 196.821 130.925 C 197.807 130.153,199.816 130.153,200.645 130.925 M171.243 142.388 C 167.224 146.057,165.353 147.916,165.516 148.079 C 165.796 148.359,231.297 148.296,231.740 148.015 C 232.027 147.833,231.884 147.575,231.162 146.970 C 230.634 146.528,229.043 145.078,227.627 143.748 L 225.052 141.329 198.725 141.331 L 172.399 141.332 171.243 142.388 M196.314 143.714 C 196.693 144.744,196.334 144.798,189.087 144.798 L 181.980 144.798 182.659 144.075 L 183.338 143.353 189.759 143.353 C 194.633 143.353,196.213 143.440,196.314 143.714 M154.913 144.196 C 154.913 144.500,154.798 144.793,154.658 144.846 C 154.517 144.899,153.069 146.178,151.440 147.688 C 149.810 149.198,148.332 150.564,148.155 150.723 C 146.333 152.356,141.502 156.801,140.343 157.910 C 137.917 160.231,137.095 160.779,136.520 160.457 C 136.069 160.205,136.124 160.073,137.036 159.206 C 139.344 157.013,146.165 150.778,148.250 148.956 C 148.957 148.338,149.941 147.442,150.439 146.965 C 153.952 143.597,154.913 143.002,154.913 144.196 M86.200 150.434 C 86.203 151.069,86.262 151.295,86.332 150.936 C 86.401 150.576,86.398 150.056,86.326 149.780 C 86.253 149.504,86.197 149.798,86.200 150.434 M157.128 155.433 C 153.882 158.488,152.177 160.064,151.373 160.753 C 150.936 161.128,150.578 161.593,150.578 161.787 C 150.578 162.062,161.066 162.139,198.699 162.139 C 238.327 162.139,246.821 162.071,246.821 161.758 C 246.821 161.548,245.816 160.475,244.588 159.373 C 243.359 158.272,241.463 156.557,240.374 155.564 L 238.394 153.757 198.652 153.757 L 158.910 153.757 157.128 155.433 M218.497 155.925 C 218.497 156.303,216.940 156.358,206.214 156.358 C 195.488 156.358,193.931 156.303,193.931 155.925 C 193.931 155.546,195.488 155.491,206.214 155.491 C 216.940 155.491,218.497 155.546,218.497 155.925 M188.095 159.899 C 188.187 160.374,187.483 160.405,176.560 160.405 C 165.033 160.405,164.933 160.400,165.484 159.842 C 166.302 159.013,187.935 159.068,188.095 159.899 M232.081 160.120 L 232.803 160.690 227.769 160.619 C 224.247 160.570,222.702 160.448,222.623 160.212 C 222.330 159.329,230.970 159.245,232.081 160.120 M140.041 164.645 C 138.875 164.976,136.416 166.858,136.416 167.420 C 136.416 167.562,137.020 167.148,137.757 166.499 C 140.136 164.405,143.132 164.203,145.730 165.961 C 149.802 168.718,149.318 174.727,144.841 177.002 L 143.505 177.681 144.513 178.103 C 149.824 180.328,149.823 187.822,144.510 190.065 L 143.501 190.492 144.799 191.073 C 149.792 193.307,149.806 200.487,144.822 202.735 C 143.590 203.290,143.282 203.756,144.147 203.758 C 146.115 203.763,148.713 207.069,148.501 209.297 C 148.336 211.020,148.335 211.020,166.329 210.923 L 182.225 210.838 182.225 207.370 L 182.225 203.902 163.439 203.752 C 153.107 203.670,144.606 203.572,144.549 203.535 C 144.492 203.498,145.078 203.040,145.850 202.517 C 146.844 201.843,147.465 201.130,147.977 200.073 L 148.699 198.581 165.385 198.568 L 182.070 198.555 182.232 197.905 C 182.321 197.547,182.356 195.954,182.310 194.364 L 182.225 191.474 163.873 191.329 C 144.777 191.179,143.339 191.082,145.283 190.077 C 146.373 189.513,147.946 187.747,148.324 186.662 L 148.610 185.843 165.418 185.768 L 182.225 185.694 182.310 182.803 C 182.356 181.214,182.321 179.621,182.232 179.263 L 182.070 178.613 164.217 178.613 C 147.276 178.613,146.310 178.585,145.293 178.066 C 144.304 177.562,144.271 177.506,144.870 177.356 C 145.802 177.122,147.786 175.170,148.254 174.026 C 148.650 173.061,148.667 173.054,150.122 173.229 C 150.929 173.326,156.954 173.407,163.512 173.408 L 175.434 173.410 175.434 174.451 C 175.434 175.241,175.649 175.692,176.331 176.329 L 177.229 177.168 197.110 177.168 L 216.991 177.168 217.889 176.329 C 218.571 175.692,218.786 175.241,218.786 174.451 L 218.786 173.410 232.037 173.410 C 239.325 173.410,246.269 173.328,247.467 173.226 L 249.646 173.042 250.126 174.052 C 250.742 175.352,252.076 176.711,253.186 177.171 L 254.060 177.533 253.258 178.000 C 252.548 178.415,250.243 178.485,233.092 178.613 L 213.728 178.757 213.728 182.225 L 213.728 185.694 231.717 185.838 L 249.706 185.983 250.391 187.283 C 250.767 187.999,251.675 189.036,252.408 189.589 C 254.528 191.187,254.714 191.170,233.237 191.329 L 213.728 191.474 213.644 194.364 C 213.597 195.954,213.632 197.547,213.722 197.905 L 213.884 198.555 231.742 198.555 L 249.600 198.555 250.081 199.639 C 250.672 200.970,251.754 202.158,252.926 202.764 C 254.488 203.572,253.739 203.610,233.574 203.757 L 213.728 203.902 213.728 207.370 L 213.728 210.838 231.720 210.913 C 245.936 210.971,249.711 211.063,249.711 211.350 C 249.711 212.586,251.600 215.040,253.142 215.807 C 254.165 216.316,253.685 216.331,233.878 216.404 L 213.566 216.478 213.647 219.872 L 213.728 223.266 231.683 223.340 L 249.638 223.415 249.813 224.510 C 250.092 226.253,252.716 228.932,254.104 228.890 C 254.311 228.884,254.078 228.704,253.587 228.490 C 248.548 226.297,248.720 218.394,253.844 216.686 L 255.014 216.296 253.695 215.676 C 248.567 213.266,248.659 205.183,253.829 203.893 C 254.857 203.636,254.835 203.337,253.755 202.889 C 248.278 200.621,248.813 191.952,254.508 190.689 C 254.944 190.592,254.849 190.476,254.046 190.125 C 248.448 187.679,248.418 180.295,253.997 178.045 L 254.959 177.657 253.918 177.175 C 247.388 174.155,249.227 164.908,256.358 164.905 C 258.469 164.904,259.726 165.426,261.103 166.878 C 261.571 167.371,261.846 167.579,261.714 167.341 C 259.672 163.646,254.106 163.450,251.002 166.965 L 250.415 167.630 199.165 167.630 L 147.916 167.630 147.332 166.888 C 145.890 165.055,142.389 163.978,140.041 164.645 M140.616 166.670 C 138.067 167.387,136.612 170.709,137.803 173.096 C 140.448 178.395,148.147 175.361,146.466 169.681 C 145.800 167.431,143.012 165.995,140.616 166.670 M254.465 166.865 C 250.731 168.559,250.913 174.121,254.751 175.587 C 259.922 177.561,263.404 170.584,258.909 167.255 C 257.933 166.532,255.641 166.331,254.465 166.865 M180.636 169.653 C 180.636 170.222,180.443 170.231,168.353 170.231 C 156.262 170.231,156.069 170.222,156.069 169.653 C 156.069 169.084,156.262 169.075,168.353 169.075 C 180.443 169.075,180.636 169.084,180.636 169.653 M217.644 172.140 C 218.623 173.119,218.710 174.865,217.831 175.887 L 217.102 176.734 197.110 176.734 L 177.118 176.734 176.420 175.923 C 175.289 174.608,175.665 172.525,177.173 171.755 C 178.611 171.021,216.889 171.385,217.644 172.140 M139.645 179.983 C 135.608 182.601,137.274 188.566,142.042 188.562 C 144.790 188.560,146.656 186.698,146.656 183.960 C 146.656 180.175,142.758 177.965,139.645 179.983 M254.351 179.799 C 251.939 180.762,250.917 184.638,252.498 186.823 C 253.872 188.720,257.360 189.285,259.126 187.895 C 263.550 184.416,259.592 177.706,254.351 179.799 M175.434 180.749 C 175.434 181.459,174.716 181.503,163.150 181.503 C 151.584 181.503,150.867 181.459,150.867 180.749 C 150.867 180.412,152.844 180.347,163.150 180.347 C 173.457 180.347,175.434 180.412,175.434 180.749 M242.486 183.351 C 242.486 184.060,241.768 184.104,230.202 184.104 C 218.636 184.104,217.919 184.060,217.919 183.351 C 217.919 183.013,219.896 182.948,230.202 182.948 C 240.509 182.948,242.486 183.013,242.486 183.351 M141.474 192.123 C 139.989 192.369,139.633 192.526,138.896 193.263 C 134.969 197.191,139.548 203.519,144.342 200.790 C 148.757 198.278,146.447 191.301,141.474 192.123 M254.387 192.666 C 252.147 193.809,251.118 196.737,252.175 198.964 C 254.309 203.460,260.983 201.946,260.983 196.965 C 260.983 193.547,257.330 191.166,254.387 192.666 M249.133 193.208 C 249.133 193.587,247.575 193.642,236.850 193.642 C 226.124 193.642,224.566 193.587,224.566 193.208 C 224.566 192.830,226.124 192.775,236.850 192.775 C 247.575 192.775,249.133 192.830,249.133 193.208 M180.003 193.569 C 179.912 194.042,179.091 194.075,167.630 194.075 C 156.169 194.075,155.348 194.042,155.257 193.569 C 155.166 193.094,155.909 193.064,167.630 193.064 C 179.351 193.064,180.094 193.094,180.003 193.569 M140.652 205.043 C 138.403 205.851,137.128 207.828,137.381 210.116 C 137.486 211.064,137.394 211.576,137.043 212.008 C 136.778 212.334,136.892 212.264,137.296 211.853 C 139.751 209.360,143.436 208.344,146.305 209.368 C 147.367 209.747,147.374 209.745,146.955 209.147 C 146.722 208.814,146.532 208.321,146.532 208.050 C 146.532 206.112,142.877 204.242,140.652 205.043 M254.639 205.317 C 251.770 206.354,250.820 210.459,252.900 212.829 C 255.691 216.007,261.031 213.941,261.031 209.682 C 261.031 206.331,257.849 204.158,254.639 205.317 M239.854 205.467 C 240.076 205.607,240.178 205.930,240.080 206.185 C 239.786 206.951,215.607 206.884,215.607 206.118 C 215.607 205.826,215.694 205.501,215.800 205.395 C 216.091 205.103,239.390 205.173,239.854 205.467 M173.988 206.069 C 173.988 206.638,173.796 206.647,161.705 206.647 C 149.615 206.647,149.422 206.638,149.422 206.069 C 149.422 205.500,149.615 205.491,161.705 205.491 C 173.796 205.491,173.988 205.500,173.988 206.069 M166.578 218.086 C 167.636 219.111,168.566 220.376,169.131 221.560 L 170.021 223.422 176.123 223.344 L 182.225 223.266 182.307 219.870 L 182.388 216.474 173.651 216.474 L 164.913 216.474 166.578 218.086 M254.046 218.525 C 249.747 221.045,251.823 227.519,256.798 227.107 C 259.963 226.844,261.730 224.193,260.809 221.090 C 259.970 218.265,256.643 217.003,254.046 218.525 M248.266 218.642 C 248.266 219.020,246.708 219.075,235.983 219.075 C 225.257 219.075,223.699 219.020,223.699 218.642 C 223.699 218.263,225.257 218.208,235.983 218.208 C 246.708 218.208,248.266 218.263,248.266 218.642 " stroke="none" fill="#95591b" fill-rule="evenodd"></path><path id="path4" d="M131.096 72.406 C 128.063 73.555,125.744 76.415,125.302 79.552 L 125.109 80.925 132.352 80.925 C 140.012 80.925,139.919 80.906,139.189 82.318 C 138.965 82.750,138.738 83.687,138.683 84.399 L 138.584 85.694 147.656 85.770 L 156.729 85.846 156.562 84.224 C 156.007 78.845,149.979 75.254,144.663 77.136 C 143.715 77.471,142.905 77.746,142.863 77.746 C 142.821 77.746,142.536 77.258,142.231 76.662 C 140.323 72.939,135.028 70.916,131.096 72.406 M150.640 91.796 C 148.516 92.875,146.821 95.442,146.821 97.579 L 146.821 98.266 152.444 98.266 L 158.067 98.266 157.646 99.458 C 157.415 100.114,157.225 100.960,157.225 101.337 L 157.225 102.023 164.451 102.023 C 168.425 102.023,171.676 101.951,171.676 101.862 C 171.676 97.388,166.488 93.781,162.112 95.213 C 161.285 95.483,160.530 95.589,160.434 95.449 C 160.338 95.308,159.968 94.731,159.610 94.167 C 158.031 91.673,153.328 90.431,150.640 91.796 " stroke="none" fill="#eaebeb" fill-rule="evenodd"></path></g></svg>