<svg id="svg" version="1.1" xmlns="http://www.w3.org/2000/svg" xmlns:xlink="http://www.w3.org/1999/xlink" width="400" height="288.8888888888889" viewBox="0, 0, 400,288.8888888888889"><g id="svgg"><path id="path0" d="M191.040 31.078 C 183.751 31.703,178.548 32.580,171.387 34.393 C 160.327 37.194,148.717 42.226,139.162 48.363 C 119.276 61.133,104.429 78.667,95.191 100.289 C 94.953 100.845,94.638 101.561,94.490 101.879 C 94.001 102.932,92.759 106.458,91.742 109.682 C 90.169 114.668,90.331 114.068,88.711 120.954 C 88.407 122.247,87.533 127.617,86.946 131.792 C 86.408 135.623,86.418 153.104,86.960 157.225 C 87.564 161.814,89.004 169.934,89.573 171.965 C 89.729 172.522,90.072 173.757,90.334 174.711 C 91.792 180.009,93.573 185.114,95.376 189.162 C 95.517 189.480,95.916 190.390,96.261 191.185 C 99.798 199.323,107.209 211.233,112.447 217.197 C 119.199 224.885,124.756 230.267,130.058 234.254 C 131.091 235.031,132.001 235.738,132.081 235.825 C 132.766 236.573,140.573 241.685,143.786 243.489 C 148.869 246.342,156.943 250.050,161.416 251.588 C 162.211 251.861,163.121 252.191,163.439 252.322 C 163.757 252.453,164.993 252.839,166.185 253.180 C 167.377 253.521,168.678 253.911,169.075 254.046 C 171.302 254.802,178.346 256.295,183.960 257.200 C 192.628 258.598,207.779 258.611,215.896 257.229 C 220.903 256.376,224.561 255.702,225.578 255.444 C 227.530 254.950,229.869 254.329,230.780 254.064 C 231.257 253.925,232.623 253.530,233.815 253.186 C 235.007 252.842,236.243 252.452,236.561 252.320 C 236.879 252.188,237.984 251.785,239.017 251.426 C 248.356 248.177,258.794 242.525,268.189 235.632 C 290.537 219.233,306.392 193.733,311.829 165.441 C 314.152 153.355,314.152 135.663,311.829 123.576 C 308.175 104.562,298.787 84.529,287.596 71.864 C 281.177 64.599,279.877 63.269,275.000 58.979 C 261.547 47.145,246.350 39.113,228.179 34.236 C 217.230 31.297,202.807 30.071,191.040 31.078 M247.185 60.236 C 250.747 61.701,250.957 62.024,255.860 73.564 C 260.997 85.655,260.491 82.411,260.679 104.480 C 260.766 114.812,260.744 123.721,260.628 124.277 C 260.513 124.834,260.415 146.137,260.412 171.618 C 260.405 213.707,260.362 218.032,259.937 218.873 C 258.677 221.366,257.019 222.254,253.624 222.254 L 251.156 222.254 251.156 226.012 L 251.156 229.769 242.197 229.769 L 233.237 229.769 233.237 226.012 L 233.237 222.254 199.711 222.254 L 166.185 222.254 166.185 226.012 L 166.185 229.769 157.379 229.769 L 148.572 229.769 148.491 226.084 L 148.410 222.399 145.520 222.254 C 141.783 222.067,140.450 221.355,139.196 218.873 C 138.392 217.283,138.490 89.489,139.298 85.907 C 140.006 82.762,140.899 80.359,143.324 75.063 C 143.776 74.075,144.674 72.030,145.318 70.520 C 148.306 63.523,149.091 62.248,151.256 60.876 C 153.385 59.527,151.462 59.579,199.855 59.565 L 245.520 59.551 247.185 60.236 M197.392 103.829 C 195.331 105.226,195.423 104.214,195.504 124.491 L 195.576 142.702 194.315 143.315 C 192.013 144.434,188.439 148.403,188.439 149.842 C 188.439 150.239,186.882 150.289,174.422 150.289 C 166.712 150.289,160.405 150.361,160.405 150.448 C 160.405 150.648,166.457 157.868,166.882 158.175 C 167.055 158.300,169.798 158.330,172.977 158.243 C 176.156 158.156,180.818 158.184,183.336 158.305 L 187.915 158.526 188.745 160.096 C 189.796 162.085,192.145 164.475,193.916 165.358 L 195.286 166.040 195.493 171.087 C 195.606 173.863,195.613 179.521,195.507 183.660 C 195.402 187.799,195.427 191.470,195.562 191.818 C 195.838 192.525,203.491 201.691,203.827 201.717 C 203.945 201.727,204.075 193.776,204.116 184.049 L 204.191 166.364 205.629 165.624 C 207.556 164.634,210.090 162.076,211.119 160.083 L 211.957 158.460 216.600 158.312 C 219.154 158.230,227.429 158.232,234.989 158.315 C 250.439 158.485,249.603 158.589,251.041 156.311 C 251.703 155.263,252.031 152.890,251.514 152.890 C 251.392 152.890,251.165 152.601,251.008 152.247 C 250.851 151.893,250.281 151.308,249.740 150.946 L 248.758 150.289 230.203 150.289 L 211.648 150.289 211.099 149.064 C 210.100 146.837,208.048 144.695,205.880 143.615 C 204.792 143.073,203.824 142.524,203.729 142.395 C 203.634 142.266,203.589 134.088,203.629 124.221 C 203.697 107.657,203.664 106.213,203.202 105.381 C 202.468 104.062,201.010 103.179,199.566 103.179 C 198.783 103.179,198.010 103.410,197.392 103.829 " stroke="none" fill="#c9b76e" fill-rule="evenodd"></path><path id="path1" d="M153.692 59.798 C 153.420 59.893,157.438 59.932,162.622 59.884 L 172.048 59.797 175.255 62.918 C 187.702 75.033,198.110 85.387,198.049 85.593 C 198.009 85.728,211.288 85.838,227.558 85.838 L 257.139 85.838 258.329 86.700 C 258.983 87.174,259.786 88.052,260.114 88.651 L 260.709 89.740 260.523 87.861 C 260.239 84.990,259.447 82.062,258.193 79.250 C 257.818 78.409,256.397 75.092,255.036 71.880 C 251.669 63.936,251.343 63.283,250.239 62.258 C 248.390 60.543,247.164 60.032,244.653 59.930 C 240.247 59.750,154.185 59.626,153.692 59.798 M151.862 60.535 C 151.320 60.939,151.324 60.948,151.955 60.789 C 152.316 60.698,152.681 60.510,152.767 60.370 C 153.012 59.974,152.483 60.071,151.862 60.535 M121.807 61.633 L 120.665 62.861 121.893 61.719 C 123.035 60.656,123.254 60.405,123.036 60.405 C 122.988 60.405,122.436 60.957,121.807 61.633 M148.317 63.843 C 147.971 64.459,147.689 65.075,147.691 65.213 C 147.693 65.350,148.021 64.891,148.421 64.193 C 148.820 63.494,149.102 62.878,149.047 62.823 C 148.992 62.768,148.663 63.227,148.317 63.843 M116.894 66.546 L 115.751 67.775 116.980 66.632 C 118.122 65.570,118.341 65.318,118.122 65.318 C 118.075 65.318,117.522 65.871,116.894 66.546 M146.146 68.545 C 145.723 69.526,145.423 70.375,145.479 70.430 C 145.535 70.486,145.936 69.739,146.371 68.770 C 146.806 67.801,147.107 66.953,147.039 66.885 C 146.971 66.817,146.570 67.564,146.146 68.545 M139.761 83.691 C 139.654 84.115,139.632 84.526,139.712 84.606 C 139.791 84.685,139.943 84.404,140.050 83.980 C 140.156 83.557,140.178 83.145,140.098 83.066 C 140.019 82.986,139.867 83.268,139.761 83.691 M138.900 87.808 C 138.644 89.510,138.731 89.875,139.167 88.924 C 139.326 88.578,139.383 87.840,139.294 87.283 C 139.136 86.305,139.124 86.322,138.900 87.808 M138.733 171.460 L 138.738 217.486 139.383 218.614 C 140.702 220.919,141.836 221.504,145.235 221.630 C 147.711 221.721,148.258 221.824,148.362 222.214 C 148.471 222.626,148.492 222.622,148.521 222.182 C 148.565 221.527,166.181 221.383,166.189 222.038 C 166.193 222.325,166.240 222.326,166.422 222.039 C 166.601 221.757,172.457 221.663,193.483 221.606 L 220.316 221.532 219.525 220.592 L 218.735 219.653 180.780 219.653 L 142.826 219.653 142.078 218.764 L 141.329 217.875 141.329 173.198 L 141.329 128.521 140.164 126.977 C 139.523 126.128,138.938 125.434,138.863 125.434 C 138.789 125.434,138.730 146.145,138.733 171.460 M203.757 132.341 C 203.757 132.757,203.997 132.988,204.552 133.107 C 210.132 134.301,215.762 138.785,218.110 143.907 C 218.517 144.794,218.950 145.720,219.071 145.965 C 219.193 146.209,219.385 146.957,219.498 147.627 C 219.739 149.048,220.809 149.457,220.809 148.127 C 220.809 144.045,215.116 136.535,210.049 133.935 C 206.666 132.199,203.757 131.462,203.757 132.341 M193.353 132.431 C 188.722 134.426,186.993 135.554,184.488 138.214 C 181.033 141.884,177.943 148.844,179.769 148.844 C 180.089 148.844,180.347 148.651,180.347 148.412 C 180.347 143.410,187.398 135.578,193.657 133.627 C 194.890 133.242,195.371 132.951,195.373 132.587 C 195.376 132.007,194.496 131.939,193.353 132.431 M147.695 172.304 L 147.688 208.626 148.627 209.851 C 150.534 212.339,147.713 212.151,181.957 212.068 L 212.283 211.994 211.228 210.910 L 210.173 209.827 182.387 209.827 C 151.425 209.827,153.237 209.942,151.803 207.882 C 150.582 206.130,150.578 206.045,150.578 181.621 L 150.578 158.125 149.967 157.697 C 148.284 156.518,147.770 153.905,148.872 152.122 C 149.884 150.484,150.593 150.289,155.527 150.289 L 159.927 150.289 159.231 149.548 C 158.543 148.816,158.486 148.807,154.629 148.872 L 150.723 148.937 150.578 144.030 L 150.434 139.123 149.068 137.553 L 147.702 135.983 147.695 172.304 M313.657 138.006 C 313.660 138.642,313.719 138.868,313.788 138.508 C 313.857 138.149,313.855 137.628,313.782 137.352 C 313.710 137.076,313.653 137.370,313.657 138.006 M86.206 138.439 C 86.206 139.155,86.262 139.447,86.331 139.090 C 86.400 138.732,86.400 138.147,86.331 137.789 C 86.262 137.431,86.206 137.724,86.206 138.439 M86.206 150.578 C 86.206 151.293,86.262 151.586,86.331 151.228 C 86.400 150.871,86.400 150.285,86.331 149.928 C 86.262 149.570,86.206 149.863,86.206 150.578 M313.663 150.867 C 313.663 151.582,313.719 151.875,313.788 151.517 C 313.857 151.160,313.857 150.574,313.788 150.217 C 313.719 149.859,313.663 150.152,313.663 150.867 M179.595 158.842 C 179.692 159.095,179.854 159.631,179.954 160.032 C 180.897 163.789,185.865 169.483,190.065 171.622 C 193.262 173.250,195.377 173.761,195.373 172.905 C 195.371 172.541,194.890 172.249,193.657 171.865 C 188.151 170.149,183.220 165.391,181.103 159.754 C 180.722 158.738,180.436 158.382,180.003 158.382 C 179.587 158.382,179.469 158.514,179.595 158.842 M219.128 159.321 C 216.527 165.788,209.501 172.254,205.075 172.254 C 204.479 172.254,204.335 172.394,204.335 172.977 C 204.335 173.848,204.208 173.841,206.429 173.081 C 212.302 171.072,217.217 166.716,219.427 161.561 C 220.717 158.553,220.749 158.382,220.013 158.382 C 219.710 158.382,219.353 158.761,219.128 159.321 M174.018 167.486 C 175.743 170.537,179.201 174.592,181.358 176.095 C 182.437 176.846,182.941 177.487,176.301 169.661 C 175.585 168.818,174.632 167.723,174.182 167.229 L 173.364 166.329 174.018 167.486 M233.351 225.867 C 233.351 228.092,233.397 228.965,233.452 227.805 C 233.507 226.646,233.506 224.825,233.451 223.759 C 233.396 222.693,233.351 223.642,233.351 225.867 M250.980 226.012 C 250.980 228.158,251.026 229.035,251.081 227.962 C 251.137 226.889,251.137 225.134,251.081 224.061 C 251.026 222.988,250.980 223.866,250.980 226.012 M191.691 258.292 C 191.969 258.364,192.424 258.364,192.702 258.292 C 192.980 258.219,192.753 258.160,192.197 258.160 C 191.640 258.160,191.413 258.219,191.691 258.292 M207.298 258.292 C 207.576 258.364,208.031 258.364,208.309 258.292 C 208.587 258.219,208.360 258.160,207.803 258.160 C 207.247 258.160,207.020 258.219,207.298 258.292 " stroke="none" fill="#7b7b7c" fill-rule="evenodd"></path><path id="path2" d="M153.757 60.020 C 150.551 61.114,146.821 65.254,146.821 67.718 C 146.821 67.803,146.227 69.151,145.502 70.714 C 144.777 72.276,144.070 73.815,143.931 74.133 C 143.792 74.451,143.300 75.556,142.838 76.590 C 140.236 82.408,138.161 89.755,139.708 87.668 C 141.161 85.709,139.031 85.838,170.000 85.838 C 185.334 85.838,197.965 85.754,198.067 85.651 C 198.224 85.495,188.366 75.672,175.129 62.794 L 172.078 59.827 163.134 59.849 C 158.215 59.862,153.996 59.939,153.757 60.020 M313.362 133.237 C 313.362 133.793,313.421 134.021,313.494 133.743 C 313.567 133.465,313.567 133.009,313.494 132.731 C 313.421 132.453,313.362 132.681,313.362 133.237 M313.362 155.780 C 313.362 156.337,313.421 156.564,313.494 156.286 C 313.567 156.008,313.567 155.553,313.494 155.275 C 313.421 154.996,313.362 155.224,313.362 155.780 M148.555 225.723 L 148.555 229.769 157.370 229.769 L 166.185 229.769 166.185 225.723 L 166.185 221.676 157.370 221.676 L 148.555 221.676 148.555 225.723 M233.526 225.867 L 233.526 229.769 242.181 229.769 L 250.836 229.769 250.924 225.867 L 251.012 221.964 242.269 221.965 L 233.526 221.965 233.526 225.867 " stroke="none" fill="#606060" fill-rule="evenodd"></path><path id="path3" d="M0.000 144.509 L 0.000 289.017 200.000 289.017 L 400.000 289.017 400.000 144.509 L 400.000 0.000 200.000 0.000 L 0.000 0.000 0.000 144.509 M213.728 31.199 C 214.841 31.385,216.987 31.730,218.497 31.967 C 221.474 32.433,223.991 32.958,227.601 33.864 C 228.873 34.183,230.434 34.570,231.069 34.724 C 233.167 35.231,240.281 37.675,242.385 38.612 C 242.886 38.835,243.364 39.017,243.448 39.017 C 243.532 39.017,244.488 39.419,245.572 39.909 C 262.257 47.459,275.960 57.679,287.004 70.809 C 287.873 71.842,288.657 72.753,288.747 72.832 C 290.389 74.290,300.000 88.806,300.000 89.830 C 300.000 89.992,300.102 90.169,300.226 90.222 C 300.456 90.319,303.182 95.771,304.321 98.410 C 304.664 99.205,305.064 100.116,305.209 100.434 C 306.238 102.681,308.442 108.938,309.385 112.283 C 309.653 113.237,309.984 114.342,310.121 114.740 C 310.257 115.137,310.452 115.918,310.555 116.474 C 310.657 117.030,310.856 117.876,310.996 118.353 C 311.553 120.253,312.640 126.321,313.352 131.503 C 314.232 137.921,313.681 159.734,312.560 162.806 C 312.491 162.995,312.303 163.996,312.142 165.029 C 311.670 168.069,310.151 174.554,309.300 177.168 C 307.180 183.670,306.231 186.318,305.206 188.584 C 305.063 188.902,304.664 189.812,304.321 190.607 C 303.182 193.247,300.456 198.698,300.226 198.796 C 300.102 198.849,300.000 199.025,300.000 199.188 C 300.000 200.220,290.270 214.903,288.737 216.185 C 288.642 216.264,288.265 216.720,287.899 217.197 C 278.306 229.713,260.242 243.087,243.786 249.855 C 242.355 250.444,240.925 251.038,240.607 251.175 C 239.722 251.558,235.861 252.894,234.321 253.351 C 233.566 253.574,232.265 253.960,231.431 254.208 C 230.070 254.612,228.733 254.945,225.000 255.812 C 221.646 256.591,218.742 257.098,213.295 257.855 C 209.508 258.382,190.859 258.379,186.705 257.851 C 177.690 256.706,163.866 253.320,159.393 251.162 C 159.075 251.009,158.148 250.628,157.334 250.315 C 150.732 247.786,141.452 242.736,134.678 237.987 C 117.575 225.996,104.375 209.977,95.756 190.751 C 95.364 189.877,94.858 188.752,94.632 188.251 C 94.405 187.750,94.220 187.158,94.220 186.936 C 94.220 186.714,94.111 186.408,93.978 186.257 C 93.644 185.878,91.979 181.266,90.801 177.457 C 84.923 158.449,84.524 135.293,89.733 115.482 C 91.002 110.656,93.429 103.383,93.978 102.760 C 94.111 102.609,94.220 102.305,94.220 102.084 C 94.220 101.864,94.610 100.840,95.087 99.810 C 95.564 98.780,95.954 97.879,95.954 97.809 C 95.954 97.676,99.079 91.322,99.638 90.318 C 112.415 67.389,130.813 50.420,154.154 40.037 C 159.122 37.827,170.992 33.815,172.563 33.815 C 172.855 33.815,173.393 33.697,173.758 33.554 C 175.053 33.044,182.439 31.716,186.705 31.226 C 188.215 31.052,189.841 30.861,190.318 30.800 C 192.308 30.549,211.828 30.881,213.728 31.199 " stroke="none" fill="#1434b4" fill-rule="evenodd"></path><path id="path4" d="M193.573 30.840 C 193.932 30.909,194.452 30.907,194.729 30.834 C 195.005 30.762,194.711 30.706,194.075 30.709 C 193.439 30.712,193.213 30.771,193.573 30.840 M205.422 30.840 C 205.782 30.909,206.302 30.907,206.579 30.834 C 206.855 30.762,206.561 30.706,205.925 30.709 C 205.289 30.712,205.063 30.771,205.422 30.840 M190.246 31.124 C 190.524 31.197,190.979 31.197,191.257 31.124 C 191.535 31.051,191.308 30.992,190.751 30.992 C 190.195 30.992,189.967 31.051,190.246 31.124 M190.535 59.754 C 200.668 59.796,217.251 59.796,227.384 59.754 C 237.518 59.712,229.227 59.678,208.960 59.678 C 188.692 59.678,180.401 59.712,190.535 59.754 M141.562 86.428 C 140.974 86.738,140.129 87.470,139.683 88.054 L 138.873 89.117 138.794 107.128 L 138.716 125.139 140.022 126.804 L 141.329 128.468 141.329 173.171 L 141.329 217.875 142.078 218.764 L 142.826 219.653 180.780 219.653 L 218.735 219.653 219.525 220.592 L 220.316 221.532 193.395 221.606 C 174.043 221.659,166.474 221.769,166.474 221.997 C 166.474 222.570,256.273 222.188,257.370 221.610 C 258.342 221.098,259.269 220.155,259.863 219.075 C 260.265 218.344,260.271 217.418,260.627 106.696 C 260.688 87.597,260.790 88.483,258.330 86.701 L 257.139 85.838 199.884 85.851 C 143.668 85.863,142.611 85.874,141.562 86.428 M201.741 103.829 C 203.802 105.226,203.711 104.246,203.629 124.221 C 203.589 134.088,203.634 142.266,203.729 142.395 C 203.824 142.524,204.792 143.073,205.880 143.615 C 208.048 144.695,210.100 146.837,211.099 149.064 L 211.648 150.289 230.203 150.289 L 248.758 150.289 249.740 150.946 C 250.281 151.308,250.851 151.893,251.008 152.247 C 251.165 152.601,251.392 152.890,251.514 152.890 C 252.031 152.890,251.703 155.263,251.041 156.311 C 249.603 158.589,250.439 158.485,234.989 158.315 C 227.429 158.232,219.154 158.230,216.600 158.312 L 211.957 158.460 211.119 160.083 C 210.090 162.076,207.556 164.634,205.629 165.624 L 204.191 166.364 204.116 184.049 C 204.075 193.776,203.945 201.727,203.827 201.717 C 203.491 201.691,195.838 192.525,195.562 191.818 C 195.427 191.470,195.402 187.799,195.507 183.660 C 195.613 179.521,195.606 173.863,195.493 171.087 L 195.286 166.040 193.916 165.358 C 192.145 164.475,189.796 162.085,188.745 160.096 L 187.915 158.526 183.336 158.305 C 180.818 158.184,176.156 158.156,172.977 158.243 C 169.798 158.330,167.055 158.300,166.882 158.175 C 166.457 157.868,160.405 150.648,160.405 150.448 C 160.405 150.361,166.712 150.289,174.422 150.289 C 186.882 150.289,188.439 150.239,188.439 149.842 C 188.439 148.403,192.013 144.434,194.315 143.315 L 195.576 142.702 195.504 124.491 C 195.437 107.678,195.470 106.210,195.932 105.380 C 196.665 104.062,198.123 103.179,199.566 103.179 C 200.350 103.179,201.123 103.410,201.741 103.829 M207.159 132.680 C 213.428 134.956,217.803 139.435,220.344 146.176 C 220.987 147.883,220.956 148.844,220.257 148.844 C 219.832 148.844,219.656 148.561,219.498 147.627 C 219.385 146.957,219.193 146.209,219.071 145.965 C 218.950 145.720,218.517 144.794,218.110 143.907 C 215.762 138.785,210.132 134.301,204.552 133.107 C 203.997 132.988,203.757 132.757,203.757 132.341 C 203.757 131.648,204.527 131.725,207.159 132.680 M195.373 132.587 C 195.371 132.951,194.890 133.242,193.657 133.627 C 187.398 135.578,180.347 143.410,180.347 148.412 C 180.347 148.651,180.089 148.844,179.769 148.844 C 177.943 148.844,181.033 141.884,184.488 138.214 C 186.993 135.554,188.722 134.426,193.353 132.431 C 194.496 131.939,195.376 132.007,195.373 132.587 M150.578 144.030 L 150.723 148.937 154.629 148.872 C 158.486 148.807,158.543 148.816,159.231 149.548 L 159.927 150.289 155.527 150.289 C 150.593 150.289,149.884 150.484,148.872 152.122 C 147.770 153.905,148.284 156.518,149.967 157.697 L 150.578 158.125 150.578 181.621 C 150.578 206.045,150.582 206.130,151.803 207.882 C 153.237 209.942,151.425 209.827,182.387 209.827 L 210.173 209.827 211.228 210.910 L 212.283 211.994 181.957 212.068 C 147.713 212.151,150.534 212.339,148.627 209.851 L 147.688 208.626 147.695 172.304 L 147.702 135.983 149.068 137.553 L 150.434 139.123 150.578 144.030 M313.704 144.364 C 313.705 147.384,313.747 148.581,313.799 147.023 C 313.852 145.464,313.851 142.993,313.799 141.531 C 313.747 140.069,313.704 141.344,313.704 144.364 M86.246 144.509 C 86.246 147.290,86.289 148.428,86.342 147.038 C 86.395 145.647,86.395 143.371,86.342 141.980 C 86.289 140.589,86.246 141.727,86.246 144.509 M181.103 159.754 C 183.220 165.391,188.151 170.149,193.657 171.865 C 194.890 172.249,195.371 172.541,195.373 172.905 C 195.377 173.761,193.262 173.250,190.065 171.622 C 185.865 169.483,180.897 163.789,179.954 160.032 C 179.854 159.631,179.692 159.095,179.595 158.842 C 179.469 158.514,179.587 158.382,180.003 158.382 C 180.436 158.382,180.722 158.738,181.103 159.754 M220.520 158.657 C 220.520 158.930,220.267 159.601,219.427 161.561 C 217.217 166.716,212.302 171.072,206.429 173.081 C 204.208 173.841,204.335 173.848,204.335 172.977 C 204.335 172.394,204.479 172.254,205.075 172.254 C 209.501 172.254,216.527 165.788,219.128 159.321 C 219.474 158.460,220.520 157.961,220.520 158.657 M176.301 169.661 C 182.941 177.487,182.437 176.846,181.358 176.095 C 179.201 174.592,175.743 170.537,174.018 167.486 L 173.364 166.329 174.182 167.229 C 174.632 167.723,175.585 168.818,176.301 169.661 M138.733 217.714 C 138.683 220.139,141.906 222.254,145.650 222.254 C 149.262 222.254,148.949 221.767,145.250 221.630 C 141.834 221.504,140.704 220.922,139.383 218.614 C 139.028 217.993,138.736 217.588,138.733 217.714 M282.212 223.194 L 281.069 224.422 282.298 223.279 C 282.973 222.651,283.526 222.098,283.526 222.051 C 283.526 221.833,283.274 222.051,282.212 223.194 M278.161 227.240 L 277.312 228.179 278.251 227.330 C 278.768 226.863,279.191 226.441,279.191 226.391 C 279.191 226.168,278.952 226.364,278.161 227.240 M190.246 258.003 C 190.524 258.075,190.979 258.075,191.257 258.003 C 191.535 257.930,191.308 257.871,190.751 257.871 C 190.195 257.871,189.967 257.930,190.246 258.003 M193.425 258.292 C 193.703 258.364,194.158 258.364,194.436 258.292 C 194.715 258.219,194.487 258.160,193.931 258.160 C 193.374 258.160,193.147 258.219,193.425 258.292 M205.564 258.292 C 205.842 258.364,206.297 258.364,206.575 258.292 C 206.853 258.219,206.626 258.160,206.069 258.160 C 205.513 258.160,205.285 258.219,205.564 258.292 " stroke="none" fill="#7c8484" fill-rule="evenodd"></path></g></svg>