<svg id="svg" version="1.1" xmlns="http://www.w3.org/2000/svg" xmlns:xlink="http://www.w3.org/1999/xlink" width="400" height="288.8888888888889" viewBox="0, 0, 400,288.8888888888889"><g id="svgg"><path id="path0" d="M190.173 31.222 C 183.933 31.682,176.226 33.054,169.798 34.850 C 166.847 35.674,162.617 37.029,161.662 37.455 C 161.161 37.678,160.638 37.861,160.500 37.861 C 160.362 37.861,159.276 38.259,158.087 38.745 C 152.552 41.007,147.029 43.680,143.789 45.663 C 142.749 46.300,141.824 46.821,141.735 46.821 C 141.491 46.821,135.133 51.053,132.659 52.862 C 122.442 60.333,112.199 71.120,105.120 81.863 C 103.576 84.206,102.312 86.188,102.312 86.265 C 102.312 86.343,101.789 87.260,101.151 88.304 C 97.054 94.997,92.086 107.367,89.895 116.329 C 89.390 118.396,88.864 120.542,88.726 121.098 C 85.401 134.543,85.712 155.981,89.449 170.809 C 89.870 172.478,90.386 174.559,90.596 175.434 C 90.980 177.031,91.457 178.551,91.911 179.624 C 92.045 179.942,92.431 181.048,92.768 182.081 C 93.104 183.114,93.710 184.837,94.114 185.910 L 94.848 187.861 109.979 187.861 C 119.364 187.861,125.176 187.756,125.282 187.583 C 125.377 187.430,125.582 185.252,125.737 182.742 C 125.892 180.232,126.138 176.289,126.282 173.979 C 126.426 171.670,126.684 168.223,126.856 166.320 C 127.027 164.418,127.300 160.333,127.462 157.243 L 127.757 151.625 126.765 150.596 C 124.835 148.592,124.855 148.767,124.855 134.135 L 124.855 120.941 127.962 118.451 C 129.671 117.082,132.500 114.804,134.249 113.389 C 135.997 111.974,140.809 108.094,144.942 104.767 C 149.075 101.440,154.603 96.982,157.225 94.860 C 159.848 92.738,164.465 89.012,167.486 86.581 C 170.506 84.150,176.177 79.574,180.088 76.413 C 183.999 73.251,187.706 70.257,188.325 69.758 C 188.944 69.260,190.686 67.853,192.197 66.633 C 199.300 60.891,199.864 60.601,195.740 64.812 C 194.144 66.441,192.030 68.620,191.041 69.653 C 189.209 71.568,185.516 75.373,176.734 84.393 C 174.026 87.175,168.561 92.822,164.590 96.943 C 160.619 101.064,155.144 106.722,152.424 109.515 C 149.704 112.309,146.218 115.912,144.677 117.520 L 141.874 120.445 141.893 133.994 C 141.913 148.903,141.849 148.339,143.743 150.477 C 146.425 153.505,153.844 153.229,156.333 150.008 C 158.072 147.757,158.034 148.105,158.080 134.136 L 158.122 121.307 160.324 118.096 C 162.269 115.259,164.083 112.645,170.877 102.890 C 171.817 101.539,173.936 98.483,175.583 96.098 C 177.231 93.714,180.050 89.640,181.848 87.046 C 183.645 84.451,186.526 80.289,188.251 77.797 C 189.975 75.305,191.706 72.811,192.098 72.254 C 192.490 71.698,194.071 69.395,195.611 67.138 C 197.151 64.880,198.571 62.966,198.767 62.885 C 199.028 62.778,199.049 62.872,198.844 63.233 C 198.690 63.506,198.098 64.899,197.528 66.329 C 196.959 67.760,196.298 69.386,196.059 69.942 C 195.321 71.665,195.197 71.963,192.927 77.457 C 191.713 80.397,190.604 83.064,190.463 83.382 C 190.322 83.699,189.243 86.301,188.064 89.162 C 186.885 92.023,184.844 96.965,183.530 100.145 C 182.215 103.324,180.173 108.266,178.992 111.127 C 177.811 113.988,176.731 116.590,176.591 116.908 C 175.036 120.454,175.145 119.208,175.145 133.581 L 175.145 146.857 175.884 148.421 C 177.426 151.680,179.003 152.423,184.047 152.266 C 187.664 152.154,188.546 151.710,190.318 149.106 L 191.185 147.832 191.361 134.393 C 191.497 123.985,191.641 120.367,191.999 118.353 C 192.433 115.906,193.656 107.527,194.234 103.035 C 194.378 101.922,194.685 99.711,194.918 98.121 C 195.327 95.330,195.809 91.931,196.699 85.549 C 196.932 83.880,197.242 81.669,197.388 80.636 C 198.475 72.973,198.915 69.821,199.142 68.064 C 199.650 64.131,200.289 61.116,200.289 62.655 C 200.289 62.833,200.549 64.781,200.867 66.986 C 201.186 69.190,201.573 71.960,201.729 73.141 C 201.884 74.322,202.211 76.720,202.454 78.468 C 202.697 80.217,203.088 83.078,203.324 84.827 C 203.560 86.575,203.949 89.371,204.188 91.040 C 204.427 92.710,204.815 95.506,205.051 97.254 C 205.446 100.178,205.923 103.618,206.656 108.815 C 206.813 109.928,207.135 112.269,207.371 114.017 C 207.608 115.766,207.950 117.977,208.132 118.931 C 208.330 119.974,208.532 126.021,208.638 134.104 C 208.833 148.932,208.745 148.249,210.749 150.451 C 212.170 152.012,213.131 152.312,216.716 152.312 C 221.161 152.312,222.808 151.433,224.181 148.330 L 224.855 146.804 224.855 133.530 L 224.855 120.256 221.374 111.790 C 219.460 107.133,216.992 101.144,215.890 98.480 C 214.788 95.815,212.966 91.393,211.839 88.653 C 210.713 85.913,209.674 83.410,209.530 83.092 C 209.386 82.775,208.803 81.344,208.233 79.913 C 207.663 78.483,207.078 77.052,206.933 76.734 C 206.787 76.416,205.877 74.205,204.910 71.821 C 203.942 69.436,202.767 66.591,202.298 65.497 C 201.102 62.709,201.236 62.375,202.694 64.505 C 206.159 69.565,207.477 71.473,209.245 73.988 C 210.307 75.499,212.064 78.035,213.151 79.624 C 214.238 81.214,216.706 84.790,218.636 87.572 C 220.566 90.354,223.125 94.061,224.322 95.809 C 225.519 97.558,228.751 102.240,231.505 106.214 C 239.062 117.122,239.621 117.933,240.792 119.687 L 241.875 121.311 241.964 134.510 C 242.020 142.877,242.158 147.785,242.341 147.915 C 242.500 148.029,242.876 148.562,243.176 149.101 C 245.244 152.811,252.335 153.893,255.702 151.012 C 258.155 148.912,258.073 149.487,258.101 134.075 L 258.125 120.449 255.728 117.956 C 254.410 116.584,250.924 112.981,247.981 109.949 C 245.038 106.917,239.706 101.389,236.133 97.666 C 232.560 93.942,227.552 88.750,225.006 86.126 C 222.459 83.503,216.990 77.846,212.853 73.554 C 201.047 61.309,200.695 60.901,204.832 64.246 C 206.069 65.246,209.162 67.743,211.705 69.795 C 214.249 71.846,217.955 74.840,219.942 76.446 C 221.929 78.053,226.611 81.828,230.347 84.835 C 234.082 87.843,239.610 92.296,242.630 94.732 C 245.650 97.167,251.893 102.194,256.503 105.903 C 261.113 109.611,266.705 114.111,268.931 115.902 C 271.156 117.693,273.465 119.575,274.061 120.084 L 275.145 121.009 275.145 134.360 C 275.145 149.206,275.222 148.572,273.126 150.831 C 272.295 151.726,272.234 151.926,272.375 153.287 C 272.459 154.102,272.603 156.590,272.694 158.815 C 272.785 161.040,272.987 164.102,273.143 165.618 C 273.299 167.135,273.544 170.386,273.687 172.844 C 274.083 179.614,274.583 186.483,274.733 187.211 L 274.867 187.861 290.013 187.861 L 305.160 187.861 306.021 185.621 C 306.495 184.389,307.101 182.666,307.369 181.792 C 307.636 180.918,307.971 179.942,308.112 179.624 C 308.856 177.947,311.287 168.492,311.865 165.029 C 314.766 147.624,313.977 129.356,309.681 114.451 C 308.315 109.711,305.775 102.351,304.644 99.855 C 293.912 76.175,276.832 56.938,256.792 45.960 C 255.838 45.438,254.928 44.914,254.769 44.797 C 254.337 44.479,249.566 42.095,247.254 41.044 C 244.041 39.581,243.515 39.363,239.451 37.812 C 234.375 35.874,226.807 33.795,220.665 32.652 C 212.409 31.116,199.706 30.520,190.173 31.222 M200.714 34.786 C 200.786 35.126,200.884 35.665,200.932 35.983 C 201.015 36.536,201.271 36.564,207.012 36.639 L 213.006 36.717 213.006 39.137 C 213.006 42.129,212.452 41.905,219.894 41.916 L 225.867 41.924 224.987 42.711 C 224.502 43.143,223.397 44.112,222.530 44.864 L 220.954 46.231 223.121 48.251 C 224.314 49.363,225.387 50.276,225.506 50.280 C 225.625 50.285,225.723 50.419,225.723 50.578 C 225.723 50.765,222.062 50.867,215.318 50.867 L 204.913 50.867 204.913 48.266 L 204.913 45.665 202.890 45.665 L 200.867 45.665 200.867 53.146 L 200.867 60.628 200.000 60.755 L 199.133 60.883 199.133 47.696 C 199.133 38.335,199.227 34.415,199.457 34.184 C 199.907 33.734,200.557 34.046,200.714 34.786 M157.554 155.266 C 157.365 157.059,157.076 160.542,156.914 163.006 C 156.452 170.012,155.841 179.039,155.358 185.983 C 155.115 189.480,154.788 194.292,154.632 196.676 C 154.476 199.061,154.215 202.767,154.053 204.913 C 152.817 221.252,152.605 224.824,152.863 224.983 C 153.258 225.227,163.234 226.741,166.546 227.060 L 168.497 227.247 168.497 225.979 C 168.496 225.282,168.685 222.370,168.916 219.509 C 169.147 216.647,169.543 211.185,169.795 207.370 C 170.048 203.555,170.311 199.718,170.379 198.844 C 170.799 193.470,171.557 182.796,172.687 166.329 C 172.916 162.991,173.192 159.252,173.300 158.020 C 173.503 155.686,173.327 155.332,172.446 156.306 C 170.751 158.180,164.236 158.838,161.994 157.363 C 160.280 156.234,158.876 154.324,158.618 152.770 C 158.348 151.142,157.873 152.258,157.554 155.266 M241.691 152.354 C 241.492 152.554,241.329 152.866,241.329 153.048 C 241.329 154.079,239.591 156.347,238.006 157.382 C 237.262 157.868,236.626 157.948,233.526 157.948 C 229.729 157.948,229.318 157.833,227.559 156.283 C 226.629 155.463,226.508 156.002,226.844 159.474 C 227.009 161.178,227.219 164.003,227.312 165.751 C 227.404 167.500,227.600 170.426,227.748 172.254 C 227.895 174.082,228.220 178.504,228.469 182.081 C 228.718 185.658,229.113 191.185,229.347 194.364 C 229.737 199.664,229.957 202.764,230.640 212.572 C 230.773 214.480,231.045 218.544,231.244 221.604 C 231.591 226.921,231.634 227.168,232.205 227.165 C 233.285 227.161,239.451 226.347,245.004 225.474 C 245.992 225.318,246.933 225.109,247.095 225.009 C 247.467 224.779,247.404 223.596,245.950 203.704 C 245.780 201.370,245.452 196.688,245.222 193.299 C 244.992 189.911,244.669 185.253,244.504 182.948 C 244.338 180.643,244.008 175.961,243.770 172.543 C 242.317 151.725,242.317 151.725,241.691 152.354 M138.698 156.360 C 137.215 157.870,136.544 158.090,133.418 158.097 C 130.751 158.103,130.753 158.101,130.548 160.983 C 130.452 162.334,130.237 165.390,130.070 167.775 C 129.622 174.201,128.160 194.550,127.734 200.289 C 127.575 202.435,127.318 206.142,127.164 208.526 C 127.009 210.910,126.803 213.707,126.705 214.740 L 126.528 216.618 127.498 217.104 C 128.385 217.548,131.217 218.858,133.859 220.046 C 135.550 220.806,136.125 220.689,136.137 219.581 C 136.143 219.064,136.276 216.886,136.432 214.740 C 136.589 212.594,136.906 208.107,137.137 204.769 C 137.746 195.943,138.380 186.876,138.722 182.081 C 138.886 179.776,139.216 174.964,139.454 171.387 C 139.693 167.811,140.018 163.603,140.175 162.036 C 140.515 158.669,140.552 154.894,140.246 154.959 C 140.126 154.984,139.430 155.615,138.698 156.360 M259.630 157.442 C 259.728 158.833,260.006 162.832,260.248 166.329 C 260.489 169.827,260.885 175.484,261.127 178.902 C 261.369 182.319,261.768 188.042,262.014 191.618 C 262.259 195.195,262.645 200.723,262.871 203.902 C 263.097 207.081,263.421 211.958,263.592 214.740 C 263.963 220.813,263.919 220.641,265.058 220.413 C 266.299 220.165,270.495 218.163,272.125 217.041 L 273.486 216.105 273.294 214.050 C 273.188 212.919,272.907 209.133,272.670 205.636 C 272.206 198.801,271.627 190.480,270.941 180.780 C 270.705 177.442,270.378 172.665,270.215 170.164 C 270.052 167.664,269.761 163.957,269.569 161.927 L 269.220 158.237 266.329 158.083 C 263.100 157.911,262.159 157.549,260.745 155.940 C 259.490 154.509,259.429 154.591,259.630 157.442 " stroke="none" fill="#e6e9e9" fill-rule="evenodd"></path><path id="path1" d="M200.578 41.113 L 200.578 45.665 202.818 45.688 C 204.050 45.700,206.638 45.691,208.569 45.668 C 212.637 45.618,213.058 45.857,211.068 47.091 C 210.306 47.564,208.772 48.542,207.659 49.263 L 205.636 50.574 215.535 50.576 C 220.979 50.577,225.434 50.534,225.434 50.481 C 225.434 50.428,224.390 49.494,223.115 48.405 C 220.385 46.074,220.362 46.483,223.363 43.951 L 225.772 41.919 219.461 41.841 L 213.150 41.763 213.067 39.245 L 212.984 36.727 206.781 36.644 L 200.577 36.561 200.578 41.113 M196.098 63.498 C 193.964 65.225,190.216 68.246,188.325 69.762 C 187.706 70.258,183.999 73.251,180.088 76.413 C 176.177 79.574,170.506 84.150,167.486 86.581 C 164.465 89.012,159.848 92.738,157.225 94.860 C 154.603 96.982,149.075 101.440,144.942 104.767 C 140.809 108.094,135.997 111.974,134.249 113.389 C 132.500 114.804,129.671 117.082,127.962 118.451 L 124.855 120.941 124.855 133.829 C 124.855 148.328,124.872 148.461,126.920 150.658 C 128.012 151.829,128.052 151.940,127.902 153.396 C 127.530 157.009,127.431 158.175,127.159 162.139 C 126.461 172.332,126.003 179.066,125.736 183.092 C 125.577 185.477,125.377 188.078,125.291 188.873 C 125.204 189.668,124.943 193.179,124.709 196.676 C 124.475 200.173,124.152 204.917,123.991 207.218 C 123.632 212.340,123.723 212.864,125.269 214.622 L 126.499 216.019 126.688 214.585 C 126.793 213.796,127.005 211.134,127.161 208.671 C 127.317 206.207,127.575 202.435,127.734 200.289 C 127.893 198.143,128.225 193.591,128.470 190.173 C 128.716 186.756,129.109 181.293,129.343 178.035 C 129.577 174.776,129.902 170.159,130.066 167.775 C 130.229 165.390,130.490 162.009,130.646 160.260 C 130.802 158.512,131.011 156.153,131.111 155.018 L 131.292 152.956 133.958 152.839 C 136.958 152.708,138.595 151.940,140.045 149.982 L 140.781 148.988 140.605 153.902 C 140.508 156.604,140.308 160.181,140.160 161.850 C 140.012 163.519,139.695 167.811,139.456 171.387 C 139.216 174.964,138.886 179.776,138.722 182.081 C 138.109 190.673,136.876 208.427,136.396 215.559 C 136.206 218.382,136.169 220.668,136.310 220.797 C 136.950 221.382,147.676 224.207,151.188 224.716 C 152.775 224.946,152.880 224.750,152.886 221.532 C 152.889 220.419,153.018 218.143,153.174 216.474 C 153.329 214.805,153.591 211.488,153.755 209.104 C 153.918 206.720,154.242 202.038,154.475 198.699 C 155.456 184.601,155.823 179.284,156.222 173.410 C 156.747 165.693,157.446 156.032,157.771 152.023 C 158.068 148.347,158.018 148.228,156.835 149.780 C 152.843 155.013,143.562 153.656,141.756 147.576 C 141.408 146.402,141.330 143.823,141.335 133.546 L 141.340 120.954 144.412 117.775 C 146.102 116.026,149.709 112.309,152.427 109.515 C 155.146 106.722,160.619 101.064,164.590 96.943 C 168.561 92.822,174.026 87.175,176.734 84.393 C 185.516 75.373,189.209 71.568,191.041 69.653 C 192.030 68.620,194.144 66.441,195.740 64.812 C 198.990 61.494,199.107 61.063,196.098 63.498 M199.998 62.452 C 199.997 62.518,199.863 63.353,199.700 64.306 C 199.537 65.260,199.286 66.951,199.142 68.064 C 198.915 69.821,198.475 72.973,197.388 80.636 C 197.242 81.669,196.932 83.880,196.699 85.549 C 195.809 91.931,195.327 95.330,194.918 98.121 C 194.685 99.711,194.378 101.922,194.234 103.035 C 193.912 105.537,192.610 114.770,192.041 118.581 C 191.327 123.362,191.434 145.601,192.180 147.643 C 194.776 154.745,205.887 154.660,207.890 147.524 C 208.460 145.490,208.617 122.580,208.084 119.075 C 207.927 118.042,207.606 115.766,207.370 114.017 C 207.134 112.269,206.813 109.928,206.656 108.815 C 205.923 103.618,205.446 100.178,205.051 97.254 C 204.815 95.506,204.427 92.710,204.188 91.040 C 203.949 89.371,203.560 86.575,203.324 84.827 C 203.088 83.078,202.697 80.217,202.454 78.468 C 202.211 76.720,201.888 74.349,201.736 73.200 C 201.083 68.247,200.228 62.563,200.118 62.452 C 200.053 62.386,199.999 62.386,199.998 62.452 M203.749 64.040 C 205.393 65.819,216.974 77.853,225.006 86.126 C 227.552 88.750,232.560 93.942,236.133 97.666 C 239.706 101.389,245.040 106.917,247.986 109.949 C 250.931 112.981,254.545 116.724,256.017 118.266 L 258.693 121.069 258.609 134.306 C 258.516 149.133,258.583 148.653,256.311 150.743 C 254.266 152.624,253.901 152.746,250.289 152.746 C 246.014 152.746,244.612 152.060,242.554 148.961 C 242.117 148.304,242.189 150.725,242.890 160.260 C 243.135 163.598,243.531 169.126,243.769 172.543 C 244.008 175.961,244.338 180.643,244.504 182.948 C 244.669 185.253,244.992 189.911,245.222 193.299 C 245.694 200.251,246.118 206.122,246.562 211.850 C 246.728 213.996,246.973 217.745,247.107 220.183 C 247.397 225.472,247.079 225.057,250.356 224.427 C 259.292 222.708,264.172 221.074,263.976 219.868 C 263.918 219.511,263.742 217.139,263.586 214.595 C 263.430 212.052,263.113 207.305,262.881 204.046 C 262.649 200.788,262.258 195.195,262.013 191.618 C 261.768 188.042,261.369 182.319,261.127 178.902 C 260.884 175.484,260.558 170.672,260.401 168.208 C 260.245 165.744,259.993 162.168,259.841 160.260 C 259.689 158.353,259.489 155.036,259.397 152.890 L 259.229 148.988 259.883 149.899 C 261.306 151.881,263.044 152.708,266.062 152.840 C 268.101 152.929,268.786 153.057,268.786 153.350 C 268.786 153.566,269.044 156.444,269.359 159.747 C 269.674 163.049,270.062 167.767,270.222 170.231 C 270.382 172.695,270.705 177.442,270.941 180.780 C 271.681 191.242,272.242 199.332,272.702 206.155 C 272.946 209.779,273.238 213.466,273.350 214.347 L 273.555 215.950 274.324 215.344 C 274.748 215.010,275.381 214.146,275.731 213.422 C 276.439 211.960,276.445 212.530,275.570 200.000 C 275.343 196.741,274.957 191.214,274.713 187.717 C 274.470 184.220,274.139 179.798,273.978 177.890 C 273.818 175.983,273.552 172.341,273.389 169.798 C 273.225 167.254,272.970 163.483,272.823 161.416 C 272.675 159.350,272.470 156.330,272.366 154.706 L 272.178 151.753 273.121 150.678 C 275.179 148.335,275.131 148.729,275.138 134.067 C 275.144 121.454,275.121 120.862,274.597 120.483 C 274.109 120.129,270.812 117.475,258.671 107.659 C 256.684 106.052,252.401 102.599,249.154 99.985 C 245.907 97.370,241.875 94.123,240.195 92.769 C 238.514 91.414,234.408 88.105,231.069 85.416 C 227.731 82.726,222.724 78.690,219.942 76.447 C 200.602 60.853,201.298 61.387,203.749 64.040 M198.681 62.938 C 198.513 63.055,197.030 65.101,195.388 67.486 C 193.745 69.870,191.725 72.796,190.898 73.988 C 190.071 75.181,188.404 77.587,187.194 79.335 C 185.983 81.084,183.550 84.595,181.786 87.139 C 180.022 89.682,177.231 93.714,175.583 96.098 C 172.299 100.851,170.691 103.165,166.141 109.682 C 164.477 112.066,162.055 115.578,160.760 117.486 L 158.406 120.954 158.357 133.960 C 158.303 148.359,158.337 148.691,160.045 150.501 C 161.918 152.485,162.680 152.746,166.618 152.746 C 170.390 152.746,170.742 152.631,172.769 150.749 L 173.718 149.869 173.553 153.186 C 173.462 155.010,173.260 158.194,173.103 160.260 C 172.945 162.327,172.690 165.968,172.534 168.353 C 172.003 176.506,170.846 192.867,170.379 198.844 C 170.311 199.718,170.048 203.555,169.795 207.370 C 169.543 211.185,169.147 216.647,168.916 219.509 C 168.336 226.694,168.347 227.059,169.147 227.280 C 174.891 228.868,224.444 228.877,230.763 227.291 C 231.636 227.072,231.670 226.531,231.198 220.376 C 231.039 218.309,230.789 214.863,230.642 212.717 C 230.168 205.788,229.779 200.275,229.339 194.220 C 229.102 190.961,228.710 185.499,228.467 182.081 C 228.225 178.663,227.897 174.176,227.738 172.110 C 227.292 166.300,226.846 159.386,226.722 156.358 C 226.661 154.848,226.529 152.767,226.430 151.734 L 226.249 149.855 227.214 150.743 C 229.275 152.637,229.609 152.746,233.382 152.746 C 237.284 152.746,238.502 152.338,240.036 150.518 C 241.710 148.534,241.692 148.718,241.638 134.257 L 241.589 120.971 240.809 119.742 C 240.000 118.468,239.776 118.143,231.507 106.214 C 228.753 102.240,225.519 97.558,224.322 95.809 C 223.125 94.061,220.566 90.354,218.636 87.572 C 216.706 84.790,214.238 81.214,213.151 79.624 C 212.064 78.035,210.307 75.499,209.245 73.988 C 207.477 71.473,206.159 69.565,202.694 64.505 C 201.236 62.375,201.102 62.709,202.298 65.497 C 202.767 66.591,203.942 69.436,204.910 71.821 C 205.877 74.205,206.787 76.416,206.933 76.734 C 207.078 77.052,207.663 78.483,208.233 79.913 C 208.803 81.344,209.386 82.775,209.530 83.092 C 209.674 83.410,210.713 85.913,211.839 88.653 C 214.976 96.285,217.556 102.514,221.447 111.850 L 225.000 120.376 225.000 133.960 L 225.000 147.543 224.278 148.958 C 223.880 149.736,223.035 150.777,222.399 151.270 L 221.243 152.168 221.449 158.960 C 221.562 162.695,221.790 166.700,221.954 167.859 C 222.119 169.018,222.254 171.111,222.254 172.511 C 222.254 173.911,222.442 177.775,222.671 181.098 C 223.241 189.358,223.438 194.101,223.232 194.637 C 223.026 195.174,222.064 195.238,221.893 194.725 C 221.798 194.441,217.161 194.364,200.000 194.364 C 182.839 194.364,178.202 194.441,178.107 194.725 C 177.940 195.226,176.976 195.180,176.777 194.661 C 176.687 194.427,176.738 192.118,176.890 189.531 C 177.042 186.944,177.361 181.315,177.599 177.023 C 177.837 172.731,178.155 167.009,178.306 164.306 C 178.873 154.143,178.817 152.053,177.959 151.490 C 175.039 149.575,175.000 149.345,175.000 134.104 C 175.000 119.399,174.873 120.770,176.588 116.908 C 176.729 116.590,177.811 113.988,178.992 111.127 C 180.173 108.266,182.215 103.324,183.530 100.145 C 184.844 96.965,186.885 92.023,188.064 89.162 C 189.243 86.301,190.322 83.699,190.463 83.382 C 190.604 83.064,191.715 80.397,192.932 77.457 C 195.449 71.376,195.890 70.320,196.248 69.509 C 196.388 69.191,196.967 67.760,197.533 66.329 C 198.100 64.899,198.693 63.501,198.851 63.223 C 199.166 62.666,199.139 62.621,198.681 62.938 " stroke="none" fill="#cb462d" fill-rule="evenodd"></path><path id="path2" d="M189.884 30.900 C 189.010 30.993,193.562 31.069,200.000 31.069 C 206.438 31.069,210.925 30.986,209.971 30.884 C 207.829 30.655,192.062 30.667,189.884 30.900 M184.538 31.543 C 181.808 31.888,181.458 32.112,183.963 31.910 C 186.124 31.736,188.595 31.267,187.283 31.280 C 186.886 31.284,185.650 31.402,184.538 31.543 M213.002 31.499 C 213.557 31.635,214.923 31.816,216.037 31.901 C 217.523 32.013,217.755 31.990,216.908 31.815 C 215.214 31.465,211.712 31.181,213.002 31.499 M178.920 32.409 C 178.057 32.552,177.276 32.747,177.186 32.841 C 176.986 33.052,179.796 32.689,180.869 32.365 C 181.918 32.049,180.963 32.070,178.920 32.409 M219.131 32.356 C 219.559 32.490,220.600 32.676,221.443 32.768 C 222.416 32.874,222.713 32.849,222.254 32.698 C 221.857 32.568,220.816 32.382,219.942 32.286 C 218.891 32.170,218.616 32.194,219.131 32.356 M174.613 33.290 C 173.923 33.444,173.425 33.637,173.506 33.718 C 173.670 33.882,176.879 33.268,176.879 33.072 C 176.879 32.891,176.039 32.971,174.613 33.290 M223.555 33.199 C 223.873 33.338,224.718 33.534,225.434 33.635 C 226.280 33.754,226.532 33.729,226.156 33.564 C 225.838 33.425,224.993 33.229,224.277 33.128 C 223.431 33.009,223.179 33.034,223.555 33.199 M170.954 34.254 L 169.798 34.648 170.954 34.483 C 172.174 34.310,173.397 33.820,172.543 33.846 C 172.305 33.853,171.590 34.037,170.954 34.254 M199.457 34.184 C 199.227 34.415,199.133 38.335,199.133 47.696 L 199.133 60.883 200.000 60.755 L 200.867 60.628 200.800 53.074 L 200.733 45.520 200.651 52.962 C 200.571 60.163,200.550 60.405,199.995 60.405 C 199.432 60.405,199.422 60.175,199.422 47.419 L 199.422 34.433 200.072 34.338 C 200.594 34.262,200.630 34.206,200.252 34.052 C 199.993 33.946,199.636 34.006,199.457 34.184 M227.457 34.054 C 227.695 34.200,228.410 34.399,229.046 34.496 C 230.424 34.707,229.585 34.283,228.035 33.984 C 227.375 33.858,227.174 33.882,227.457 34.054 M167.991 35.005 C 167.475 35.155,167.052 35.335,167.052 35.406 C 167.052 35.589,168.845 35.228,169.364 34.940 C 169.970 34.604,169.265 34.638,167.991 35.005 M200.578 35.532 C 200.578 36.000,200.681 36.446,200.807 36.523 C 200.932 36.601,200.983 36.219,200.920 35.673 C 200.778 34.459,200.578 34.376,200.578 35.532 M230.636 34.919 C 230.874 35.063,231.525 35.261,232.081 35.360 C 232.711 35.472,232.929 35.444,232.659 35.288 C 232.059 34.941,230.071 34.578,230.636 34.919 M164.162 36.272 C 163.129 36.644,162.393 36.959,162.527 36.972 C 162.876 37.004,166.763 35.805,166.763 35.665 C 166.763 35.431,165.998 35.609,164.162 36.272 M235.108 36.296 C 236.216 36.683,237.255 36.955,237.417 36.902 C 237.709 36.804,233.802 35.530,233.337 35.571 C 233.202 35.582,233.999 35.909,235.108 36.296 M161.055 37.318 C 160.538 37.467,160.116 37.664,160.116 37.756 C 160.116 37.993,161.648 37.587,161.980 37.263 C 162.293 36.956,162.310 36.955,161.055 37.318 M238.439 37.405 C 238.837 37.645,239.357 37.841,239.595 37.842 C 240.175 37.844,239.488 37.440,238.439 37.162 L 237.717 36.970 238.439 37.405 M157.659 38.626 C 155.791 39.425,155.193 39.802,156.358 39.447 C 157.419 39.123,160.019 37.911,159.682 37.897 C 159.523 37.890,158.613 38.219,157.659 38.626 M241.474 38.568 C 243.259 39.381,244.474 39.764,244.075 39.387 C 243.771 39.100,240.549 37.844,240.220 37.885 C 240.115 37.898,240.679 38.205,241.474 38.568 M154.335 40.051 L 153.613 40.487 154.335 40.297 C 154.733 40.194,155.181 39.993,155.332 39.852 C 155.774 39.439,155.141 39.566,154.335 40.051 M244.668 39.852 C 244.819 39.993,245.267 40.194,245.665 40.297 L 246.387 40.487 245.665 40.051 C 244.859 39.566,244.226 39.439,244.668 39.852 M150.867 41.618 C 149.675 42.239,148.792 42.752,148.905 42.760 C 149.185 42.780,153.468 40.737,153.468 40.584 C 153.468 40.327,152.964 40.528,150.867 41.618 M246.532 40.581 C 246.532 40.751,248.973 41.910,249.296 41.894 C 249.445 41.887,248.981 41.568,248.266 41.185 C 246.993 40.503,246.532 40.343,246.532 40.581 M249.711 42.046 C 249.711 42.107,250.751 42.687,252.023 43.335 C 253.295 43.983,254.335 44.449,254.335 44.371 C 254.335 44.293,253.652 43.873,252.818 43.438 C 250.894 42.434,249.711 41.904,249.711 42.046 M147.038 43.516 C 146.283 43.909,145.665 44.295,145.665 44.375 C 145.665 44.454,146.315 44.189,147.110 43.786 C 147.905 43.383,148.555 42.991,148.555 42.914 C 148.555 42.723,148.581 42.713,147.038 43.516 M144.394 44.949 C 142.019 46.187,134.971 50.738,134.971 51.033 C 134.971 51.214,134.932 51.238,138.653 48.772 C 140.271 47.699,141.657 46.821,141.731 46.821 C 141.939 46.821,145.376 44.745,145.376 44.619 C 145.376 44.451,145.298 44.477,144.394 44.949 M254.769 44.745 C 254.928 44.894,255.838 45.442,256.792 45.963 C 272.428 54.502,290.099 72.171,298.550 87.717 C 299.068 88.671,299.621 89.581,299.778 89.740 C 300.270 90.238,298.828 87.541,297.152 84.827 C 287.504 69.213,274.208 56.109,258.237 46.476 C 255.704 44.948,254.167 44.181,254.769 44.745 M221.085 45.825 C 220.772 46.202,220.823 46.376,221.400 46.909 L 222.088 47.543 221.553 46.898 C 221.115 46.370,221.085 46.174,221.383 45.815 C 221.583 45.573,221.682 45.376,221.603 45.376 C 221.523 45.376,221.290 45.578,221.085 45.825 M204.972 48.338 L 204.913 50.867 215.318 50.867 C 221.040 50.867,225.723 50.770,225.723 50.650 C 225.723 50.531,221.111 50.469,215.474 50.513 L 205.226 50.592 205.128 48.201 L 205.031 45.809 204.972 48.338 M132.598 52.529 C 131.534 53.284,130.658 54.001,130.650 54.122 C 130.642 54.243,131.546 53.680,132.659 52.870 C 134.416 51.592,134.912 51.156,134.607 51.156 C 134.566 51.156,133.662 51.774,132.598 52.529 M126.981 57.009 C 120.491 62.464,116.606 66.482,109.865 74.711 C 109.100 75.645,107.097 78.495,107.428 78.179 C 107.594 78.020,109.337 75.874,111.301 73.410 C 115.356 68.323,122.641 60.876,127.240 57.118 C 130.016 54.848,130.572 54.335,130.254 54.335 C 130.203 54.335,128.730 55.538,126.981 57.009 M104.530 82.298 C 102.131 85.947,99.824 89.884,100.086 89.884 C 100.228 89.884,102.312 86.474,102.312 86.241 C 102.312 86.168,103.345 84.552,104.607 82.649 C 107.403 78.437,107.294 78.613,107.106 78.613 C 107.022 78.613,105.863 80.271,104.530 82.298 M99.432 90.732 C 99.066 91.417,99.049 91.705,99.387 91.496 C 99.642 91.338,100.040 90.173,99.839 90.173 C 99.780 90.173,99.597 90.425,99.432 90.732 M300.240 90.679 C 301.034 92.493,302.991 96.238,303.092 96.137 C 303.231 95.999,300.357 90.173,300.151 90.173 C 300.078 90.173,300.118 90.401,300.240 90.679 M97.965 93.666 C 96.943 95.689,96.485 96.821,96.687 96.821 C 96.764 96.821,97.229 95.943,97.720 94.870 C 98.211 93.797,98.735 92.691,98.883 92.413 C 99.032 92.135,99.086 91.908,99.003 91.908 C 98.920 91.908,98.453 92.699,97.965 93.666 M303.634 97.616 C 303.888 98.212,304.219 99.010,304.369 99.390 C 304.518 99.769,304.704 100.017,304.781 99.940 C 304.942 99.779,303.553 96.532,303.323 96.532 C 303.240 96.532,303.380 97.020,303.634 97.616 M95.719 98.424 C 95.371 99.141,95.094 99.886,95.103 100.080 C 95.113 100.274,95.439 99.731,95.829 98.871 C 96.693 96.970,96.603 96.606,95.719 98.424 M305.081 100.867 C 305.359 101.916,305.763 102.603,305.761 102.023 C 305.761 101.785,305.564 101.264,305.325 100.867 L 304.889 100.145 305.081 100.867 M94.493 101.341 C 94.334 101.760,94.257 102.157,94.323 102.222 C 94.388 102.288,94.580 101.945,94.749 101.460 C 95.125 100.382,94.898 100.276,94.493 101.341 M93.650 103.302 C 93.197 104.493,93.342 104.902,93.824 103.796 C 94.058 103.261,94.181 102.755,94.098 102.672 C 94.015 102.589,93.813 102.873,93.650 103.302 M305.780 102.663 C 305.780 102.761,306.226 104.007,306.770 105.433 C 307.314 106.859,308.039 108.964,308.380 110.110 C 308.721 111.256,309.068 112.126,309.151 112.043 C 309.333 111.862,306.415 103.152,306.042 102.760 C 305.898 102.609,305.780 102.565,305.780 102.663 M92.988 105.111 C 92.915 105.241,92.777 105.737,92.682 106.214 C 92.510 107.076,92.512 107.076,92.946 106.108 C 93.324 105.264,93.358 104.457,92.988 105.111 M91.908 108.237 C 91.717 108.815,91.629 109.356,91.713 109.440 C 91.797 109.523,92.001 109.099,92.168 108.497 C 92.560 107.075,92.358 106.873,91.908 108.237 M91.069 110.867 C 90.677 112.289,90.879 112.491,91.329 111.127 C 91.520 110.550,91.608 110.008,91.524 109.925 C 91.440 109.841,91.236 110.265,91.069 110.867 M90.318 113.295 C 90.208 113.794,90.183 114.268,90.263 114.348 C 90.342 114.427,90.497 114.083,90.607 113.584 C 90.717 113.084,90.741 112.610,90.662 112.531 C 90.582 112.451,90.428 112.795,90.318 113.295 M309.323 113.006 C 309.783 115.169,310.528 117.693,310.623 117.409 C 310.736 117.069,309.591 112.682,309.322 112.428 C 309.238 112.348,309.239 112.608,309.323 113.006 M89.654 115.815 C 89.463 116.453,89.318 117.220,89.332 117.519 C 89.346 117.819,89.539 117.413,89.760 116.618 C 90.243 114.881,90.148 114.165,89.654 115.815 M88.746 119.695 C 88.571 120.513,88.483 121.238,88.551 121.307 C 88.699 121.454,88.899 120.780,89.150 119.292 C 89.423 117.674,89.113 117.983,88.746 119.695 M310.873 119.220 C 311.158 120.936,311.602 121.814,311.385 120.231 C 311.287 119.516,311.089 118.736,310.944 118.497 C 310.776 118.220,310.751 118.480,310.873 119.220 M141.358 133.581 C 141.374 140.625,141.491 146.712,141.618 147.110 C 141.746 147.507,141.863 141.825,141.879 134.482 C 141.897 125.863,141.805 121.069,141.618 120.954 C 141.427 120.836,141.339 125.110,141.358 133.581 M224.989 133.815 C 224.989 141.048,225.026 144.007,225.072 140.390 C 225.118 136.774,225.118 130.856,225.072 127.240 C 225.026 123.624,224.989 126.582,224.989 133.815 M158.224 132.803 C 158.224 139.321,158.262 142.028,158.309 138.820 C 158.355 135.612,158.355 130.279,158.309 126.970 C 158.263 123.661,158.225 126.286,158.224 132.803 M174.988 133.671 C 174.988 140.665,175.026 143.485,175.072 139.937 C 175.118 136.389,175.118 130.667,175.072 127.220 C 175.026 123.774,174.988 126.676,174.988 133.671 M191.329 134.393 L 191.185 147.832 190.318 149.106 C 188.546 151.710,187.664 152.154,184.047 152.266 C 179.028 152.422,177.451 151.689,175.897 148.477 C 175.495 147.645,175.161 147.133,175.155 147.338 C 175.016 152.244,184.829 154.910,189.121 151.132 C 191.679 148.880,191.635 149.191,191.549 134.133 L 191.474 120.954 191.329 134.393 M208.445 134.186 L 208.382 147.418 209.077 148.781 C 210.792 152.142,214.737 153.660,219.457 152.774 C 221.664 152.360,224.289 149.866,224.708 147.784 C 224.815 147.255,224.632 147.476,224.190 148.410 C 222.748 151.460,221.116 152.312,216.716 152.312 C 213.131 152.312,212.170 152.012,210.749 150.451 C 208.744 148.248,208.831 148.922,208.662 134.249 L 208.509 120.954 208.445 134.186 M241.750 132.803 C 241.750 139.321,241.788 142.028,241.835 138.820 C 241.881 135.612,241.881 130.279,241.835 126.970 C 241.789 123.661,241.751 126.286,241.750 132.803 M258.092 134.384 C 258.092 149.427,258.168 148.901,255.697 151.016 C 255.050 151.570,254.608 152.023,254.716 152.023 C 255.177 152.023,257.319 149.798,257.897 148.719 C 258.609 147.389,259.081 121.098,258.393 121.098 C 258.189 121.098,258.092 125.394,258.092 134.384 M87.861 123.988 C 87.670 125.122,87.579 126.114,87.658 126.194 C 87.738 126.273,87.959 125.411,88.150 124.277 C 88.341 123.144,88.433 122.152,88.353 122.072 C 88.274 121.993,88.052 122.855,87.861 123.988 M311.759 123.410 C 311.859 124.285,312.046 125.325,312.175 125.723 C 312.314 126.152,312.338 125.742,312.234 124.711 C 312.138 123.757,311.951 122.717,311.819 122.399 C 311.675 122.056,311.651 122.468,311.759 123.410 M312.621 128.757 C 312.712 129.870,312.893 131.301,313.024 131.936 C 313.190 132.739,313.214 132.415,313.103 130.876 C 313.014 129.656,312.833 128.226,312.699 127.696 C 312.535 127.047,312.510 127.393,312.621 128.757 M87.189 128.242 C 86.878 130.231,86.623 133.384,86.786 133.237 C 86.982 133.060,87.629 127.417,87.472 127.260 C 87.411 127.199,87.283 127.640,87.189 128.242 M313.439 144.509 C 313.439 150.629,313.524 154.921,313.627 154.046 C 313.731 153.172,313.816 148.880,313.816 144.509 C 313.816 140.137,313.731 135.845,313.627 134.971 C 313.524 134.097,313.439 138.389,313.439 144.509 M86.314 136.315 C 86.082 139.064,86.125 150.979,86.375 153.324 C 86.477 154.277,86.561 150.343,86.561 144.581 C 86.561 138.819,86.547 134.104,86.531 134.104 C 86.514 134.104,86.417 135.099,86.314 136.315 M241.543 147.375 C 241.046 151.076,237.830 153.053,232.659 152.837 C 229.721 152.714,229.098 152.474,227.214 150.743 L 226.249 149.855 226.426 151.734 C 226.523 152.767,226.633 154.153,226.669 154.813 C 226.705 155.473,226.823 155.959,226.931 155.892 C 227.039 155.825,227.213 155.908,227.316 156.076 C 228.464 157.934,235.791 158.829,238.006 157.382 C 239.607 156.336,241.329 154.078,241.329 153.026 C 241.329 152.831,241.525 152.510,241.763 152.312 C 242.058 152.067,242.202 151.386,242.214 150.181 C 242.228 148.692,242.285 148.498,242.575 148.961 C 244.470 151.991,246.020 152.746,250.347 152.746 C 252.693 152.746,253.841 152.633,254.095 152.379 C 254.391 152.083,254.269 152.055,253.459 152.234 C 248.850 153.256,244.804 152.023,243.176 149.101 C 242.876 148.562,242.552 148.056,242.457 147.977 C 242.361 147.897,242.155 147.442,241.999 146.965 L 241.714 146.098 241.543 147.375 M157.680 147.739 C 155.935 151.754,152.045 153.332,146.532 152.260 L 145.520 152.063 146.387 152.464 C 149.511 153.906,154.699 152.580,156.821 149.798 C 157.926 148.349,158.112 148.446,157.886 150.356 C 157.748 151.524,157.807 151.858,158.192 152.073 C 158.455 152.220,158.671 152.575,158.671 152.860 C 158.671 154.063,160.268 156.226,161.994 157.363 C 163.384 158.277,168.869 158.382,170.572 157.526 C 173.101 156.254,173.299 155.933,173.532 152.725 L 173.741 149.855 172.781 150.743 C 170.734 152.634,170.392 152.746,166.618 152.746 C 162.001 152.746,159.458 151.281,158.657 148.160 C 158.488 147.503,158.322 146.858,158.287 146.727 C 158.251 146.596,157.978 147.051,157.680 147.739 M141.917 148.138 C 141.912 148.307,142.098 148.697,142.332 149.005 C 142.565 149.314,142.760 149.429,142.765 149.260 C 142.770 149.092,142.584 148.702,142.350 148.393 C 142.117 148.085,141.922 147.970,141.917 148.138 M140.029 150.011 C 138.833 151.825,136.920 152.710,133.911 152.841 L 131.214 152.959 131.197 154.297 C 131.187 155.034,131.082 156.224,130.963 156.943 L 130.747 158.250 132.787 158.163 C 136.872 157.991,137.192 157.891,138.898 156.251 L 140.470 154.741 140.654 151.937 C 140.859 148.817,140.845 148.774,140.029 150.011 M259.398 151.852 C 259.712 156.339,261.350 157.809,266.338 158.080 L 269.236 158.237 269.026 156.358 C 268.910 155.325,268.809 154.138,268.801 153.719 C 268.786 152.962,268.776 152.959,266.062 152.840 C 263.048 152.708,261.333 151.894,259.867 149.899 L 259.199 148.988 259.398 151.852 M143.515 150.603 C 143.982 151.093,144.615 151.631,144.922 151.797 C 145.229 151.963,144.915 151.562,144.225 150.905 C 142.758 149.510,142.282 149.307,143.515 150.603 M272.321 154.046 C 272.321 154.603,272.381 154.830,272.454 154.552 C 272.526 154.274,272.526 153.819,272.454 153.540 C 272.381 153.262,272.321 153.490,272.321 154.046 M127.539 155.347 C 127.541 156.142,127.598 156.432,127.664 155.993 C 127.730 155.554,127.729 154.904,127.660 154.548 C 127.591 154.193,127.537 154.552,127.539 155.347 M86.883 157.951 C 86.969 159.066,87.149 160.432,87.284 160.986 C 87.456 161.695,87.482 161.394,87.372 159.971 C 87.286 158.858,87.106 157.493,86.971 156.936 C 86.799 156.224,86.773 156.524,86.883 157.951 M312.915 157.433 C 312.462 161.146,312.370 162.270,312.527 162.124 C 312.753 161.914,313.403 156.370,313.223 156.190 C 313.146 156.113,313.007 156.672,312.915 157.433 M87.752 164.106 C 87.845 164.949,88.034 165.990,88.174 166.418 C 88.353 166.968,88.378 166.745,88.259 165.663 C 88.167 164.819,87.977 163.779,87.838 163.351 C 87.659 162.801,87.634 163.023,87.752 164.106 M312.001 163.945 C 311.580 166.678,311.541 167.218,311.805 166.618 C 312.102 165.945,312.536 162.717,312.329 162.717 C 312.252 162.717,312.104 163.270,312.001 163.945 M88.439 167.745 C 88.439 168.337,89.712 173.206,89.798 172.946 C 89.911 172.607,88.844 167.938,88.597 167.691 C 88.510 167.605,88.439 167.629,88.439 167.745 M311.007 169.089 C 310.636 170.819,310.626 171.103,310.959 170.520 C 311.257 169.998,311.672 167.630,311.466 167.630 C 311.385 167.630,311.179 168.287,311.007 169.089 M309.863 173.681 C 309.502 175.151,309.261 176.409,309.327 176.476 C 309.510 176.659,310.762 171.737,310.632 171.346 C 310.569 171.159,310.223 172.210,309.863 173.681 M90.064 174.422 C 90.348 176.138,90.792 177.016,90.576 175.434 C 90.478 174.718,90.279 173.938,90.135 173.699 C 89.967 173.422,89.942 173.683,90.064 174.422 M90.947 177.601 C 91.041 178.078,91.227 178.663,91.360 178.902 C 91.793 179.680,91.644 178.577,91.184 177.601 L 90.775 176.734 90.947 177.601 M308.661 178.078 C 308.476 178.769,308.223 179.465,308.098 179.624 C 307.810 179.990,307.416 181.792,307.623 181.792 C 307.839 181.792,309.295 177.118,309.131 176.954 C 309.058 176.880,308.846 177.386,308.661 178.078 M91.617 179.648 C 91.615 180.071,93.135 184.129,93.252 184.012 C 93.386 183.878,92.078 179.843,91.815 179.580 C 91.707 179.472,91.618 179.503,91.617 179.648 M306.711 183.727 C 306.392 184.650,306.034 185.665,305.914 185.983 C 305.765 186.375,305.790 186.468,305.991 186.272 C 306.349 185.922,307.590 182.349,307.414 182.173 C 307.345 182.105,307.029 182.804,306.711 183.727 M93.376 184.591 C 93.341 185.103,93.924 186.519,94.098 186.345 C 94.181 186.262,94.058 185.757,93.824 185.221 C 93.591 184.686,93.389 184.403,93.376 184.591 M94.239 186.751 C 94.192 187.212,98.153 195.728,99.904 198.932 C 106.622 211.220,117.035 223.950,126.900 231.936 C 136.362 239.596,143.644 244.101,154.480 248.997 C 157.518 250.370,162.345 252.134,165.896 253.169 C 167.088 253.516,168.389 253.911,168.786 254.046 C 171.039 254.811,178.323 256.350,183.671 257.192 C 192.958 258.653,207.240 258.656,216.329 257.198 C 238.762 253.600,256.249 245.749,273.277 231.633 C 286.573 220.610,296.859 206.881,304.556 189.882 C 305.458 187.891,306.122 185.903,305.449 187.211 L 305.114 187.861 290.009 187.861 C 278.205 187.861,274.868 187.782,274.738 187.500 C 274.648 187.301,274.634 187.529,274.709 188.006 C 274.784 188.483,274.980 191.084,275.145 193.786 C 275.311 196.488,275.566 200.260,275.713 202.168 C 276.570 213.305,276.526 213.580,273.459 216.050 C 271.652 217.507,266.615 220.112,265.029 220.411 C 264.473 220.516,263.887 220.691,263.728 220.800 C 262.016 221.977,247.654 225.261,239.595 226.319 C 216.382 229.366,183.278 229.373,160.694 226.334 C 157.644 225.923,150.557 224.649,147.110 223.891 C 142.775 222.938,136.753 221.203,136.286 220.773 C 136.135 220.634,135.765 220.520,135.463 220.520 C 134.912 220.520,134.644 220.412,130.636 218.581 C 127.428 217.114,126.590 216.659,126.590 216.383 C 126.590 216.246,126.016 215.477,125.314 214.675 C 123.718 212.851,123.631 212.359,123.991 207.218 C 124.152 204.917,124.474 200.173,124.706 196.676 C 124.938 193.179,125.205 189.733,125.298 189.017 L 125.468 187.717 110.179 187.794 L 94.890 187.871 94.575 187.216 C 94.401 186.856,94.250 186.646,94.239 186.751 " stroke="none" fill="#848484" fill-rule="evenodd"></path><path id="path3" d="M0.000 144.509 L 0.000 289.017 200.000 289.017 L 400.000 289.017 400.000 144.509 L 400.000 0.000 200.000 0.000 L 0.000 0.000 0.000 144.509 M213.873 31.165 C 214.588 31.342,216.214 31.629,217.486 31.804 C 222.079 32.433,227.214 33.538,231.431 34.804 C 237.232 36.547,238.077 36.825,238.324 37.071 C 238.440 37.188,238.722 37.283,238.950 37.283 C 239.177 37.283,239.773 37.462,240.274 37.682 C 240.775 37.901,242.681 38.704,244.509 39.467 C 247.548 40.736,252.904 43.374,256.960 45.600 C 259.353 46.914,263.970 49.956,267.902 52.811 C 274.940 57.921,284.079 66.755,289.211 73.410 C 290.131 74.603,291.016 75.725,291.178 75.904 C 291.341 76.083,291.638 76.473,291.838 76.771 C 292.039 77.069,292.819 78.187,293.572 79.256 C 297.781 85.229,305.491 99.326,305.491 101.048 C 305.491 101.139,305.668 101.623,305.884 102.124 C 306.678 103.963,306.991 104.782,307.556 106.491 C 307.874 107.451,308.245 108.497,308.380 108.815 C 308.859 109.939,309.828 113.408,310.710 117.158 C 311.202 119.246,311.714 121.409,311.848 121.965 C 312.135 123.156,312.815 127.349,313.349 131.214 C 313.869 134.980,313.871 154.019,313.352 157.803 C 312.623 163.116,311.582 168.829,310.957 170.954 C 310.817 171.431,310.385 173.056,309.997 174.566 C 308.715 179.557,306.994 184.654,305.360 188.295 C 304.931 189.249,304.381 190.484,304.136 191.040 C 303.264 193.020,300.475 198.702,300.305 198.844 C 300.210 198.923,299.977 199.314,299.788 199.711 C 298.069 203.310,291.550 212.942,288.159 216.892 C 276.351 230.647,265.268 239.387,250.000 246.983 C 247.858 248.049,246.898 248.490,244.075 249.702 C 220.069 260.012,192.580 261.224,165.338 253.173 C 146.460 247.594,126.495 234.257,112.996 218.208 C 112.127 217.175,111.343 216.264,111.253 216.185 C 111.164 216.105,110.118 214.740,108.929 213.150 C 102.683 204.800,98.090 196.645,93.951 186.561 C 93.280 184.927,93.019 184.199,92.066 181.314 C 90.200 175.660,90.391 176.303,89.413 172.399 C 88.431 168.477,87.772 164.991,86.654 157.803 C 86.122 154.384,86.122 134.634,86.654 131.214 C 87.772 124.027,88.431 120.541,89.413 116.618 C 90.161 113.634,90.361 112.891,90.700 111.850 C 92.639 105.900,93.058 104.651,93.362 103.902 C 94.186 101.871,94.803 100.409,95.984 97.688 C 96.856 95.678,99.964 89.535,100.889 87.995 C 101.274 87.353,101.742 86.573,101.928 86.261 C 104.319 82.248,110.378 73.524,111.253 72.832 C 111.354 72.753,111.735 72.298,112.101 71.821 C 115.452 67.449,123.470 59.596,129.191 55.083 C 130.542 54.017,131.842 52.987,132.081 52.794 C 136.717 49.036,148.032 42.597,155.491 39.472 C 157.319 38.706,159.225 37.901,159.726 37.682 C 160.227 37.462,160.823 37.283,161.050 37.283 C 161.278 37.283,161.560 37.188,161.676 37.071 C 161.923 36.825,162.768 36.547,168.569 34.804 C 171.332 33.974,176.614 32.735,178.902 32.379 C 179.776 32.244,180.686 32.061,180.925 31.974 C 181.384 31.805,185.405 31.279,189.017 30.916 C 192.311 30.584,212.338 30.785,213.873 31.165 M199.711 47.399 C 199.711 55.877,199.812 60.405,200.000 60.405 C 200.188 60.405,200.289 55.877,200.289 47.399 C 200.289 38.921,200.188 34.393,200.000 34.393 C 199.812 34.393,199.711 38.921,199.711 47.399 " stroke="none" fill="#140b0b" fill-rule="evenodd"></path><path id="path4" d="M211.922 31.124 C 212.200 31.197,212.655 31.197,212.934 31.124 C 213.212 31.051,212.984 30.992,212.428 30.992 C 211.871 30.992,211.644 31.051,211.922 31.124 M199.555 47.399 C 199.555 54.632,199.593 57.590,199.638 53.974 C 199.684 50.358,199.684 44.440,199.638 40.824 C 199.593 37.207,199.555 40.166,199.555 47.399 M200.422 47.399 C 200.422 54.632,200.460 57.590,200.506 53.974 C 200.551 50.358,200.551 44.440,200.506 40.824 C 200.460 37.207,200.422 40.166,200.422 47.399 M205.395 45.857 C 205.118 46.134,205.156 50.227,205.437 50.400 C 205.566 50.480,206.574 49.962,207.677 49.248 C 208.780 48.535,210.306 47.564,211.068 47.091 C 211.831 46.618,212.376 46.104,212.280 45.948 C 212.085 45.634,205.703 45.550,205.395 45.857 M86.489 133.092 C 86.492 133.728,86.551 133.954,86.621 133.595 C 86.690 133.235,86.687 132.715,86.615 132.439 C 86.542 132.163,86.486 132.457,86.489 133.092 M207.829 147.698 C 206.054 154.622,194.039 154.530,192.167 147.577 L 191.850 146.399 191.485 147.405 C 190.694 149.586,190.464 149.949,189.146 151.109 C 187.212 152.812,183.638 153.341,179.335 152.561 C 178.794 152.463,178.753 152.632,178.690 155.202 C 178.603 158.732,177.815 173.774,176.898 189.386 C 176.741 192.053,176.687 194.426,176.777 194.661 C 176.976 195.179,177.940 195.226,178.107 194.725 C 178.202 194.441,182.839 194.364,200.000 194.364 C 217.161 194.364,221.798 194.441,221.893 194.725 C 222.064 195.238,223.026 195.174,223.232 194.637 C 223.438 194.101,223.241 189.358,222.671 181.098 C 222.442 177.775,222.254 173.874,222.253 172.427 C 222.252 170.981,222.124 169.025,221.970 168.081 C 221.815 167.137,221.600 163.194,221.492 159.319 L 221.295 152.273 220.546 152.509 C 218.949 153.014,213.220 152.791,212.283 152.187 C 210.201 150.846,208.820 148.998,208.400 146.993 C 208.238 146.216,208.195 146.268,207.829 147.698 M86.489 155.925 C 86.492 156.561,86.551 156.787,86.621 156.427 C 86.690 156.068,86.687 155.548,86.615 155.271 C 86.542 154.995,86.486 155.289,86.489 155.925 M189.234 258.007 C 189.592 258.076,190.177 258.076,190.535 258.007 C 190.892 257.939,190.600 257.882,189.884 257.882 C 189.169 257.882,188.876 257.939,189.234 258.007 M209.465 258.007 C 209.823 258.076,210.408 258.076,210.766 258.007 C 211.124 257.939,210.831 257.882,210.116 257.882 C 209.400 257.882,209.108 257.939,209.465 258.007 M192.129 258.302 C 192.649 258.366,193.429 258.365,193.864 258.299 C 194.298 258.233,193.873 258.180,192.919 258.182 C 191.965 258.184,191.610 258.238,192.129 258.302 M206.291 258.302 C 206.811 258.366,207.591 258.365,208.025 258.299 C 208.460 258.233,208.035 258.180,207.081 258.182 C 206.127 258.184,205.772 258.238,206.291 258.302 " stroke="none" fill="#6c1c14" fill-rule="evenodd"></path></g></svg>