<?xml version="1.0" standalone="no"?>
<!DOCTYPE svg PUBLIC "-//W3C//DTD SVG 20010904//EN"
 "http://www.w3.org/TR/2001/REC-SVG-20010904/DTD/svg10.dtd">
<svg version="1.0" xmlns="http://www.w3.org/2000/svg"
 width="532.000000pt" height="597.000000pt" viewBox="0 0 532.000000 597.000000"
 preserveAspectRatio="xMidYMid meet">

<g transform="translate(0.000000,597.000000) scale(0.100000,-0.100000)"
fill="#000000" stroke="none">
<path d="M2317 5820 c-84 -15 -189 -50 -258 -86 -186 -98 -359 -299 -377 -439
-7 -56 -9 -61 -52 -89 -95 -64 -180 -183 -214 -299 -10 -37 -21 -47 -91 -91
-232 -142 -527 -410 -684 -619 -245 -328 -399 -678 -478 -1086 -22 -117 -26
-171 -31 -383 -6 -344 21 -548 109 -825 97 -304 269 -624 447 -832 l29 -35 18
30 c150 246 349 447 571 574 224 128 490 200 742 200 l102 0 0 193 0 193 -37
18 c-80 38 -205 130 -290 213 -173 171 -298 409 -334 635 l-12 78 -37 10 c-55
15 -115 63 -147 117 -28 48 -28 49 -31 249 -2 122 1 217 7 241 15 57 63 117
116 148 45 27 53 27 88 3 32 -22 44 11 44 115 1 146 47 382 103 516 48 117
143 250 286 399 l63 66 51 -48 c92 -87 284 -158 497 -187 139 -18 386 -7 504
24 105 28 229 80 282 121 l34 26 14 -32 c7 -18 75 -95 150 -170 76 -75 147
-155 158 -177 31 -59 66 -191 111 -408 22 -107 42 -198 45 -203 2 -4 24 -12
48 -18 60 -15 120 -62 154 -119 l28 -48 0 -225 0 -225 -28 -48 c-32 -54 -92
-102 -147 -117 l-37 -10 -12 -78 c-36 -226 -161 -464 -334 -635 -85 -83 -210
-175 -289 -213 l-38 -18 0 -193 0 -193 99 0 c298 0 588 -91 854 -267 39 -26
131 -106 203 -178 118 -118 174 -189 259 -329 l18 -30 29 35 c178 208 350 528
447 832 88 277 115 481 109 825 -5 212 -9 266 -31 383 -79 408 -233 758 -478
1086 -152 202 -486 507 -670 611 -42 23 -51 34 -65 77 -34 103 -106 228 -172
297 l-36 38 21 22 c37 39 72 123 82 191 33 236 -98 414 -291 393 -34 -3 -99
-23 -153 -45 -131 -55 -184 -65 -306 -58 -80 4 -146 16 -284 52 -159 42 -194
48 -305 51 -69 1 -147 -1 -173 -6z"/>
<path d="M1950 4166 c-128 -36 -230 -118 -230 -184 0 -19 1 -19 38 -1 84 42
247 71 422 75 91 2 169 4 174 4 19 0 -31 43 -78 67 -94 48 -234 64 -326 39z"/>
<path d="M3164 4165 c-70 -15 -150 -53 -178 -84 -11 -12 -15 -21 -10 -21 5 0
83 -2 174 -4 175 -4 338 -33 422 -75 37 -18 38 -18 38 1 0 49 -49 102 -140
148 -97 50 -190 60 -306 35z"/>
<path d="M1970 3791 c-52 -17 -89 -42 -124 -83 -34 -40 -46 -68 -27 -68 4 0
37 15 71 33 57 29 72 32 149 32 77 0 93 -3 152 -32 77 -38 79 -39 79 -16 0 27
-47 81 -96 109 -49 29 -154 42 -204 25z"/>
<path d="M3179 3787 c-70 -26 -139 -92 -139 -131 0 -21 3 -21 79 17 59 29 75
32 152 32 77 0 92 -3 149 -32 34 -18 67 -33 71 -33 37 0 -43 101 -105 132 -51
26 -156 34 -207 15z"/>
<path d="M2275 2927 c-41 -31 6 -173 89 -264 76 -84 220 -140 326 -126 65 9
155 43 202 78 132 97 213 325 116 325 -12 0 -18 -8 -18 -22 0 -27 -26 -61 -57
-77 -14 -7 -106 -11 -268 -11 -162 0 -254 4 -268 11 -31 16 -57 50 -57 77 0
26 -34 31 -65 9z"/>
</g>
</svg>
